<svg width="32" height="32" viewBox="0 0 32 32" fill="none" xmlns="http://www.w3.org/2000/svg">
<g clip-path="url(#clip0_676_61844)">
<path d="M24.5 0H7.5C3.35786 0 0 3.35786 0 7.5V24.5C0 28.6421 3.35786 32 7.5 32H24.5C28.6421 32 32 28.6421 32 24.5V7.5C32 3.35786 28.6421 0 24.5 0Z" fill="#F4F2ED"/>
<path d="M4.28125 7.64062L15.9156 3.5L27.8563 7.5765L25.9265 22.9625L15.9156 28.5L6.06725 23.0344L4.28125 7.64062Z" fill="#E23237"/>
<path d="M27.8566 7.57662L15.916 3.5V28.5L25.9269 22.9625L27.8566 7.57662Z" fill="#B52E31"/>
<path d="M15.9336 6.42188L8.68359 22.5469L11.3891 22.4921L12.85 18.8485H19.3343L20.9218 22.5204L23.5015 22.575L15.9336 6.42188ZM15.9515 11.5984L18.4046 16.7211H13.8125L15.9586 11.5984H15.9515Z" fill="white"/>
</g>
<defs>
<clipPath id="clip0_676_61844">
<rect width="32" height="32" fill="white"/>
</clipPath>
</defs>
</svg>
