<svg width="32" height="32" viewBox="0 0 32 32" fill="none" xmlns="http://www.w3.org/2000/svg">
<g clip-path="url(#clip0_676_61888)">
<path d="M24.5 0H7.5C3.35786 0 0 3.35786 0 7.5V24.5C0 28.6421 3.35786 32 7.5 32H24.5C28.6421 32 32 28.6421 32 24.5V7.5C32 3.35786 28.6421 0 24.5 0Z" fill="#F4F2ED"/>
<path d="M10.5932 13.9951C10.5932 14.2994 10.6261 14.546 10.6836 14.727C10.7566 14.9306 10.8446 15.1285 10.9468 15.3191C10.988 15.3849 11.0043 15.4506 11.0043 15.5083C11.0043 15.5905 10.955 15.6728 10.8481 15.7549L10.33 16.1004C10.256 16.1496 10.182 16.1744 10.1162 16.1744C10.034 16.1744 9.95171 16.1332 9.86946 16.0592C9.75869 15.9402 9.65958 15.8107 9.57346 15.6728C9.48154 15.5147 9.39646 15.3528 9.31846 15.1875C8.67704 15.9442 7.87113 16.3225 6.90071 16.3224C6.20996 16.3224 5.65896 16.125 5.25596 15.7303C4.85309 15.3355 4.64746 14.8092 4.64746 14.1514C4.64746 13.4522 4.89421 12.8849 5.39584 12.4572C5.89746 12.0296 6.56359 11.8158 7.41059 11.8158C7.69021 11.8158 7.97809 11.8405 8.28234 11.8816C8.58659 11.9228 8.89909 11.9885 9.22809 12.0625V11.4621C9.22809 10.8371 9.09646 10.4012 8.84159 10.1464C8.57834 9.89137 8.13434 9.76812 7.50109 9.76812C7.21321 9.76812 6.91721 9.801 6.61296 9.875C6.30871 9.949 6.01259 10.0395 5.72471 10.1546C5.6312 10.1964 5.53508 10.2321 5.43696 10.2615C5.37946 10.278 5.33821 10.2863 5.30534 10.2863C5.19034 10.2863 5.13259 10.204 5.13259 10.0312V9.62825C5.13259 9.49675 5.14909 9.398 5.19021 9.3405C5.23134 9.283 5.30534 9.22538 5.42046 9.16775C5.70829 9.01975 6.05371 8.89642 6.45671 8.79775C6.85959 8.69075 7.28721 8.6415 7.73959 8.6415C8.71821 8.6415 9.43359 8.8635 9.89421 9.3075C10.3465 9.75162 10.5767 10.426 10.5767 11.3306V13.9951H10.5932ZM7.25446 15.2451C7.52571 15.2451 7.80534 15.1958 8.10146 15.097C8.39746 14.9984 8.66059 14.8174 8.88271 14.5708C9.01421 14.4145 9.11296 14.2418 9.16221 14.0444C9.21146 13.847 9.24446 13.6085 9.24446 13.329V12.9835C8.9951 12.9228 8.74254 12.8762 8.48796 12.8438C8.23152 12.8113 7.97332 12.7948 7.71484 12.7944C7.16384 12.7944 6.76096 12.9014 6.48959 13.1234C6.21821 13.3454 6.08659 13.6579 6.08659 14.0691C6.08659 14.4556 6.18534 14.7434 6.39084 14.9408C6.58834 15.1464 6.87621 15.2451 7.25446 15.2451ZM13.8578 16.1332C13.7098 16.1332 13.6111 16.1085 13.5453 16.051C13.4796 16.0016 13.422 15.8865 13.3727 15.7303L11.4402 9.37337C11.3907 9.20887 11.3661 9.102 11.3661 9.04438C11.3661 8.91288 11.4318 8.83875 11.5635 8.83875H12.3693C12.5256 8.83875 12.6326 8.8635 12.6901 8.921C12.7558 8.97037 12.8052 9.0855 12.8546 9.24175L14.2361 14.6859L15.5191 9.24175C15.5602 9.07725 15.6095 8.9705 15.6753 8.921C15.7411 8.87175 15.8562 8.83887 16.0042 8.83887H16.6621C16.8183 8.83887 16.9253 8.8635 16.9911 8.921C17.0568 8.97037 17.1145 9.0855 17.1473 9.24175L18.4467 14.7516L19.8693 9.24175C19.9187 9.07725 19.9763 8.9705 20.0338 8.921C20.0996 8.87175 20.2066 8.83887 20.3546 8.83887H21.1193C21.251 8.83887 21.325 8.90463 21.325 9.04438C21.325 9.08563 21.3167 9.12662 21.3085 9.176C21.3003 9.22537 21.2838 9.291 21.251 9.38163L19.2691 15.7385C19.2197 15.903 19.1621 16.0099 19.0963 16.0592C19.0306 16.1085 18.9236 16.1415 18.7838 16.1415H18.0766C17.9203 16.1415 17.8135 16.1167 17.7477 16.0592C17.6818 16.0016 17.6243 15.8948 17.5915 15.7303L16.3167 10.426L15.0503 15.722C15.0092 15.8865 14.9598 15.9934 14.8941 16.051C14.8282 16.1085 14.7131 16.1332 14.5651 16.1332H13.8578ZM24.4253 16.3552C23.9977 16.3552 23.5701 16.3059 23.1588 16.2073C22.7477 16.1085 22.427 16.0016 22.2131 15.8783C22.0816 15.8043 21.9911 15.722 21.9582 15.648C21.9262 15.5754 21.9094 15.4971 21.9088 15.4178V14.9984C21.9088 14.8256 21.9746 14.7434 22.098 14.7434C22.1474 14.7434 22.1967 14.7516 22.246 14.7681C22.2953 14.7845 22.3693 14.8174 22.4516 14.8504C22.7421 14.9781 23.0453 15.0746 23.3562 15.1381C23.6783 15.2035 24.0062 15.2366 24.3348 15.2369C24.853 15.2369 25.2558 15.1464 25.5355 14.9655C25.8151 14.7845 25.9631 14.5214 25.9631 14.1842C25.9631 13.954 25.8891 13.7647 25.7411 13.6085C25.5931 13.4522 25.3135 13.3125 24.9105 13.1809L23.7181 12.8109C23.1177 12.6217 22.6736 12.3421 22.4022 11.9721C22.1308 11.6103 21.9911 11.2071 21.9911 10.7796C21.9911 10.4343 22.0651 10.13 22.2131 9.86675C22.3611 9.60362 22.5585 9.37338 22.8052 9.1925C23.052 9.00325 23.3316 8.8635 23.6605 8.76475C23.9895 8.666 24.3348 8.625 24.6967 8.625C24.8776 8.625 25.0667 8.63325 25.2477 8.65788C25.4368 8.6825 25.6095 8.71537 25.7822 8.74837C25.9467 8.7895 26.103 8.83063 26.251 8.88C26.399 8.92925 26.5141 8.97858 26.5963 9.028C26.7115 9.09375 26.7937 9.1595 26.8431 9.2335C26.8924 9.29933 26.9171 9.38983 26.9171 9.505V9.8915C26.9171 10.0641 26.8513 10.1546 26.728 10.1546C26.6621 10.1546 26.5552 10.1217 26.4155 10.0559C25.9467 9.84212 25.4204 9.73525 24.8365 9.73525C24.3677 9.73525 23.9977 9.80925 23.7427 9.9655C23.4877 10.1217 23.3562 10.3603 23.3562 10.6974C23.3562 10.9276 23.4385 11.125 23.603 11.2812C23.7675 11.4375 24.0717 11.5937 24.5076 11.7335L25.6753 12.1035C26.2673 12.2928 26.6951 12.5559 26.95 12.8931C27.2048 13.2304 27.3282 13.6168 27.3282 14.0444C27.3282 14.398 27.2542 14.7187 27.1145 14.9984C26.9665 15.278 26.7691 15.5246 26.5141 15.722C26.2592 15.9276 25.9548 16.0756 25.6013 16.1826C25.2312 16.2977 24.8447 16.3552 24.4253 16.3552Z" fill="#252F3E"/>
<path fill-rule="evenodd" clip-rule="evenodd" d="M25.9797 20.352C23.2741 22.3504 19.3432 23.4113 15.9632 23.4113C11.2264 23.4113 6.95819 21.6595 3.73456 18.7484C3.47956 18.5182 3.70994 18.2057 4.01419 18.3865C7.50106 20.4095 11.8021 21.6349 16.2511 21.6349C19.2527 21.6349 22.5504 21.0099 25.5849 19.727C26.0372 19.5214 26.4237 20.023 25.9797 20.352Z" fill="#FF9900"/>
<path fill-rule="evenodd" clip-rule="evenodd" d="M27.106 19.0692C26.7607 18.6251 24.8199 18.8554 23.9399 18.9622C23.6768 18.9952 23.6357 18.7649 23.8742 18.5922C25.4202 17.5067 27.9613 17.8192 28.2574 18.181C28.5534 18.5511 28.1752 21.0922 26.7278 22.3094C26.5057 22.4985 26.2919 22.3997 26.3905 22.1531C26.7195 21.339 27.4514 19.505 27.106 19.0692Z" fill="#FF9900"/>
</g>
<defs>
<clipPath id="clip0_676_61888">
<rect width="32" height="32" fill="white"/>
</clipPath>
</defs>
</svg>
