<svg width="40" height="32" viewBox="0 0 40 32" fill="none" xmlns="http://www.w3.org/2000/svg">
<g clip-path="url(#clip0_676_61950)">
<path d="M8.30813 0C6.02578 0 4.33687 2.00549 4.4125 4.18039C4.48516 6.2698 4.39078 8.97616 3.71219 11.1831C3.03156 13.3964 1.88031 14.7984 0 14.9785V17.0108C1.88031 17.1909 3.03156 18.5929 3.71219 20.8064C4.39078 23.0133 4.48516 25.7194 4.4125 27.8089C4.33687 29.9835 6.02578 31.9893 8.30844 31.9893H31.6948C33.9773 31.9893 35.6658 29.9838 35.5902 27.8089C35.5177 25.7195 35.6119 23.0133 36.2905 20.8064C36.9716 18.5931 38.1197 17.1907 40 17.0108V14.9785C38.1197 14.7984 36.9716 13.3964 36.2906 11.1831C35.6119 8.97647 35.5177 6.26996 35.5902 4.18039C35.6658 2.0058 33.9773 0 31.6948 0H8.30781H8.30813ZM27.1187 19.6915C27.1187 22.6863 24.8938 24.5024 21.2013 24.5024H14.9153C14.7355 24.5023 14.5632 24.4306 14.4361 24.303C14.309 24.1754 14.2375 24.0023 14.2375 23.8218V8.16753C14.2375 7.987 14.3089 7.81387 14.4361 7.6862C14.5632 7.55853 14.7356 7.48679 14.9155 7.48675H21.1653C24.2442 7.48675 26.2648 9.16126 26.2648 11.7319C26.2648 13.5363 24.9055 15.1517 23.1737 15.4345V15.5288C25.5314 15.7884 27.1187 17.4275 27.1187 19.6915ZM20.5156 9.64439H16.9317V14.7267H19.9505C22.2839 14.7267 23.5708 13.7834 23.5708 12.0971C23.5708 10.517 22.4641 9.64439 20.5156 9.64439ZM16.9319 16.7434V22.3442H20.6478C23.0772 22.3442 24.3644 21.3655 24.3644 19.5261C24.3644 17.6864 23.0414 16.7431 20.4916 16.7431H16.9319V16.7434Z" fill="#7E13F8"/>
</g>
<defs>
<clipPath id="clip0_676_61950">
<rect width="40" height="32" fill="white"/>
</clipPath>
</defs>
</svg>
