<svg width="75" height="59" viewBox="0 0 75 59" fill="none" xmlns="http://www.w3.org/2000/svg">
<g clip-path="url(#clip0_646_61135)">
<path d="M45.7013 0.162951C43.744 -0.401219 41.7061 0.738634 41.1419 2.69596L26.4044 54.2772C25.8403 56.2345 26.9801 58.2724 28.9374 58.8366C30.8948 59.4008 32.9327 58.2609 33.4968 56.3036L48.2343 4.72236C48.7985 2.76504 47.6587 0.727121 45.7013 0.162951ZM54.9814 13.9909C53.5421 15.4301 53.5421 17.7674 54.9814 19.2066L65.2631 29.4998L54.9698 39.793C53.5306 41.2322 53.5306 43.5695 54.9698 45.0087C56.4091 46.4479 58.7463 46.4479 60.1855 45.0087L73.0808 32.1134C74.5201 30.6742 74.5201 28.3369 73.0808 26.8977L60.1855 14.0024C58.7463 12.5632 56.4091 12.5632 54.9698 14.0024L54.9814 13.9909ZM19.6689 13.9909C18.2297 12.5517 15.8924 12.5517 14.4532 13.9909L1.55792 26.8862C0.118713 28.3254 0.118713 30.6627 1.55792 32.1019L14.4532 44.9972C15.8924 46.4364 18.2297 46.4364 19.6689 44.9972C21.1081 43.558 21.1081 41.2207 19.6689 39.7815L9.37571 29.4998L19.6689 19.2066C21.1081 17.7674 21.1081 15.4301 19.6689 13.9909Z" fill="white" fill-opacity="0.5"/>
</g>
<defs>
<clipPath id="clip0_646_61135">
<rect width="73.6875" height="58.95" fill="white" transform="translate(0.475586 0.0249023)"/>
</clipPath>
</defs>
</svg>
