<svg width="128" height="30" viewBox="0 0 128 30" fill="none" xmlns="http://www.w3.org/2000/svg">
<path d="M18.8886 14.787C18.8886 12.9894 17.5252 11.7261 15.8505 11.7261C14.1757 11.7261 12.8123 13.0107 12.8123 14.787C12.8123 16.542 14.1757 17.848 15.8505 17.848C17.5269 17.8463 18.8886 16.5845 18.8886 14.787ZM18.9126 20.1371V18.7459C18.0863 19.7094 16.8564 20.3075 15.3835 20.3075C12.3231 20.3075 10 17.9528 10 14.787C10 11.6409 12.412 9.24519 15.4519 9.24519C16.8821 9.24519 18.0881 9.84492 18.9143 10.7855V9.4369H21.6616V20.1371H18.9126Z" fill="white" fill-opacity="0.75"/>
<path d="M35.0064 17.7611C34.045 17.7611 33.7782 17.4186 33.7782 16.5207V11.7703H35.5436V9.4369H33.7782V6.82658H30.9624V9.4369H27.3358V8.78637C27.3358 7.88677 27.6934 7.54429 28.677 7.54429H29.2945V5.46816H27.9397C25.6166 5.46816 24.5217 6.19571 24.5217 8.42095V9.43526H22.9582V11.7687H24.5217V20.1354H27.3375V11.7687H30.9641V17.0122C30.9641 19.1948 31.8349 20.1371 34.1135 20.1371H35.5658V17.7611H35.0064Z" fill="white" fill-opacity="0.75"/>
<path d="M45.1047 13.8235C44.9045 12.4322 43.719 11.5982 42.335 11.5982C40.9494 11.5982 39.8101 12.4109 39.521 13.8235H45.1047ZM39.4971 15.4932C39.6989 17.0761 40.8827 17.9757 42.3796 17.9757C43.5633 17.9757 44.4803 17.4398 45.0157 16.5845H47.8981C47.2276 18.8524 45.1047 20.3075 42.3129 20.3075C38.9394 20.3075 36.5718 18.0396 36.5718 14.8082C36.5718 11.5769 39.0746 9.2435 42.3812 9.2435C45.7102 9.2435 48.1223 11.5982 48.1223 14.8082C48.1223 15.0442 48.1 15.2786 48.0555 15.4932H39.4971Z" fill="white" fill-opacity="0.75"/>
<path d="M66.0244 14.787C66.0244 13.0533 64.661 11.7261 62.9862 11.7261C61.3115 11.7261 59.9481 13.0107 59.9481 14.787C59.9481 16.542 61.3115 17.848 62.9862 17.848C64.661 17.8463 66.0244 16.5207 66.0244 14.787ZM57.1768 9.4369H59.9241V10.8281C60.7504 9.84328 61.9786 9.24519 63.4532 9.24519C66.4692 9.24519 68.8368 11.6212 68.8368 14.7657C68.8368 17.9118 66.4247 20.3091 63.3866 20.3091C61.9786 20.3091 60.8171 19.7733 60.0131 18.8754V24.5401H57.1768V9.4369Z" fill="white" fill-opacity="0.75"/>
<path d="M78.7398 14.787C78.7398 12.9894 77.3781 11.7261 75.7015 11.7261C74.0268 11.7261 72.6634 13.0107 72.6634 14.787C72.6634 16.542 74.0268 17.848 75.7015 17.848C77.3781 17.8463 78.7398 16.5845 78.7398 14.787ZM78.7639 20.1371V18.7459C77.9376 19.7094 76.7073 20.3075 75.2344 20.3075C72.1742 20.3075 69.8511 17.9528 69.8511 14.787C69.8511 11.6409 72.2632 9.24519 75.3014 9.24519C76.7314 9.24519 77.9376 9.84492 78.7639 10.7855V9.4369H81.5114V20.1371H78.7639Z" fill="white" fill-opacity="0.75"/>
<path d="M52.2244 10.4856C52.2244 10.4856 52.9241 9.24519 54.6364 9.24519C55.3686 9.24519 55.8425 9.48606 55.8425 9.48606V12.216C55.8425 12.216 54.8092 11.6048 53.8598 11.7277C52.9104 11.8506 52.3099 12.6863 52.3134 13.8038V20.1387H49.4771V9.43854H52.2244V10.4856Z" fill="white" fill-opacity="0.75"/>
<path d="M94.3425 9.43688L87.4058 24.5056H84.4807L87.2041 18.6803L82.5992 9.43688H85.9146L88.6088 15.6128L91.3732 9.43688H94.3425Z" fill="white" fill-opacity="0.75"/>
<path d="M116.486 9.19437L109.609 5.39278C107.59 4.27688 105.067 5.67135 105.067 7.90478V8.29477C105.067 8.64708 105.264 8.97316 105.582 9.14849L106.88 9.86621C107.262 10.0776 107.737 9.81378 107.737 9.39265V8.42259C107.737 7.93755 108.285 7.63441 108.723 7.87693L114.679 11.1705C115.118 11.4131 115.118 12.0194 114.679 12.2603L108.723 15.5539C108.285 15.7964 107.737 15.4932 107.737 15.0082V14.492C107.737 12.2586 105.214 10.8625 103.194 11.98L96.3173 15.7816C94.2985 16.8976 94.2985 19.6897 96.3173 20.8056L103.194 24.6072C105.212 25.7231 107.737 24.3287 107.737 22.0952V21.7052C107.737 21.3529 107.541 21.0285 107.223 20.8515L105.924 20.1321C105.543 19.9208 105.067 20.1846 105.067 20.6057V21.5758C105.067 22.0608 104.52 22.3639 104.082 22.1214L98.1253 18.8278C97.6874 18.5853 97.6874 17.979 98.1253 17.7365L104.082 14.4428C104.52 14.2003 105.067 14.5035 105.067 14.9885V15.5047C105.067 17.7381 107.59 19.1343 109.609 18.0167L116.486 14.2151C118.505 13.1025 118.505 10.3103 116.486 9.19437Z" fill="white" fill-opacity="0.75"/>
</svg>
