<svg width="135" height="36" viewBox="0 0 135 36" fill="none" xmlns="http://www.w3.org/2000/svg">
<path d="M44.1597 12.4075H48.9437C51.5937 12.4075 52.9695 13.493 52.9695 15.5312V15.6328C53.0073 16.2301 52.8292 16.8211 52.4677 17.2983C52.1062 17.7755 51.5853 18.1073 50.9996 18.2333C51.701 18.295 52.3496 18.6306 52.8048 19.1672C53.26 19.7038 53.4849 20.3981 53.4307 21.0994V21.1697C53.4307 23.3954 51.9689 24.5668 49.1626 24.5668H44.1597V12.4075ZM48.4982 17.3977C49.8271 17.3977 50.3508 16.9213 50.3508 15.8358V15.7655C50.3508 14.7503 49.7724 14.2895 48.4825 14.2895H46.8488V17.4133L48.4982 17.3977ZM48.7327 22.6535C50.0928 22.6535 50.7104 22.0365 50.7104 20.9354V20.8651C50.7104 19.7405 50.0928 19.1704 48.5998 19.1704H46.8488V22.6613L48.7327 22.6535Z" fill="white" fill-opacity="0.75"/>
<path d="M54.15 22.0912C54.15 20.0139 56.0495 19.2329 58.7777 19.2329H59.7783V18.8815C59.7783 17.8272 59.4578 17.2493 58.3321 17.2493C58.1499 17.2277 57.9652 17.2436 57.7894 17.296C57.6135 17.3484 57.4503 17.4362 57.3097 17.5539C57.1691 17.6717 57.0541 17.817 56.9718 17.9809C56.8895 18.1447 56.8417 18.3236 56.8312 18.5067H54.4861C54.6425 16.3981 56.3075 15.461 58.4885 15.461C60.6694 15.461 62.2094 16.3434 62.2094 18.7566V24.5512H59.8095V23.4813C59.5084 23.9052 59.1023 24.2439 58.631 24.4643C58.1597 24.6846 57.6393 24.7792 57.1205 24.7386C55.5102 24.7386 54.15 23.9577 54.15 22.0912ZM59.7783 21.443V20.6621H58.8246C57.3941 20.6621 56.5655 20.9744 56.5655 21.9194C56.5655 22.5676 56.9563 22.9971 57.8553 22.9971C58.9418 23.0283 59.7783 22.427 59.7783 21.443Z" fill="white" fill-opacity="0.75"/>
<path d="M63.2489 21.7632H65.5471C65.6487 22.5441 66.0395 23.0283 67.1105 23.0283C68.0642 23.0283 68.5097 22.6691 68.5097 22.0521C68.5097 21.4352 67.9782 21.1853 66.704 21.0057C64.3589 20.6464 63.4208 19.967 63.4208 18.2333C63.4208 16.4996 65.125 15.461 66.9385 15.461C68.9162 15.461 70.3936 16.1794 70.6125 18.2177H68.3534C68.2205 17.4836 67.8062 17.1478 66.962 17.1478C66.1177 17.1478 65.7034 17.5227 65.7034 18.0615C65.7034 18.6004 66.1255 18.8425 67.4153 19.0299C69.6432 19.3501 70.8705 19.9124 70.8705 21.8179C70.8705 23.7234 69.479 24.7386 67.1261 24.7386C64.7732 24.7386 63.3349 23.6843 63.2489 21.7632Z" fill="white" fill-opacity="0.75"/>
<path d="M71.5037 20.2169V20.0841C71.474 19.4738 71.5716 18.864 71.7902 18.2933C72.0088 17.7227 72.3437 17.2036 72.7736 16.769C73.2035 16.3343 73.719 15.9936 74.2876 15.7685C74.8562 15.5433 75.4654 15.4386 76.0766 15.4609C78.3748 15.4609 80.4151 16.8042 80.4151 19.9826V20.662H74.0286C74.0911 22.138 74.8963 23.0049 76.233 23.0049C77.3743 23.0049 77.9371 22.5129 78.0934 21.7632H80.4385C80.1493 23.6843 78.6172 24.7542 76.1861 24.7542C73.4579 24.7386 71.5037 23.0595 71.5037 20.2169ZM78.0153 19.147C77.9371 17.8038 77.2492 17.1946 76.0766 17.1946C75.5488 17.1922 75.0405 17.3942 74.6585 17.7582C74.2766 18.1223 74.0508 18.6201 74.0286 19.147H78.0153Z" fill="white" fill-opacity="0.75"/>
<path d="M81.0639 20.2168V20.0841C81.0341 19.4724 81.1321 18.8612 81.3517 18.2894C81.5712 17.7177 81.9075 17.1978 82.3391 16.7629C82.7707 16.3281 83.2882 15.9877 83.8586 15.7636C84.4291 15.5394 85.04 15.4363 85.6525 15.4609C87.7162 15.4609 89.6157 16.359 89.8424 18.9127H87.4973C87.4817 18.6935 87.4222 18.4796 87.3223 18.2839C87.2223 18.0881 87.084 17.9144 86.9156 17.7731C86.7472 17.6318 86.552 17.5257 86.3418 17.4612C86.1315 17.3967 85.9104 17.3751 85.6916 17.3976C84.4174 17.3976 83.5654 18.3504 83.5654 20.0528V20.1856C83.5654 21.974 84.3471 22.8877 85.7463 22.8877C85.9844 22.9013 86.2228 22.8676 86.4477 22.7883C86.6726 22.709 86.8794 22.5859 87.0562 22.426C87.233 22.2661 87.3761 22.0727 87.4774 21.857C87.5786 21.6413 87.6359 21.4076 87.6458 21.1696H89.8737C89.7408 23.2781 88.2087 24.7385 85.6212 24.7385C83.0338 24.7385 81.0639 23.122 81.0639 20.2168Z" fill="white" fill-opacity="0.75"/>
<path d="M90.4445 22.0912C90.4445 20.0139 92.344 19.2329 95.0643 19.2329H96.0727V18.8815C96.0727 17.8272 95.7444 17.2493 94.6266 17.2493C94.4432 17.2254 94.2568 17.2395 94.0791 17.2909C93.9014 17.3422 93.7362 17.4296 93.5939 17.5476C93.4515 17.6656 93.3351 17.8117 93.2519 17.9767C93.1686 18.1417 93.1203 18.3221 93.1101 18.5066H90.765C90.9213 16.3981 92.5863 15.461 94.7595 15.461C96.9326 15.461 98.4882 16.3434 98.4882 18.7565V24.5512H96.0884V23.4813C95.7872 23.9052 95.3811 24.2439 94.9098 24.4643C94.4385 24.6846 93.9181 24.7791 93.3993 24.7386C91.8359 24.7386 90.4445 23.9576 90.4445 22.0912ZM96.0727 21.443V20.662H95.1347C93.7042 20.662 92.8677 20.9744 92.8677 21.9194C92.8677 22.5676 93.2664 22.9971 94.1654 22.9971C95.2676 23.0283 96.104 22.427 96.104 21.443H96.0727Z" fill="white" fill-opacity="0.75"/>
<path d="M100.223 15.6327H102.686V16.9916C102.954 16.5088 103.349 16.1082 103.829 15.833C104.308 15.5578 104.853 15.4184 105.406 15.4297C105.934 15.3875 106.461 15.5168 106.909 15.7983C107.357 16.0797 107.701 16.4983 107.892 16.9916C108.22 16.5017 108.666 16.102 109.189 15.8291C109.713 15.5562 110.296 15.4189 110.886 15.4297C112.535 15.4297 113.809 16.4683 113.809 18.8268V24.5199H111.363V19.1314C111.363 17.9912 110.855 17.4836 109.963 17.4836C109.726 17.4733 109.49 17.5142 109.27 17.6035C109.05 17.6929 108.852 17.8285 108.69 18.0013C108.527 18.174 108.404 18.3797 108.328 18.6044C108.253 18.8291 108.227 19.0674 108.251 19.3032V24.5511H105.797V19.1314C105.797 17.9912 105.273 17.4836 104.405 17.4836C104.168 17.4721 103.93 17.5122 103.71 17.601C103.489 17.6898 103.29 17.8253 103.127 17.9982C102.963 18.171 102.839 18.3772 102.763 18.6024C102.687 18.8277 102.661 19.0667 102.686 19.3032V24.5511H100.223V15.6327Z" fill="white" fill-opacity="0.75"/>
<path d="M115.498 15.6327H117.968V17.0306C118.263 16.5417 118.679 16.1372 119.176 15.8567C119.673 15.5761 120.235 15.429 120.806 15.4297C122.987 15.4297 124.714 17.0462 124.714 19.9826V20.1232C124.714 23.0595 123.049 24.7073 120.806 24.7073C120.235 24.7307 119.669 24.5975 119.169 24.3222C118.668 24.0468 118.253 23.6398 117.968 23.1454V27.5812H115.498V15.6327ZM122.182 20.006C122.182 18.202 121.298 17.3196 120.055 17.3196C118.812 17.3196 117.882 18.2177 117.882 20.006V20.1388C117.882 21.9193 118.734 22.7862 120.079 22.7862C121.423 22.7862 122.182 21.8803 122.182 20.17V20.006Z" fill="white" fill-opacity="0.75"/>
<path fill-rule="evenodd" clip-rule="evenodd" d="M25.8836 8.16302C18.9472 8.16302 15.3298 14.0326 13.3044 19.7695C13.0595 20.463 12.2983 20.8269 11.6041 20.5823C11.1076 20.4074 10.7799 19.9685 10.7231 19.479C10.7005 19.2841 10.7208 19.0812 10.7905 18.8837C12.8456 13.0627 17.0453 5.5 25.8836 5.5C30.5034 5.5 33.8101 8.55332 35.9487 12.2215C38.0929 15.8993 39.2361 20.4533 39.4937 24.1302C39.5122 24.3945 39.4514 24.6583 39.319 24.8878C38.0805 27.0356 36.0201 28.4353 33.6714 29.2926C31.3285 30.1478 28.6146 30.4971 25.8943 30.498C23.5831 30.5341 21.2913 30.072 19.1749 29.1432C17.0552 28.213 15.1614 26.8365 13.6232 25.1078C13.2959 24.7401 13.1984 24.222 13.3695 23.7606L13.3705 23.7579L13.3724 23.7528L13.3789 23.7354L13.4025 23.6732C13.4228 23.62 13.4523 23.5437 13.4903 23.4476C13.5663 23.2556 13.6765 22.9836 13.8159 22.6582C14.0935 22.0103 14.4922 21.137 14.9712 20.2553C15.4439 19.3852 16.0251 18.4499 16.6788 17.7129C17.2747 17.0411 18.2009 16.2226 19.3864 16.2146L19.3955 16.2145C20.2332 16.2145 20.9213 16.5977 21.4166 16.9661C21.9159 17.3374 22.3694 17.8093 22.7327 18.1934C22.7744 18.2375 22.8149 18.2804 22.8544 18.3222C23.1927 18.6806 23.4515 18.9548 23.6974 19.16C23.7251 19.1831 23.7504 19.2035 23.7736 19.2214C23.8535 19.1398 23.949 19.0328 24.0588 18.8967C24.4494 18.4129 24.8882 17.7314 25.3128 17.0018C25.7318 16.2818 26.1131 15.5565 26.3912 15.0079C26.5297 14.7345 26.6415 14.5072 26.7183 14.349C26.7566 14.27 26.7862 14.2083 26.8059 14.167L26.8279 14.1207L26.8331 14.1096L26.8342 14.1073C27.1467 13.4415 27.9403 13.1545 28.6068 13.4666C29.2733 13.7787 29.5603 14.5715 29.2479 15.2373L29.245 15.2434L29.2381 15.2581L29.2125 15.3121C29.1903 15.3586 29.1581 15.4258 29.1168 15.5108C29.0344 15.6806 28.9158 15.9219 28.7693 16.2108C28.4775 16.7867 28.0708 17.5609 27.6172 18.3403C27.1692 19.11 26.6509 19.928 26.1335 20.5687C25.877 20.8864 25.5861 21.2043 25.2716 21.4542C24.9936 21.6751 24.5032 22.0014 23.8746 22.0014C23.0434 22.0014 22.3884 21.5377 21.9881 21.2035C21.6109 20.8885 21.234 20.4882 20.9174 20.152C20.8756 20.1076 20.8349 20.0643 20.7953 20.0225C20.42 19.6257 20.1132 19.3166 19.8249 19.1022C19.5723 18.9143 19.4433 18.8834 19.4062 18.8785C19.4062 18.8785 19.4036 18.8795 19.4012 18.8803C19.3605 18.8947 19.1157 18.9809 18.6739 19.479C18.2158 19.9955 17.7471 20.7284 17.314 21.5256C16.8872 22.3113 16.5243 23.1043 16.2666 23.7059C16.2334 23.7834 16.202 23.8575 16.1726 23.9278C17.3456 25.0955 18.7266 26.0378 20.2469 26.705C22.0154 27.4811 23.9306 27.8666 25.8619 27.8352L25.8836 27.835C28.4049 27.835 30.7915 27.5086 32.7566 26.7913C34.5645 26.1314 35.9437 25.1696 36.8009 23.8928C36.5104 20.6206 35.4671 16.6867 33.6453 13.5618C31.7385 10.2913 29.1512 8.16302 25.8836 8.16302ZM23.5545 19.4106C23.5545 19.4106 23.5603 19.4062 23.5715 19.4004C23.56 19.4082 23.5545 19.4106 23.5545 19.4106Z" fill="white" fill-opacity="0.75"/>
</svg>
