<svg width="113" height="32" viewBox="0 0 113 32" fill="none" xmlns="http://www.w3.org/2000/svg">
<path d="M49.8866 26.7698C53.3343 26.7698 56.0038 26.2816 57.8952 25.3052C59.7865 24.3287 60.7321 22.7345 60.7321 20.5225C60.7321 19.0678 60.3183 17.9619 59.4908 17.2046C58.6637 16.4474 57.3633 15.9093 55.5901 15.5905C57.0086 15.2916 58.1117 14.7934 58.8999 14.0959C59.6881 13.3785 60.0821 12.3822 60.0821 11.1068C60.0821 9.77166 59.7375 8.67563 59.0477 7.81875C58.3579 6.96187 57.2352 6.31422 55.6788 5.87582C54.9104 5.67654 54.0042 5.52708 52.96 5.42745C51.9355 5.30788 50.7731 5.2481 49.4729 5.2481H27.9294V26.7698H49.8866ZM48.4976 11.7046C49.1872 11.7046 49.66 11.8043 49.9161 12.0035C50.1722 12.2028 50.2905 12.432 50.2707 12.691C50.2707 12.9501 50.1526 13.1892 49.9161 13.4084C49.6797 13.6277 49.2069 13.7372 48.4976 13.7372H37.2087V11.7046H48.4976ZM48.3499 17.9818C49.2364 17.9818 49.8275 18.0715 50.123 18.2508C50.4382 18.4302 50.5958 18.6793 50.5958 18.9981C50.5958 19.3169 50.4481 19.586 50.1526 19.8052C49.8767 20.0044 49.2758 20.1041 48.3499 20.1041H37.2087V17.9818H48.3499Z" fill="white" fill-opacity="0.75"/>
<path d="M71.2819 18.5153H68.7109L69.9815 13.8522L71.2819 18.5153ZM73.6167 26.7653H80.5908L73.4986 5.24353H66.524L59.5201 26.7653H66.4649L67.2037 24.0452H72.8482L73.6167 26.7653Z" fill="white" fill-opacity="0.75"/>
<path d="M85.2306 17.1403L85.1125 15.018L85.4668 16.2435L89.3088 26.7653H93.5642V5.24353H89.1903V15.018L89.2791 16.9609L88.9541 15.7653L85.2009 5.24353H80.8568V26.7653H85.2306V17.1403Z" fill="white" fill-opacity="0.75"/>
<path d="M100.04 26.7609H102.256V15.2826H98.3555V18.7201H99.2714V22.4864C99.2714 23.0245 99.2027 23.4031 99.0645 23.6223C98.9464 23.8415 98.7496 23.9511 98.4736 23.9511C98.2178 23.9511 98.0205 23.8515 97.8827 23.6522C97.7449 23.433 97.6758 23.1141 97.6758 22.6956V9.03532C97.6758 8.59692 97.7248 8.29801 97.8237 8.13859C97.9417 7.95924 98.1189 7.86957 98.3555 7.86957C98.5917 7.86957 98.7592 7.93931 98.8576 8.07881C98.9762 8.2183 99.0352 8.51721 99.0352 8.97555V13.6685H102.286V8.64674C102.286 7.37138 101.941 6.44474 101.251 5.86685C100.562 5.28895 99.6064 5 98.3848 5C97.1833 5 96.2276 5.29891 95.5186 5.89674C94.8092 6.47464 94.4544 7.42119 94.4544 8.73641V23.2935C94.4544 24.6087 94.6911 25.5553 95.1639 26.1332C95.6367 26.7111 96.3457 27 97.2918 27C97.9811 27 98.513 26.7908 98.8874 26.3723C99.2815 25.9538 99.5277 25.2464 99.6261 24.25L100.04 26.7609Z" fill="white" fill-opacity="0.75"/>
<path d="M15.5462 7.72039V5.23941H10.2859V7.72039H11.6748V26.7611H14.1572V7.72039H15.5462Z" fill="white" fill-opacity="0.75"/>
<path d="M19.5518 26.7611H22.0342V5.23941H19.5518V14.6552H18.6357V5.23941H16.1238V26.7611H18.6357V17.0465H19.5518V26.7611Z" fill="white" fill-opacity="0.75"/>
<path d="M27.2479 24.2802H25.4452V17.1063H27.1297V14.6552H25.4452V7.6905H27.1888V5.23941H22.9924V26.7611H27.2479V24.2802Z" fill="white" fill-opacity="0.75"/>
</svg>
