<svg width="101" height="26" viewBox="0 0 101 26" fill="none" xmlns="http://www.w3.org/2000/svg">
<path d="M25.1972 20.8766H18.1206C17.7498 20.8766 17.4746 20.5296 17.5565 20.1648L17.9592 18.3678C18.0022 18.1763 18.138 18.019 18.3204 17.9504L21.508 16.7468C21.7137 16.6691 21.945 16.7157 22.1055 16.867L25.5103 20.0762C25.8138 20.3628 25.6132 20.8766 25.1972 20.8766Z" fill="white" fill-opacity="0.75"/>
<path d="M15.6557 11.7808L10.9311 20.0487C10.7208 20.4172 10.9841 20.8766 11.4052 20.8766H15.8175C16.0744 20.8766 16.297 20.6965 16.3524 20.4432L17.9135 13.288C17.9565 13.0919 17.8906 12.888 17.7412 12.7555L16.4918 11.6428C16.2326 11.4115 15.8285 11.4787 15.6557 11.7808Z" fill="white" fill-opacity="0.75"/>
<path d="M16.9625 10.4058L28.0204 20.75C28.4003 21.1056 28.9776 20.6412 28.7189 20.1882L20.174 5.23137C19.998 4.92326 19.5573 4.9228 19.3804 5.23046L16.8483 9.63547C16.7029 9.88782 16.7504 10.2074 16.9625 10.4058Z" fill="white" fill-opacity="0.75"/>
<path d="M49.5235 20.4158L53.1207 10.275C53.2149 10.009 53.0197 9.72919 52.7399 9.72919H51.7379C51.5651 9.72919 51.411 9.84027 51.3552 10.0053L48.1836 19.3644H47.8727L44.7011 10.0053C44.6453 9.84027 44.4912 9.72919 44.3184 9.72919H43.3164C43.0366 9.72919 42.8414 10.009 42.9356 10.275L46.5328 20.4158C46.5904 20.5781 46.7427 20.6864 46.9136 20.6864H49.1427C49.3136 20.6864 49.4659 20.5781 49.5235 20.4158Z" fill="white" fill-opacity="0.75"/>
<path d="M34.7991 18.9607C34.3328 18.6174 34.0996 18.1397 34.0996 17.5267C34.0996 16.9146 34.325 16.4551 34.7767 16.1484C35.2283 15.8426 35.802 15.6894 36.4983 15.6894H40.0964V15.9358C40.0964 17.0563 39.7742 17.9267 39.13 18.5461C38.4859 19.1664 37.6452 19.4764 36.6094 19.4764C35.8688 19.4764 35.2654 19.3045 34.7991 18.9607ZM38.2528 20.6974C38.7264 20.4954 39.1003 20.2416 39.3742 19.9354C39.648 19.6295 39.8665 19.3342 40.0297 19.0503H40.2962V19.1623C40.2962 19.6259 40.4443 19.9952 40.7406 20.2718C41.0363 20.5484 41.429 20.6864 41.9177 20.6864H42.523C42.7451 20.6864 42.9257 20.5045 42.9257 20.2796V19.5911C42.9257 19.3667 42.7451 19.1847 42.523 19.1847H41.8286V13.5605C41.8286 12.2462 41.4436 11.2268 40.6738 10.5018C39.904 9.77765 38.8228 9.41514 37.4313 9.41514C36.528 9.41514 35.754 9.56828 35.1099 9.87456C34.4658 10.1808 33.9515 10.584 33.5666 11.0846C33.2686 11.4718 33.0327 11.8924 32.859 12.3468C32.7753 12.5648 32.8937 12.8099 33.1145 12.8821L33.9739 13.1632C34.1842 13.2323 34.4068 13.1166 34.4814 12.9068C34.6729 12.3674 34.9678 11.9239 35.3655 11.5774C35.8542 11.1518 36.5353 10.9388 37.4089 10.9388C38.2971 10.9388 38.9673 11.1628 39.419 11.6112C39.8706 12.0592 40.0964 12.6718 40.0964 13.4485V13.9235C40.0964 14.1063 39.9488 14.2554 39.7673 14.2554H36.4315C35.6617 14.2554 34.9655 14.3783 34.3438 14.6247C33.722 14.8716 33.2334 15.2373 32.8777 15.7228C32.5225 16.2087 32.3447 16.825 32.3447 17.5715C32.3447 18.3034 32.5225 18.9237 32.8777 19.4311C33.2334 19.9395 33.722 20.3276 34.3438 20.5968C34.9655 20.8656 35.6544 21 36.4096 21C37.1648 21 37.7787 20.899 38.2528 20.6974Z" fill="white" fill-opacity="0.75"/>
<path d="M56.2366 18.9607C55.7703 18.6174 55.5371 18.1397 55.5371 17.5267C55.5371 16.9146 55.7625 16.4551 56.2142 16.1484C56.6656 15.8426 57.2393 15.6894 57.9356 15.6894H61.5338V15.9358C61.5338 17.0563 61.2115 17.9267 60.5673 18.5461C59.9232 19.1664 59.0826 19.4764 58.0467 19.4764C57.3061 19.4764 56.7027 19.3045 56.2366 18.9607ZM59.6901 20.6974C60.1637 20.4954 60.5376 20.2416 60.8115 19.9354C61.0853 19.6295 61.3038 19.3342 61.467 19.0503H61.7335V19.1623C61.7335 19.6259 61.8812 19.9952 62.1779 20.2718C62.4736 20.5484 62.8663 20.6864 63.355 20.6864H63.9603C64.1824 20.6864 64.363 20.5045 64.363 20.2796V19.5911C64.363 19.3667 64.1824 19.1847 63.9603 19.1847H63.2659V13.5605C63.2659 12.2462 62.8805 11.2268 62.1111 10.5018C61.3413 9.77765 60.2602 9.41514 58.8681 9.41514C57.9653 9.41514 57.1913 9.56828 56.5474 9.87456C55.9033 10.1808 55.389 10.584 55.0036 11.0846C54.706 11.4718 54.4702 11.8924 54.2964 12.3468C54.2128 12.5648 54.3312 12.8099 54.552 12.8821L55.4114 13.1632C55.6217 13.2323 55.8439 13.1166 55.9188 12.9068C56.1104 12.3674 56.4052 11.9239 56.8028 11.5774C57.2915 11.1518 57.9721 10.9388 58.8462 10.9388C59.7344 10.9388 60.4046 11.1628 60.8563 11.6112C61.3079 12.0592 61.5338 12.6718 61.5338 13.4485V13.9235C61.5338 14.1063 61.3861 14.2554 61.2046 14.2554H57.8688C57.099 14.2554 56.403 14.3783 55.7812 14.6247C55.1595 14.8716 54.6708 15.2373 54.3152 15.7228C53.96 16.2087 53.7822 16.825 53.7822 17.5715C53.7822 18.3034 53.96 18.9237 54.3152 19.4311C54.6708 19.9395 55.1595 20.3276 55.7812 20.5968C56.403 20.8656 57.0917 21 57.8464 21C58.6016 21 59.216 20.899 59.6901 20.6974Z" fill="white" fill-opacity="0.75"/>
<path d="M82.7306 18.9607C82.2638 18.6174 82.0311 18.1397 82.0311 17.5267C82.0311 16.9146 82.2565 16.4551 82.7081 16.1484C83.1598 15.8426 83.7335 15.6894 84.4297 15.6894H88.0279V15.9358C88.0279 17.0563 87.7056 17.9267 87.0615 18.5461C86.4174 19.1664 85.5767 19.4764 84.5408 19.4764C83.8003 19.4764 83.1968 19.3045 82.7306 18.9607ZM86.1843 20.6974C86.6579 20.4954 87.0318 20.2416 87.3056 19.9354C87.5795 19.6295 87.798 19.3342 87.9612 19.0503H88.2277V19.1623C88.2277 19.6259 88.3754 19.9952 88.672 20.2718C88.9678 20.5484 89.3605 20.6864 89.8492 20.6864H90.4544C90.6766 20.6864 90.8572 20.5045 90.8572 20.2796V19.5911C90.8572 19.3667 90.6766 19.1847 90.4544 19.1847H89.76V13.5605C89.76 12.2462 89.3747 11.2268 88.6053 10.5018C87.8355 9.77765 86.7543 9.41514 85.3623 9.41514C84.459 9.41514 83.6855 9.56828 83.0414 9.87456C82.3973 10.1808 81.883 10.584 81.4976 11.0846C81.2 11.4718 80.9641 11.8924 80.7904 12.3468C80.7068 12.5648 80.8252 12.8099 81.046 12.8821L81.9054 13.1632C82.1157 13.2323 82.3379 13.1166 82.4128 12.9068C82.6044 12.3674 82.8992 11.9239 83.297 11.5774C83.7856 11.1518 84.4663 10.9388 85.3404 10.9388C86.2286 10.9388 86.8983 11.1628 87.3504 11.6112C87.8021 12.0592 88.0279 12.6718 88.0279 13.4485V13.9235C88.0279 14.1063 87.8803 14.2554 87.6988 14.2554H84.363C83.5932 14.2554 82.8969 14.3783 82.2752 14.6247C81.6535 14.8716 81.1648 15.2373 80.8092 15.7228C80.4535 16.2087 80.2762 16.825 80.2762 17.5715C80.2762 18.3034 80.4535 18.9237 80.8092 19.4311C81.1648 19.9395 81.6535 20.3276 82.2752 20.5968C82.8969 20.8656 83.5859 21 84.3406 21C85.0958 21 85.7102 20.899 86.1843 20.6974Z" fill="white" fill-opacity="0.75"/>
<path d="M78.027 9.72873H77.0803C76.8572 9.72873 76.6762 9.91113 76.6762 10.1365V20.2782C76.6762 20.5036 76.8572 20.686 77.0803 20.686H78.027C78.2501 20.686 78.4307 20.5036 78.4307 20.2782V10.1365C78.4307 9.91113 78.2501 9.72873 78.027 9.72873Z" fill="white" fill-opacity="0.75"/>
<path d="M74.7822 20.2782V19.5706C74.7822 19.3452 74.6012 19.1628 74.3776 19.1628H67.675V18.8935L74.4229 12.195C74.539 12.0798 74.6044 11.9221 74.6044 11.7575V10.1374C74.6044 9.91205 74.4233 9.72919 74.1998 9.72919H66.48C66.257 9.72919 66.0755 9.91205 66.0755 10.1374V10.867C66.0755 11.0924 66.257 11.2752 66.48 11.2752H72.7612V11.5216L66.0348 18.2202C65.9191 18.3358 65.8537 18.4935 65.8537 18.6576V20.2782C65.8537 20.5036 66.0348 20.6864 66.2583 20.6864H74.3776C74.6012 20.6864 74.7822 20.5036 74.7822 20.2782Z" fill="white" fill-opacity="0.75"/>
</svg>
