<svg width="101" height="38" viewBox="0 0 101 38" fill="none" xmlns="http://www.w3.org/2000/svg">
<mask id="mask0_0_1079" style="mask-type:luminance" maskUnits="userSpaceOnUse" x="10" y="5" width="81" height="28">
<path d="M90.5715 5H10.5715V33H90.5715V5Z" fill="white"/>
</mask>
<g mask="url(#mask0_0_1079)">
<mask id="mask1_0_1079" style="mask-type:luminance" maskUnits="userSpaceOnUse" x="11" y="5" width="80" height="28">
<path d="M90.1059 5H11.0364V33H90.1059V5Z" fill="white"/>
</mask>
<g mask="url(#mask1_0_1079)">
<path d="M90.1062 24.0007L85.7703 23.8697C85.7703 23.8883 85.7665 23.9069 85.7646 23.9255L86.7938 24.0873L86.7862 24.1464L85.1843 24.0655V24.1059L88.8516 24.5412C88.2313 24.7799 87.5906 24.5857 86.9691 24.6723C87.9272 24.7201 88.8853 24.7533 89.8764 24.9959C89.3716 25.0195 88.9208 25.0461 88.4694 25.0575C88.3132 25.0507 88.1576 25.0356 88.0027 25.0122C87.8865 25.0025 87.7602 24.9685 87.6548 25.0017C87.298 25.1157 86.943 25.0501 86.5849 25.0307C85.9627 24.9976 85.3392 24.9831 84.717 24.9668C84.5881 24.9701 84.4605 24.9807 84.3329 24.9983V25.0987L85.7132 25.2306V25.2565C84.0979 25.2565 82.4827 25.2565 80.8726 25.2565C80.3233 25.2565 79.7741 25.2905 79.2249 25.2905C78.2833 25.2905 77.3418 25.2759 76.3989 25.2687C75.4554 25.2614 74.5284 25.2525 73.594 25.2509C71.7479 25.2509 69.9018 25.2444 68.0564 25.2509C65.9906 25.26 63.9251 25.2765 61.8599 25.3002C60.4703 25.3181 59.081 25.3504 57.692 25.3973C55.8556 25.4605 54.02 25.5591 52.1835 25.6198C50.7622 25.6684 49.3392 25.666 47.9187 25.7249C46.4279 25.7873 44.9396 25.8868 43.4504 25.9847C41.4202 26.115 39.3906 26.2405 37.3621 26.395C35.9383 26.5033 34.5194 26.6709 33.0964 26.7889C31.1639 26.9508 29.229 27.0827 27.2956 27.2413C26.3104 27.3223 25.3276 27.4299 24.3447 27.5309C23.517 27.6159 22.6908 27.7163 21.8639 27.798C20.747 27.9081 19.6301 28.0237 18.5117 28.1047C17.4319 28.1856 16.3498 28.2381 15.2676 28.2665C14.6604 28.2754 14.0571 28.1669 13.4909 27.9469C13.3897 27.9037 13.2828 27.8752 13.1736 27.8619C12.4807 27.8165 11.8677 27.4961 11.22 27.2955C11.0585 27.2453 10.9778 26.9314 11.1037 26.8101C11.2564 26.6709 11.3242 26.5026 11.4098 26.3181C11.5108 26.0965 11.5584 25.7461 11.942 25.7258C12.0599 25.7193 12.1714 25.6069 12.2901 25.5405C12.2214 25.2889 12.0478 25.4215 11.8758 25.4313C12.0906 25.3099 12.2513 25.3051 12.4249 25.4063C12.4675 25.4327 12.515 25.4505 12.5645 25.4585C12.614 25.4665 12.6646 25.4645 12.7133 25.4528C12.7621 25.4411 12.808 25.4197 12.8485 25.3901C12.889 25.3604 12.9231 25.323 12.9491 25.2799C12.9993 25.2001 13.0669 25.1326 13.147 25.0827C13.227 25.0328 13.3173 25.0018 13.411 24.9919C13.7463 24.9653 14.0799 24.9193 14.41 24.8543C15.0471 24.7127 15.6779 24.5397 16.3126 24.3835C16.5856 24.3163 16.8618 24.2572 17.1364 24.1957C17.5547 24.1011 17.9706 23.9991 18.3905 23.9158C18.8524 23.8243 19.316 23.7451 19.7804 23.6731C20.6614 23.5299 21.5416 23.3841 22.4252 23.258C22.9905 23.1771 23.5638 23.1374 24.1308 23.0613C24.5491 23.0047 24.9618 22.8995 25.38 22.8502C25.7839 22.7991 26.1941 22.7935 26.5995 22.7499C27.1834 22.6859 27.7648 22.6026 28.3487 22.5354C28.692 22.4957 29.0368 22.4771 29.38 22.4383C29.9736 22.3719 30.5639 22.2853 31.1566 22.2295C31.7494 22.1737 32.3616 22.1543 32.9624 22.1001C34.2545 21.9836 35.5394 21.8412 36.8307 21.7369C37.66 21.6688 38.4934 21.6559 39.3244 21.6057C40.1232 21.5556 40.9202 21.4779 41.719 21.4253C42.0783 21.401 42.4409 21.4115 42.8011 21.3986C43.8994 21.3597 44.9978 21.2934 46.0968 21.282C48.0124 21.2619 49.9287 21.278 51.8444 21.2723C52.9992 21.2723 54.154 21.2407 55.308 21.2449C57.2018 21.2513 59.0955 21.2553 60.9886 21.2967C62.6214 21.3331 64.2527 21.4277 65.8848 21.4827C66.9202 21.5175 67.9571 21.5071 68.9916 21.5547C69.5424 21.5806 70.0875 21.7003 70.6374 21.7538C71.445 21.8347 72.247 21.8881 73.052 21.9537C73.8572 22.0191 74.6675 22.0637 75.4694 22.1519C77.0503 22.325 78.63 22.5209 80.2097 22.7093C80.8167 22.7821 81.4211 22.8567 82.0306 22.9375C82.5881 23.0128 83.1437 23.0994 83.6999 23.1803C84.1557 23.2466 84.637 23.245 85.0592 23.4029C85.4967 23.5646 85.9386 23.3721 86.3513 23.5395C86.6008 23.4004 86.8078 23.6205 87.0465 23.6245C87.2999 23.6245 87.5494 23.7329 87.8046 23.7645C88.3418 23.8316 88.8795 23.8834 89.4199 23.9352C89.6459 23.9562 89.8732 23.9619 90.0999 23.9749L90.1062 24.0007Z" fill="#615F5C"/>
<path d="M60.0269 28.1835V33.0009H59.5949V30.7807H56.5601V33.0009H56.1353V28.1835H56.5601V30.3754H59.5917V28.1835H60.0269Z" fill="white" fill-opacity="0.75"/>
<path d="M64.2166 32.5956V33.0002H61.5742V28.1835H64.1811V28.5879H62.0006V30.3754H63.9526V30.7799H61.999V32.5947L64.2166 32.5956Z" fill="white" fill-opacity="0.75"/>
<path d="M68.6136 31.6813H66.0891L65.5384 33.0009H65.0708L67.1002 28.1835H67.6155L69.6424 33.0009H69.1628L68.6136 31.6813ZM68.4521 31.2905L67.3514 28.6511L66.2579 31.2905H68.4521Z" fill="white" fill-opacity="0.75"/>
<path d="M73.1911 32.5956V33.0002H70.7603V28.1835H71.1851V32.5956H73.1911Z" fill="white" fill-opacity="0.75"/>
<path d="M76.5011 28.5879H75.0376V33.0009H74.6065V28.5879H73.1426V28.1835H76.5011V28.5879Z" fill="white" fill-opacity="0.75"/>
<path d="M81.5398 28.1835V33.0009H81.1099V30.7807H78.0763V33.0009H77.6509V28.1835H78.0763V30.3754H81.1099V28.1835H81.5398Z" fill="white" fill-opacity="0.75"/>
<path d="M22.0689 16.0575L27.3698 23.394H25.8823L20.5522 16.0575H16.8503V23.394H15.6333V5.21191H22.5025C26.2602 5.21191 27.6945 7.90308 27.6945 10.6477C27.6945 13.3922 26.2602 16.0575 22.4209 16.0575H22.0689ZM16.8503 14.9247H22.2611C25.3161 14.9247 26.479 12.8922 26.479 10.6493C26.479 8.40637 25.2887 6.34794 22.5317 6.34794H16.8503V14.9247Z" fill="white" fill-opacity="0.75"/>
<path d="M40.7534 22.2588V23.3915H30.0991V5.21191H40.4296V6.3447H31.3161V13.8923H39.2933V15.0534H31.3161V22.2546L40.7534 22.2588Z" fill="white" fill-opacity="0.75"/>
<path d="M41.5271 18.8022H42.7441C42.9863 20.702 44.7978 22.5242 47.5289 22.5242C50.9637 22.5242 52.5359 20.3331 52.5359 18.5392C52.5359 16.3748 50.6439 15.293 48.5611 14.7913L45.9615 14.2103C42.1755 13.3656 41.662 11.2554 41.662 9.80381C41.662 6.92735 44.4747 5 47.4216 5C50.5041 5 52.9131 6.76876 53.1005 9.64523H51.8835C51.6945 7.5075 49.8007 6.13522 47.3949 6.13522C45.0957 6.13522 42.8781 7.61349 42.8781 9.80381C42.8781 10.8557 43.2303 12.4157 46.232 13.1019L48.8275 13.6828C51.5863 14.3422 53.7489 15.7671 53.7489 18.4567C53.7489 20.8315 51.7477 23.6554 47.5306 23.6554C44.0677 23.6578 41.7701 21.283 41.5271 18.8022Z" fill="white" fill-opacity="0.75"/>
<path d="M66.7823 22.2588V23.3915H56.1279V5.21191H66.4584V6.3447H57.3449V13.8923H65.3222V15.0534H57.3449V22.2546L66.7823 22.2588Z" fill="white" fill-opacity="0.75"/>
<path d="M81.6001 6.34659H75.435V23.3942H74.2179V6.34659H68.0806V5.21381H81.6001V6.34659Z" fill="white" fill-opacity="0.75"/>
</g>
</g>
</svg>
