<svg width="119" height="28" viewBox="0 0 119 28" fill="none" xmlns="http://www.w3.org/2000/svg">
<path fill-rule="evenodd" clip-rule="evenodd" d="M12.1128 20.8206C9.86717 18.5883 9.86721 14.9692 12.1128 12.737L18.212 6.67418C20.1104 4.78717 23.0058 4.49533 25.2125 5.79867C25.8952 6.2018 25.8892 7.12658 25.3277 7.68464C24.7664 8.2427 23.8499 8.19467 23.0879 7.97312C22.1121 7.68942 21.0147 7.93008 20.2451 8.69509L14.1459 14.7579C13.0231 15.874 13.0231 17.6835 14.1458 18.7997C15.2687 19.9158 17.0891 19.9158 18.212 18.7997L30.4103 6.67425C32.656 4.44203 36.2968 4.44202 38.5425 6.67423L44.6417 12.737C46.8873 14.9691 46.8873 18.5883 44.6417 20.8206C42.3961 23.0528 38.7552 23.0528 36.5095 20.8206L34.4765 18.7997L31.9352 21.3258C30.0368 23.2128 27.1414 23.5047 24.9346 22.2013C24.252 21.7982 24.258 20.8734 24.8195 20.3154C25.3808 19.7573 26.2973 19.8053 27.0593 20.0268C28.0351 20.3106 29.1325 20.0699 29.9021 19.3049L32.5161 16.7066C33.5988 15.6303 35.3542 15.6303 36.437 16.7066L38.5426 18.7997C39.6654 19.9158 41.4858 19.9158 42.6086 18.7997C43.7314 17.6835 43.7314 15.874 42.6086 14.7579L36.5094 8.69516C35.3866 7.57905 33.5662 7.57906 32.4433 8.69517L20.245 20.8206C17.9993 23.0529 14.3584 23.0529 12.1128 20.8206Z" fill="white" fill-opacity="0.75"/>
<path d="M69.2941 8.2397C67.8811 8.2397 66.8106 8.74697 66.1041 9.76152C65.4833 8.74697 64.4984 8.2397 63.1925 8.2397C61.8436 8.2397 60.8588 8.7047 60.2165 9.65583V8.53561H57.4547V19.1038H60.2165V13.1644C60.2165 11.6215 61.0086 10.7761 62.229 10.7761C63.3637 10.7761 64.0274 11.5158 64.0274 12.784V19.1038H66.7892V13.1644C66.7892 11.6215 67.5172 10.7761 68.7803 10.7761C69.915 10.7761 70.5787 11.5158 70.5787 12.784V19.1038H73.3405V12.5938C73.3405 9.95174 71.7562 8.2397 69.2941 8.2397Z" fill="white" fill-opacity="0.75"/>
<path d="M83.6076 9.78265C82.7727 8.74697 81.6166 8.2397 80.1179 8.2397C78.6835 8.2397 77.4632 8.78925 76.4355 9.8672C75.4293 10.9451 74.9154 12.2556 74.9154 13.8197C74.9154 15.3838 75.4293 16.7154 76.4355 17.7934C77.4632 18.8713 78.6835 19.3997 80.1179 19.3997C81.6166 19.3997 82.7727 18.8924 83.6076 17.8567V19.1038H86.3697V8.53561H83.6076V9.78265ZM78.5122 15.9756C77.9556 15.4049 77.6772 14.6863 77.6772 13.8197C77.6772 12.9531 77.9556 12.2345 78.5122 11.6849C79.0689 11.1142 79.7754 10.8395 80.6317 10.8395C81.4881 10.8395 82.1946 11.1142 82.7513 11.6849C83.3293 12.2345 83.6076 12.9531 83.6076 13.8197C83.6076 14.6863 83.3293 15.4049 82.7513 15.9756C82.1946 16.5252 81.4881 16.7999 80.6317 16.7999C79.7754 16.7999 79.0689 16.5252 78.5122 15.9756Z" fill="white" fill-opacity="0.75"/>
<path d="M96.56 10.3533V8.53557H88.5315V11.0931H92.8345L88.3168 17.286V19.1037H96.774V16.5462H92.0206L96.56 10.3533Z" fill="white" fill-opacity="0.75"/>
<path d="M108.322 14.9399C108.386 14.5384 108.429 14.179 108.429 13.8197C108.429 12.2345 107.915 10.924 106.888 9.84606C105.881 8.7681 104.575 8.2397 103.012 8.2397C101.364 8.2397 99.9939 8.7681 98.9443 9.84606C97.8955 10.9029 97.3598 12.2345 97.3598 13.8197C97.3598 15.4261 97.8955 16.7577 98.966 17.8144C100.036 18.8713 101.45 19.3997 103.226 19.3997C105.281 19.3997 106.845 18.6388 107.894 17.1381L105.667 15.8699C105.132 16.5674 104.319 16.9267 103.269 16.9267C101.621 16.9267 100.615 16.2715 100.25 14.9399H108.322ZM100.208 12.8263C100.529 11.4736 101.535 10.6915 103.012 10.6915C104.275 10.6915 105.346 11.389 105.667 12.8263H100.208Z" fill="white" fill-opacity="0.75"/>
</svg>
