<svg width="140" height="32" viewBox="0 0 140 32" fill="none" xmlns="http://www.w3.org/2000/svg">
<mask id="mask0_0_1102" style="mask-type:luminance" maskUnits="userSpaceOnUse" x="10" y="5" width="120" height="22">
<path d="M130 5H10V27H130V5Z" fill="white"/>
</mask>
<g mask="url(#mask0_0_1102)">
<path d="M10 23.0767H21.337L10 26.9586V23.0767Z" fill="#979592"/>
<path d="M10 18.9199L21.337 23.0765H10V18.9199Z" fill="#615F5C"/>
<path d="M10 9.59637V18.9199L21.3367 23.0764L10 9.59637Z" fill="#3C3A37"/>
<path d="M32.6734 23.0767H21.3364L32.6734 26.9586V23.0767Z" fill="#979592"/>
<path d="M32.6734 18.9199L21.3364 23.0765H32.6734V18.9199Z" fill="#615F5C"/>
<path d="M21.3367 23.0767L10 26.9585H21.3367H32.6731L21.3367 23.0767Z" fill="#CAC7C3"/>
<path d="M32.673 9.59637V18.9199L21.3364 23.0764L32.673 9.59637Z" fill="#3C3A37"/>
<path d="M21.3366 7.37524L12.8853 13.0296L21.3366 23.0768L29.7849 13.0296L21.3366 7.37524Z" fill="#615F5C"/>
<path d="M10 5V9.59675L12.8852 13.0295L21.3367 7.37518L29.7848 13.0295L32.6731 9.59675V5H10Z" fill="#1D1B18"/>
<path fill-rule="evenodd" clip-rule="evenodd" d="M46.1558 11.1544C46.1366 11.1806 46.1178 11.207 46.099 11.2336V9.85185H42.9751V23.1545H46.099V15.7549C46.099 14.6094 46.383 13.7688 46.951 13.2329C47.519 12.6971 48.2384 12.4292 49.1093 12.4292C49.507 12.4292 49.8572 12.4847 50.1601 12.5955C50.463 12.7064 50.7376 12.8911 50.9837 13.1498L53.0284 11.099C52.555 10.5632 52.0438 10.1752 51.4949 9.93499C50.9458 9.69479 50.3304 9.57471 49.6489 9.57471C48.0964 9.57471 46.9321 10.1013 46.1558 11.1544ZM56.5444 22.5171C57.6235 23.1268 58.8258 23.4317 60.151 23.4317C61.4953 23.4317 62.707 23.1268 63.786 22.5171C64.8652 21.889 65.7172 21.0482 66.342 19.9952C66.9856 18.942 67.3075 17.7689 67.3075 16.4755C67.3075 15.1822 66.9856 14.0182 66.342 12.9835C65.7172 11.9304 64.8652 11.099 63.786 10.4893C62.707 9.87956 61.4953 9.57471 60.151 9.57471C58.8258 9.57471 57.6235 9.8888 56.5444 10.517C55.4652 11.1267 54.6037 11.9489 53.9601 12.9835C53.3353 14.0182 53.0228 15.1822 53.0228 16.4755C53.0228 17.7689 53.3353 18.942 53.9601 19.9952C54.6037 21.0482 55.4652 21.889 56.5444 22.5171ZM62.1958 19.9952C61.6089 20.3277 60.9273 20.494 60.151 20.494C59.3937 20.494 58.7122 20.3277 58.1062 19.9952C57.5194 19.644 57.0555 19.1638 56.7147 18.5539C56.3929 17.9443 56.232 17.2515 56.232 16.4755C56.232 15.6995 56.3929 15.0159 56.7147 14.4246C57.0555 13.8334 57.5194 13.3715 58.1062 13.0389C58.7122 12.6879 59.3937 12.5124 60.151 12.5124C60.9273 12.5124 61.6089 12.6879 62.1958 13.0389C62.7826 13.3715 63.2464 13.8334 63.5873 14.4246C63.928 15.0159 64.0985 15.6995 64.0985 16.4755C64.0985 17.2515 63.928 17.9443 63.5873 18.5539C63.2655 19.1638 62.8016 19.644 62.1958 19.9952ZM76.1816 23.4317C74.8373 23.4317 73.6162 23.1268 72.5181 22.5171C71.4389 21.9074 70.587 21.076 69.9622 20.0229C69.3375 18.9696 69.025 17.7965 69.025 16.5032C69.025 15.1914 69.3375 14.0182 69.9622 12.9835C70.587 11.9304 71.4389 11.099 72.5181 10.4893C73.6162 9.87956 74.8373 9.57471 76.1816 9.57471C77.2419 9.57471 78.2263 9.77794 79.135 10.1844C80.0627 10.5724 80.8485 11.1359 81.4922 11.875L79.4475 13.8981C79.0499 13.4362 78.5671 13.0944 77.9991 12.8727C77.4501 12.6325 76.8442 12.5124 76.1816 12.5124C75.4053 12.5124 74.7143 12.6879 74.1085 13.0389C73.5215 13.3715 73.0576 13.8334 72.7168 14.4246C72.3951 15.0159 72.2342 15.7087 72.2342 16.5032C72.2342 17.2792 72.3951 17.972 72.7168 18.5818C73.0576 19.1729 73.5215 19.644 74.1085 19.9952C74.7143 20.3277 75.4053 20.494 76.1816 20.494C76.8442 20.494 77.4501 20.3831 77.9991 20.1614C78.5671 19.9212 79.0499 19.5702 79.4475 19.1083L81.4922 21.1315C80.8485 21.8704 80.0627 22.4432 79.135 22.8496C78.2263 23.2376 77.2419 23.4317 76.1816 23.4317ZM89.6292 12.6232L82.864 21.4917V23.1545H93.9681V20.3831H87.3731L94.1384 11.5147V9.85185H83.3752V12.6232H89.6292ZM102.464 23.4317C101.101 23.4317 99.8707 23.136 98.7727 22.5448C97.6927 21.9351 96.8313 21.1036 96.1884 20.0505C95.5633 18.9975 95.2508 17.815 95.2508 16.5032C95.2508 15.1914 95.5633 14.0182 96.1884 12.9835C96.8124 11.9304 97.655 11.099 98.7153 10.4893C99.7944 9.87956 100.988 9.57471 102.294 9.57471C103.562 9.57471 104.679 9.86108 105.644 10.4338C106.629 11.0066 107.396 11.7918 107.945 12.7895C108.513 13.7872 108.797 14.9235 108.797 16.1983C108.797 16.4201 108.778 16.6509 108.74 16.8912C108.722 17.1128 108.684 17.3623 108.626 17.6394H98.4573C98.5421 17.986 98.6664 18.3094 98.8293 18.6094C99.1696 19.2376 99.653 19.7273 100.278 20.0783C100.902 20.4108 101.622 20.5771 102.436 20.5771C103.136 20.5771 103.78 20.4571 104.367 20.2168C104.972 19.9767 105.484 19.6257 105.901 19.1638L107.888 21.1315C107.226 21.889 106.421 22.4617 105.475 22.8496C104.528 23.2376 103.525 23.4317 102.464 23.4317ZM98.801 14.2861C98.6578 14.5487 98.5464 14.8351 98.4667 15.1452H105.722C105.64 14.7536 105.52 14.4025 105.361 14.0921C105.077 13.5378 104.67 13.1128 104.139 12.8172C103.628 12.5216 102.994 12.3738 102.237 12.3738C101.442 12.3738 100.751 12.5401 100.164 12.8727C99.5767 13.2052 99.1224 13.6764 98.801 14.2861ZM119.054 13.2884C119.642 13.8612 119.935 14.5909 119.935 15.4777V23.1545H123.058V14.8127C123.058 13.9443 122.832 13.1128 122.378 12.3184C121.922 11.5054 121.298 10.8495 120.503 10.3507C119.708 9.83338 118.799 9.57471 117.776 9.57471C116.773 9.57471 115.864 9.80566 115.05 10.2676C114.533 10.5558 114.088 10.9182 113.715 11.3549V9.85185H110.592V23.1545H113.715V15.4777C113.715 14.8865 113.848 14.36 114.113 13.8981C114.378 13.4362 114.747 13.0759 115.22 12.8172C115.694 12.5586 116.234 12.4292 116.84 12.4292C117.748 12.4292 118.486 12.7156 119.054 13.2884Z" fill="white" fill-opacity="0.75"/>
<path d="M125.912 10.8975V8.18478H127.327C127.442 8.18478 127.565 8.21663 127.699 8.28034C127.832 8.3416 127.946 8.43717 128.04 8.56705C128.135 8.69447 128.183 8.85621 128.183 9.05225C128.183 9.25073 128.134 9.41982 128.035 9.5595C127.938 9.69672 127.818 9.80088 127.676 9.87195C127.537 9.94301 127.406 9.97854 127.283 9.97854H126.261V9.53745H127.093C127.176 9.53745 127.266 9.49702 127.363 9.41615C127.459 9.33528 127.509 9.21398 127.509 9.05225C127.509 8.88561 127.459 8.77289 127.363 8.71408C127.266 8.65527 127.182 8.62586 127.109 8.62586H126.526V10.8975H125.912ZM127.6 9.61831L128.297 10.8975H127.623L126.942 9.61831H127.6ZM126.972 12.5148C126.553 12.5148 126.161 12.4388 125.794 12.2869C125.429 12.135 125.107 11.9242 124.83 11.6547C124.552 11.3851 124.335 11.0727 124.178 10.7174C124.022 10.362 123.944 9.98098 123.944 9.5742C123.944 9.16742 124.022 8.78637 124.178 8.43104C124.335 8.07573 124.552 7.76329 124.83 7.49373C125.107 7.22418 125.429 7.01344 125.794 6.86151C126.161 6.70957 126.553 6.63361 126.972 6.63361C127.392 6.63361 127.783 6.70957 128.149 6.86151C128.515 7.01344 128.837 7.22418 129.114 7.49373C129.392 7.76329 129.608 8.07573 129.766 8.43104C129.921 8.78637 130 9.16742 130 9.5742C130 9.98098 129.921 10.362 129.766 10.7174C129.608 11.0727 129.392 11.3851 129.114 11.6547C128.837 11.9242 128.515 12.135 128.149 12.2869C127.783 12.4388 127.392 12.5148 126.972 12.5148ZM126.972 11.8091C127.396 11.8091 127.782 11.7086 128.131 11.5076C128.478 11.3067 128.756 11.0372 128.963 10.699C129.17 10.3608 129.273 9.98589 129.273 9.5742C129.273 9.16252 129.17 8.78759 128.963 8.44943C128.756 8.11126 128.478 7.8417 128.131 7.64077C127.782 7.43982 127.396 7.33935 126.972 7.33935C126.548 7.33935 126.163 7.43982 125.814 7.64077C125.466 7.8417 125.188 8.11126 124.981 8.44943C124.774 8.78759 124.67 9.16252 124.67 9.5742C124.67 9.98589 124.774 10.3608 124.981 10.699C125.188 11.0372 125.466 11.3067 125.814 11.5076C126.163 11.7086 126.548 11.8091 126.972 11.8091Z" fill="#1B1D1E"/>
</g>
</svg>
