<svg width="133" height="22" viewBox="0 0 133 22" fill="none" xmlns="http://www.w3.org/2000/svg">
<path d="M11.2246 16.3281V7.79358L17.1591 16.3281H18.2258V6.07523H17.1591V14.6097L11.2396 6.07523H10.1429V16.3281H11.2246Z" fill="white" fill-opacity="0.75"/>
<path d="M27.1482 16.3281V15.383H21.7847V11.9289H24.0468V10.4972H21.7847V7.02033H27.1332V6.07523H20.703V16.3281H27.1482Z" fill="white" fill-opacity="0.75"/>
<path d="M30.1922 11.216L26.4513 16.3281H27.7133L30.8533 12.0035C31.1238 12.4618 31.5594 13.0919 31.92 13.5787L33.9633 16.3281H35.2554L31.4993 11.1873L35.1952 6.07523H33.9482L30.8233 10.457C30.5679 9.9988 30.2223 9.45465 29.7115 8.76733L27.7133 6.07523H26.4363L30.1922 11.216Z" fill="white" fill-opacity="0.75"/>
<path d="M35.455 7.02033H38.7604V16.3281H39.842V7.02033H43.1623V6.07523H35.455V7.02033Z" fill="white" fill-opacity="0.75"/>
<path d="M53.225 16.4857C55.4185 16.4857 57.2515 15.2542 57.7626 13.4213H56.9662C56.4703 14.8819 55.013 15.827 53.2402 15.827C50.7314 15.827 49.0184 13.9797 49.0184 11.2447C49.0184 8.50964 50.7314 6.6481 53.2402 6.6481C55.013 6.6481 56.4253 7.63615 56.9059 9.2113H57.7022C57.2366 7.27816 55.4635 5.9894 53.2852 5.9894C50.3256 5.9894 48.282 8.13734 48.282 11.2447C48.282 14.3377 50.3102 16.4857 53.225 16.4857Z" fill="white" fill-opacity="0.75"/>
<path d="M68.9678 11.2447C68.9678 8.16597 66.8796 5.9894 63.9199 5.9894C60.975 5.9894 58.8869 8.16597 58.8869 11.2447C58.8869 14.3234 60.9601 16.5 63.9199 16.5C66.8796 16.5 68.9678 14.3234 68.9678 11.2447ZM68.2316 11.2447C68.2316 13.9511 66.459 15.8413 63.9199 15.8413C61.3957 15.8413 59.6231 13.9511 59.6231 11.2447C59.6231 8.53828 61.3957 6.6481 63.9199 6.6481C66.459 6.6481 68.2316 8.53828 68.2316 11.2447Z" fill="white" fill-opacity="0.75"/>
<path d="M71.563 16.3282V7.29252L77.8279 16.3282H78.549V6.16127H77.8279V15.1683L71.5781 6.16127H70.8419V16.3282H71.563Z" fill="white" fill-opacity="0.75"/>
<path d="M85.3755 16.4857C87.569 16.4857 89.402 15.2542 89.9126 13.4213H89.1162C88.6205 14.8819 87.1632 15.827 85.3904 15.827C82.8814 15.827 81.1687 13.9797 81.1687 11.2447C81.1687 8.50964 82.8814 6.6481 85.3904 6.6481C87.1632 6.6481 88.5756 7.63615 89.0561 9.2113H89.8524C89.3868 7.27816 87.614 5.9894 85.4354 5.9894C82.4756 5.9894 80.4324 8.13734 80.4324 11.2447C80.4324 14.3377 82.4607 16.4857 85.3755 16.4857Z" fill="white" fill-opacity="0.75"/>
<path d="M97.9922 16.3282V15.6981H92.4335V11.5454H97.4817V10.9154H92.4335V6.79133H97.9771V6.16127H91.7122V16.3282H97.9922Z" fill="white" fill-opacity="0.75"/>
<path d="M104.083 12.5048C106.096 12.5048 107.358 11.1015 107.358 9.31157C107.358 7.42139 106.111 6.16127 104.083 6.16127H100.101V16.3282H100.823V12.5048H104.083ZM104.053 6.79133C105.615 6.79133 106.622 7.75075 106.622 9.28296C106.622 10.8008 105.63 11.8748 103.963 11.8748H100.823V6.79133H104.053Z" fill="white" fill-opacity="0.75"/>
<path d="M107.801 6.79133H111.152V16.3282H111.873V6.79133H115.223V6.16127H107.801V6.79133Z" fill="white" fill-opacity="0.75"/>
<path d="M119.792 9.98112C121.134 9.98112 122.143 9.01933 122.143 7.74056C122.143 6.46181 121.134 5.5 119.792 5.5C118.45 5.5 117.418 6.47273 117.418 7.74056C117.418 9.0084 118.439 9.98112 119.792 9.98112ZM119.792 9.60954C118.668 9.60954 117.843 8.81166 117.843 7.74056C117.843 6.66947 118.668 5.87161 119.792 5.87161C120.905 5.87161 121.73 6.66947 121.73 7.74056C121.73 8.81166 120.905 9.60954 119.792 9.60954ZM119.288 8.96467V8.0466H119.919L120.423 8.96467H120.893L120.308 7.9373C120.664 7.81707 120.859 7.54383 120.859 7.21594C120.859 6.73504 120.469 6.45088 119.895 6.45088H118.863V8.96467H119.288ZM120.4 7.23781C120.4 7.51104 120.205 7.66406 119.884 7.66406H119.288V6.83341H119.884C120.205 6.83341 120.4 6.96456 120.4 7.23781Z" fill="white" fill-opacity="0.75"/>
</svg>
