<svg width="23" height="32" viewBox="0 0 23 32" fill="none" xmlns="http://www.w3.org/2000/svg">
<g clip-path="url(#clip0_676_61916)">
<path d="M11.486 31.9192L2.12594 29.3555L0.0400391 6.27295H22.9601L20.872 29.352L11.486 31.9192Z" fill="#264DE4"/>
<path d="M19.0843 27.8823L20.8686 8.16016H11.5V29.9568L19.0843 27.8823Z" fill="#2965F1"/>
<path d="M4.82147 16.7212L5.0786 19.5521H11.4996V16.7212H4.82147ZM4.30469 10.9912L4.5655 13.8222H11.4996V10.9912H4.30469ZM11.4996 24.0735L11.4871 24.0768L8.2915 23.2255L8.0872 20.9677H5.20681L5.60877 25.4128L11.4864 27.0225L11.4996 27.019V24.0735Z" fill="#EBEBEB"/>
<path d="M5.43457 0H8.90973V1.43388H6.88788V2.86777H8.90991V4.30156H5.43457V0ZM9.60485 0H13.0801V1.24685H11.0582V1.4962H13.0801V4.36397H9.60494V3.05463H11.6269V2.80527H9.60476L9.60485 0ZM13.7752 0H17.2505V1.24685H15.2285V1.4962H17.2505V4.36397H13.7752V3.05463H15.7971V2.80527H13.7753L13.7752 0Z" fill="black"/>
<path d="M18.1601 16.7212L18.678 10.9912H11.4903V13.8222H15.5335L15.2724 16.7212H11.4903V19.5521H15.0236L14.6905 23.2237L11.4902 24.0759V27.0212L17.3726 25.4128L17.4157 24.9344L18.0901 17.4814L18.1601 16.7212Z" fill="white"/>
</g>
<defs>
<clipPath id="clip0_676_61916">
<rect width="23" height="32" fill="white"/>
</clipPath>
</defs>
</svg>
