<svg width="28" height="32" viewBox="0 0 28 32" fill="none" xmlns="http://www.w3.org/2000/svg">
<path d="M26.6 2H1.4C0.625 2 0 2.625 0 3.4V28.6C0 29.375 0.625 30 1.4 30H26.6C27.375 30 28 29.375 28 28.6V3.4C28 2.625 27.375 2 26.6 2ZM10.2688 22.2188H7.78125V9.78125H10.2688V22.2188ZM20.225 22.2188H12.7563V19.7313H20.225V22.2188ZM20.225 17.2437H12.7563V14.7563H20.225V17.2437ZM20.225 12.2625H12.7563V9.775H20.225V12.2625Z" fill="#D63362"/>
<line x1="9" y1="10" x2="9" y2="22" stroke="white" stroke-width="2"/>
<line x1="13" y1="11" x2="20" y2="11" stroke="white" stroke-width="2"/>
<line x1="13" y1="16" x2="20" y2="16" stroke="white" stroke-width="2"/>
<line x1="13" y1="21" x2="20" y2="21" stroke="white" stroke-width="2"/>
</svg>
