<svg width="32" height="32" viewBox="0 0 32 32" fill="none" xmlns="http://www.w3.org/2000/svg">
<g clip-path="url(#clip0_676_61878)">
<path d="M24.5 0H7.5C3.35786 0 0 3.35786 0 7.5V24.5C0 28.6421 3.35786 32 7.5 32H24.5C28.6421 32 32 28.6421 32 24.5V7.5C32 3.35786 28.6421 0 24.5 0Z" fill="#F03C2E"/>
<mask id="mask0_676_61878" style="mask-type:luminance" maskUnits="userSpaceOnUse" x="3" y="3" width="26" height="26">
<path d="M3.5 3.5H28.5V28.5H3.5V3.5Z" fill="white"/>
</mask>
<g mask="url(#mask0_676_61878)">
<path d="M28.028 14.8867L17.1131 3.97181C16.8881 3.74653 16.6012 3.59309 16.2889 3.53094C15.9766 3.46879 15.6529 3.50072 15.3587 3.62269C15.1635 3.70372 14.9861 3.82234 14.8366 3.97181L12.571 6.23744L15.446 9.11244C16.1147 8.87806 16.8803 9.03819 17.4131 9.57106C17.6667 9.82513 17.8438 10.1454 17.9241 10.4954C18.0043 10.8453 17.9845 11.2107 17.867 11.5499L20.6381 14.3211C21.3085 14.0898 22.0818 14.2389 22.617 14.7757C22.8851 15.0436 23.0676 15.3851 23.1415 15.7568C23.2154 16.1285 23.1773 16.5139 23.0321 16.8639C22.8374 17.3333 22.4644 17.7062 21.9949 17.9006C21.5254 18.0949 20.998 18.095 20.5285 17.9006C20.296 17.8042 20.0847 17.6631 19.9068 17.4851C19.3443 16.9226 19.2053 16.0944 19.4897 15.4014L16.9053 12.8171V19.6179C17.093 19.7107 17.2644 19.8331 17.4131 19.9804C17.7724 20.3397 17.9742 20.827 17.9742 21.3351C17.9742 21.8432 17.7724 22.3305 17.4131 22.6898C17.0538 23.0491 16.5665 23.2509 16.0584 23.2509C15.5503 23.2509 15.063 23.0491 14.7037 22.6898C14.4356 22.422 14.253 22.0806 14.1789 21.7089C14.1049 21.3372 14.1429 20.9519 14.288 20.6018C14.3843 20.3694 14.5256 20.1582 14.7037 19.9804C14.8888 19.7961 15.0943 19.6562 15.3311 19.5624V12.6983C15.0962 12.6023 14.8828 12.4602 14.7037 12.2804C14.4347 12.0117 14.2519 11.669 14.1784 11.296C14.1049 10.9229 14.1442 10.5364 14.2912 10.1858L11.4553 7.35169L3.97097 14.8282C3.74566 15.0533 3.5922 15.3403 3.53001 15.6527C3.46782 15.9651 3.49969 16.2889 3.6216 16.5832C3.70267 16.7785 3.82138 16.956 3.97097 17.1056L14.8866 28.0196C15.0361 28.169 15.2135 28.2877 15.4087 28.3687C15.8033 28.5318 16.2464 28.5318 16.641 28.3687C16.8362 28.2877 17.0136 28.169 17.1631 28.0196L28.028 17.1719C28.1776 17.0225 28.2963 16.845 28.3772 16.6496C28.4582 16.4542 28.4999 16.2448 28.5 16.0333C28.5 15.8218 28.4583 15.6124 28.3773 15.417C28.2963 15.2216 28.1776 15.0441 28.028 14.8946" fill="white"/>
</g>
</g>
<defs>
<clipPath id="clip0_676_61878">
<rect width="32" height="32" fill="white"/>
</clipPath>
</defs>
</svg>
