<svg width="32" height="32" viewBox="0 0 32 32" fill="none" xmlns="http://www.w3.org/2000/svg">
<g clip-path="url(#clip0_676_61896)">
<path d="M24.5 0H7.5C3.35786 0 0 3.35786 0 7.5V24.5C0 28.6421 3.35786 32 7.5 32H24.5C28.6421 32 32 28.6421 32 24.5V7.5C32 3.35786 28.6421 0 24.5 0Z" fill="#D34A47"/>
<path d="M19.3039 28.921L19.5676 24.5245L20.2962 23.2809C20.2962 23.2809 18.638 23.9591 15.8621 23.9591C13.086 23.9591 11.453 23.2934 11.453 23.2934L12.2695 24.65L12.5584 28.921C12.5584 29.3789 14.0684 29.75 15.9311 29.75C17.7939 29.75 19.3039 29.3789 19.3039 28.921ZM18.4715 8.39014L19.0254 6.20114L22.0921 2.97414L21.2839 2.28564L18.037 5.72314L17.394 8.33852C16.91 8.32232 16.4259 8.31428 15.9416 8.31439C12.5221 8.31439 9.75 8.70402 9.75 9.18464C9.75 9.66539 12.5221 10.055 15.9416 10.055C19.3611 10.055 22.1332 9.66539 22.1332 9.18464C22.1332 8.83077 20.6298 8.52614 18.4715 8.39014Z" fill="white"/>
<path d="M18.1491 9.61593C18.1491 9.61593 18.0292 9.64293 17.6763 9.64443C17.3235 9.6458 17.073 9.64205 16.9731 9.55118C16.9462 9.5268 16.9316 9.4783 16.9317 9.44543C16.932 9.38293 16.9763 9.34618 17.0328 9.32318L17.0862 9.40693C17.0631 9.41493 17.0497 9.42443 17.0497 9.43455C17.0495 9.48205 17.4106 9.51455 17.6867 9.51105C17.9628 9.50755 18.2966 9.4848 18.2968 9.43805C18.2968 9.42393 18.2717 9.41055 18.2277 9.40018L18.281 9.31693C18.3525 9.33905 18.415 9.38193 18.4148 9.4563C18.4142 9.58255 18.2535 9.6018 18.1491 9.61593ZM22.0858 2.98043C22.163 2.89143 22.046 2.66355 21.8245 2.47168C21.603 2.27993 21.3608 2.19668 21.2836 2.28568C21.2063 2.37468 21.3235 2.60255 21.5451 2.79443C21.7665 2.98618 22.0087 3.06955 22.0858 2.98043ZM19.1561 18.1822C19.0833 17.4828 20.6856 16.4701 20.2745 16.4377C19.3892 16.4882 18.9486 17.4751 18.5032 18.5086C18.3401 18.8873 17.7816 20.5024 17.4153 20.3037C17.0491 20.1049 17.8901 18.7767 18.1257 17.9879C17.8537 18.1873 16.8563 18.9623 16.5993 18.2366C16.1861 18.5876 15.3031 18.7777 15.4027 17.8558C15.1828 18.2452 14.6895 18.7888 14.0972 18.5629C13.3193 18.2663 14.5478 15.7887 14.8533 15.9137C15.1588 16.0387 14.7917 16.6031 14.6955 16.8222C14.484 17.3046 14.2397 17.9109 14.403 18.0351C14.6825 18.2477 15.4433 17.2306 15.4603 17.2082C15.6026 17.0202 16.008 15.7902 16.3348 15.9314C16.6616 16.0727 15.5197 17.6967 15.9467 18.0189C16.0327 18.084 16.3851 17.9788 16.5993 17.7469C16.738 17.5971 16.6903 17.2648 17.1525 16.1625C17.6146 15.0603 18.0267 13.6877 18.3436 13.7923C18.6605 13.8969 18.3993 14.6013 18.2856 14.8639C17.752 16.0966 16.8292 18.133 17.2645 17.9788C17.6997 17.8245 17.9262 17.8157 18.3523 17.3171C18.7785 16.8183 18.7588 15.9969 19.0428 16.0144C19.3268 16.0319 19.2793 16.2953 19.2103 16.4958C19.49 16.1759 20.5355 15.5022 20.788 16.1694C21.087 16.9594 19.292 18.1006 19.7396 18.0423C20.1758 17.9856 20.8827 17.5379 21.1846 17.1308L22.0153 9.66205C22.0153 9.66205 21.1793 10.3538 15.861 10.3538C10.5425 10.3538 9.79297 9.6763 9.79297 9.6763L10.5002 16.4937C10.8757 15.4267 11.7672 13.2684 13.1725 13.3408C13.8116 13.3738 14.665 14.6047 13.934 14.6464C13.6246 14.6639 13.5932 14.0321 13.2268 13.9392C12.9625 13.8722 12.5943 14.0872 12.3565 14.3201C11.8821 14.7843 10.8617 16.6162 10.9965 17.5294C11.1683 18.6938 12.6032 17.1248 12.8461 16.659C13.0171 16.3309 13.1326 15.3588 13.5065 15.4608C13.8806 15.5628 13.4738 16.5661 13.2028 17.4531C12.8982 18.4491 12.7382 19.4997 12.3566 19.3789C11.9747 19.2581 12.5966 17.9723 12.5741 17.7469C12.2153 18.0781 11.5542 18.9161 10.7086 18.5013L11.1478 22.7348C11.1478 22.7348 12.3153 23.6572 15.8321 23.6572C19.349 23.6572 20.5596 22.7492 20.5596 22.7492L21.1051 17.8458C20.6588 18.2803 19.2465 19.0519 19.1561 18.1822Z" fill="white"/>
</g>
<defs>
<clipPath id="clip0_676_61896">
<rect width="32" height="32" fill="white"/>
</clipPath>
</defs>
</svg>
