<svg width="23" height="32" viewBox="0 0 23 32" fill="none" xmlns="http://www.w3.org/2000/svg">
<g clip-path="url(#clip0_676_61924)">
<path d="M22.9601 6.27295L20.872 29.352L11.486 31.9192L2.12594 29.3555L0.0400391 6.27295H22.9601Z" fill="#E44D26"/>
<path d="M11.5 29.9568L19.0843 27.8823L20.8686 8.16016H11.5V29.9568Z" fill="#F16529"/>
<path d="M7.4405 13.8222H11.4996V10.9912H4.30469L4.37333 11.7507L5.0786 19.5521H11.4996V16.7212H7.70276L7.4405 13.8222ZM8.0872 20.9677H5.20681L5.60877 25.4128L11.4864 27.0225L11.4996 27.019V24.0735L11.4871 24.0768L8.2915 23.2255L8.0872 20.9677Z" fill="#EBEBEB"/>
<path d="M2.17285 0H3.63102V1.42139H4.96493V0H6.42318V4.30431H4.96502V2.86298H3.63111V4.30431H2.17294L2.17285 0ZM8.34063 1.42741H7.05712V0H11.0834V1.42741H9.79906V4.30431H8.34089V1.42741H8.34063ZM11.7223 0H13.2428L14.178 1.51242L15.1124 0H16.6335V4.30431H15.1812V2.17086L14.178 3.70127H14.1529L13.1491 2.17086V4.30431H11.7223V0ZM17.3591 0H18.8178V2.8816H20.8683V4.30431H17.3591L17.3591 0Z" fill="black"/>
<path d="M11.4903 19.5521H15.0236L14.6905 23.2237L11.4902 24.0759V27.0212L17.3726 25.4128L17.4157 24.9344L18.0901 17.4814L18.1601 16.7212H11.4903V19.5521ZM11.4903 13.8153V13.8222H18.4211L18.4786 13.1859L18.6095 11.7507L18.678 10.9912H11.4903V13.8153Z" fill="white"/>
</g>
<defs>
<clipPath id="clip0_676_61924">
<rect width="23" height="32" fill="white"/>
</clipPath>
</defs>
</svg>
