<svg width="23" height="32" viewBox="0 0 23 32" fill="none" xmlns="http://www.w3.org/2000/svg">
<g clip-path="url(#clip0_676_61942)">
<path d="M0.0771484 6.25317L0.0807664 6.53914C0.0827601 6.69643 0.543965 11.904 1.10568 18.1114L2.12698 29.3977L6.71721 30.6675C9.24183 31.3659 11.3595 31.9408 11.4232 31.9452C11.4869 31.9496 13.6326 31.3805 16.1914 30.6804C20.294 29.5581 20.8478 29.3891 20.8772 29.2501C20.9181 29.0566 22.9272 6.66433 22.9251 6.42476L22.9236 6.25317H11.5003H0.0771484Z" fill="white"/>
<path d="M6.75362 30.7434L2.12257 29.4644L2.06205 29.126C2.00825 28.8252 0 6.66399 0 6.37118C0 6.26521 1.17256 6.25317 11.5004 6.25317C22.4021 6.25317 23.0008 6.26012 23 6.38663C22.9964 6.93302 20.9177 29.3876 20.8666 29.4323C20.802 29.4888 11.8386 31.956 11.539 31.9998C11.4541 32.0122 9.30069 31.4468 6.75362 30.7434ZM14.4206 26.2243C15.9771 25.8002 17.2731 25.4313 17.3006 25.4045C17.328 25.3778 17.5102 23.5543 17.7053 21.3524C17.9005 19.1504 18.0799 17.2029 18.104 17.0247L18.1477 16.7006H14.7855H11.4233V18.1114V19.5222H13.2386H15.0539L15.0177 19.6937C14.9979 19.7881 14.9207 20.5991 14.8462 21.4959C14.7672 22.4462 14.6737 23.1631 14.6219 23.2143C14.573 23.2626 13.8333 23.4863 12.9781 23.7115L11.4233 24.121V25.5582C11.4233 26.5392 11.4498 26.9955 11.5069 26.9955C11.5529 26.9955 12.864 26.6485 14.4206 26.2243ZM18.1035 14.9276C18.0525 14.5539 17.598 9.54204 17.598 9.35307C17.598 9.23828 17.3308 9.22726 14.5492 9.22726H11.5004V10.7025V12.1777L12.8705 12.2299C13.624 12.2586 14.417 12.3023 14.6327 12.327L15.0249 12.3718L15.1201 13.5258C15.1725 14.1605 15.2349 14.8084 15.2587 14.9657L15.3022 15.2517H16.725H18.1477L18.1035 14.9276Z" fill="#EAEBEC"/>
<path d="M6.71722 30.6674L2.127 29.3976L1.1057 18.1114C0.543982 11.9039 0.0827659 6.69643 0.0807722 6.53914L0.0771484 6.25317H11.5004H22.9237L22.9251 6.42476C22.9272 6.66433 20.9181 29.0566 20.8772 29.2501C20.8478 29.3891 20.294 29.5581 16.1914 30.6805C13.6326 31.3805 11.4869 31.9496 11.4232 31.9452C11.3595 31.9408 9.24184 31.3658 6.71722 30.6674ZM14.424 26.2782C16.0108 25.8424 17.3316 25.4498 17.3591 25.4058C17.3866 25.3618 17.5762 23.4452 17.7803 21.1466C17.9845 18.8481 18.1682 16.9074 18.1887 16.834C18.2238 16.708 17.9538 16.7006 13.2963 16.7006H8.36684L8.57672 14.5082C8.69216 13.3023 8.78939 12.3126 8.79278 12.3088C8.79618 12.305 9.51967 12.2822 10.4005 12.2581C11.8449 12.2187 14.8235 12.3325 14.9231 12.431C14.9603 12.4678 15.2052 14.8417 15.2052 15.1658C15.2052 15.3256 15.2271 15.3279 16.7009 15.3279H18.1965L18.1612 15.0038C18.1418 14.8256 18.0151 13.4444 17.8797 11.9344L17.6334 9.18913L11.8655 9.16958C7.27674 9.15402 6.09738 9.16961 6.09688 9.24583C6.09648 9.29853 6.0629 9.63333 6.02214 9.98984C5.92351 10.8525 5.1713 19.1879 5.1713 19.4181V19.5984H10.0793H14.9873L14.9435 19.8844C14.9194 20.0417 14.8432 20.8395 14.774 21.6574C14.7048 22.4753 14.6259 23.1656 14.5987 23.1914C14.5268 23.2596 11.6395 24.0217 11.4594 24.02C11.3758 24.0192 10.6302 23.8354 9.80236 23.6115L8.29726 23.2044L8.24207 22.5644C8.21172 22.2123 8.16553 21.7098 8.13945 21.4477L8.09202 20.9711H6.63166H5.1713L5.17454 21.257C5.18058 21.7918 5.53158 25.3941 5.58256 25.4445C5.6415 25.5027 11.2505 27.0605 11.4232 27.0666C11.4869 27.0689 12.8373 26.7141 14.424 26.2782Z" fill="#F0BE25"/>
<path d="M6.71722 30.6674L2.127 29.3976L1.1057 18.1114C0.543982 11.9039 0.0827659 6.69643 0.0807722 6.53914L0.0771484 6.25317H11.5004H22.9237L22.9251 6.42476C22.9272 6.66433 20.9181 29.0566 20.8772 29.2501C20.8478 29.3891 20.294 29.5581 16.1914 30.6805C13.6326 31.3805 11.4869 31.9496 11.4232 31.9452C11.3595 31.9408 9.24184 31.3658 6.71722 30.6674ZM15.2774 28.9687C17.2966 28.4182 18.9866 27.9292 19.033 27.882C19.1051 27.8086 20.849 8.92486 20.842 8.29309L20.8397 8.08338H16.1701H11.5004V8.61719V9.151H8.79896C6.6896 9.151 6.09738 9.17189 6.09688 9.24632C6.09648 9.29875 6.0629 9.63333 6.02214 9.98984C5.92351 10.8525 5.1713 19.1879 5.1713 19.4181V19.5984H8.33586H11.5004V21.8099C11.5004 23.529 11.4789 24.0211 11.4039 24.02C11.3509 24.0192 10.6302 23.8354 9.80236 23.6115L8.29726 23.2044L8.24207 22.5644C8.21172 22.2123 8.16553 21.7098 8.13945 21.4477L8.09202 20.9711H6.63166H5.1713L5.17454 21.257C5.18379 22.075 5.54193 25.4138 5.62592 25.4651C5.67697 25.4963 7.01962 25.8775 8.60958 26.3122L11.5004 27.1025V28.536C11.5004 29.3245 11.5242 29.9696 11.5533 29.9696C11.5823 29.9696 13.2582 29.5192 15.2774 28.9687ZM8.56859 14.5287C8.67955 13.3341 8.78546 12.3432 8.80395 12.3267C8.82243 12.3101 9.43669 12.2802 10.169 12.2602L11.5004 12.2238V14.4622V16.7006H9.93362H8.36684L8.56859 14.5287Z" fill="#E4A126"/>
<path d="M7.33203 3.54602V2.82156H8.37402H9.416V1.41078V0H10.1493H10.8825V2.13524V4.27048H9.10727H7.33203V3.54602ZM11.5772 3.69854V3.1266H12.542C13.0726 3.1266 13.5068 3.10722 13.5068 3.08353C13.5068 3.05984 13.0726 2.57557 12.542 2.00736L11.5772 0.974254V0.487127V0H13.584H15.5907V0.569592V1.13918L14.6486 1.1606L13.7065 1.18201L14.6872 2.22547L15.6679 3.26893V3.7697V4.27048H13.6225H11.5772V3.69854Z" fill="#0E0E0F"/>
</g>
<defs>
<clipPath id="clip0_676_61942">
<rect width="23" height="32" fill="white"/>
</clipPath>
</defs>
</svg>
