<svg width="2651" height="428" viewBox="0 0 2651 428" fill="none" xmlns="http://www.w3.org/2000/svg">
<path d="M646.959 427.117C623.977 427.117 601.954 424.107 580.887 418.088C559.821 411.796 542.859 403.725 530 393.876L552.571 343.809C564.882 352.564 579.383 359.814 596.072 365.559C613.034 371.031 630.133 373.767 647.369 373.767C660.501 373.767 671.035 372.536 678.969 370.073C687.176 367.338 693.195 363.644 697.025 358.993C700.856 354.342 702.771 349.007 702.771 342.988C702.771 335.328 699.761 329.309 693.742 324.931C687.723 320.28 679.789 316.587 669.94 313.851C660.091 310.842 649.148 308.106 637.11 305.643C625.345 302.908 613.444 299.625 601.406 295.794C589.642 291.964 578.835 287.04 568.986 281.021C559.137 275.002 551.066 267.068 544.774 257.218C538.755 247.369 535.745 234.784 535.745 219.463C535.745 203.048 540.123 188.137 548.878 174.732C557.906 161.052 571.312 150.245 589.095 142.311C607.152 134.104 629.723 130 656.808 130C674.865 130 692.648 132.189 710.158 136.566C727.667 140.67 743.125 146.962 756.531 155.444L736.012 205.921C722.606 198.26 709.2 192.652 695.794 189.095C682.389 185.265 669.256 183.35 656.398 183.35C643.539 183.35 633.006 184.854 624.798 187.864C616.591 190.873 610.708 194.84 607.152 199.765C603.595 204.416 601.817 209.888 601.817 216.18C601.817 223.567 604.826 229.586 610.845 234.237C616.864 238.614 624.798 242.171 634.647 244.907C644.497 247.643 655.303 250.379 667.068 253.115C679.105 255.85 691.007 258.997 702.771 262.553C714.809 266.11 725.752 270.898 735.601 276.917C745.451 282.936 753.385 290.87 759.404 300.719C765.696 310.568 768.842 323.016 768.842 338.064C768.842 354.205 764.328 368.979 755.3 382.385C746.271 395.791 732.729 406.597 714.672 414.805C696.889 423.013 674.318 427.117 646.959 427.117Z" fill="white"/>
<path d="M953.8 427.117C931.092 427.117 910.025 423.423 890.601 416.036C871.45 408.649 854.761 398.253 840.534 384.847C826.581 371.441 815.638 355.71 807.704 337.653C800.043 319.596 796.213 299.898 796.213 278.558C796.213 257.218 800.043 237.52 807.704 219.463C815.638 201.406 826.718 185.675 840.944 172.269C855.171 158.864 871.86 148.467 891.011 141.08C910.162 133.693 930.955 130 953.389 130C976.097 130 996.89 133.693 1015.77 141.08C1034.92 148.467 1051.47 158.864 1065.42 172.269C1079.65 185.675 1090.73 201.406 1098.66 219.463C1106.6 237.246 1110.57 256.945 1110.57 278.558C1110.57 299.898 1106.6 319.733 1098.66 338.064C1090.73 356.12 1079.65 371.852 1065.42 385.258C1051.47 398.39 1034.92 408.649 1015.77 416.036C996.89 423.423 976.234 427.117 953.8 427.117ZM953.389 370.484C966.248 370.484 978.012 368.295 988.682 363.918C999.626 359.54 1009.2 353.248 1017.41 345.04C1025.62 336.833 1031.91 327.12 1036.29 315.903C1040.94 304.686 1043.26 292.238 1043.26 278.558C1043.26 264.879 1040.94 252.431 1036.29 241.214C1031.91 229.996 1025.62 220.284 1017.41 212.076C1009.47 203.869 1000.04 197.576 989.092 193.199C978.149 188.821 966.248 186.633 953.389 186.633C940.531 186.633 928.629 188.821 917.686 193.199C907.016 197.576 897.577 203.869 889.37 212.076C881.162 220.284 874.733 229.996 870.082 241.214C865.704 252.431 863.516 264.879 863.516 278.558C863.516 291.964 865.704 304.412 870.082 315.903C874.733 327.12 881.025 336.833 888.959 345.04C897.167 353.248 906.742 359.54 917.686 363.918C928.629 368.295 940.531 370.484 953.389 370.484Z" fill="white"/>
<path d="M2005.57 250.652H2143.87V302.36H2005.57V250.652ZM2010.49 368.842H2166.85V422.192H1944.42V134.925H2161.52V188.274H2010.49V368.842Z" fill="white"/>
<path d="M2219.75 422.192V134.925H2344.09C2369.81 134.925 2391.97 139.165 2410.58 147.646C2429.18 155.854 2443.54 167.755 2453.67 183.35C2463.79 198.944 2468.85 217.548 2468.85 239.162C2468.85 260.501 2463.79 278.969 2453.67 294.563C2443.54 309.884 2429.18 321.648 2410.58 329.856C2391.97 338.064 2369.81 342.167 2344.09 342.167H2256.68L2286.23 313.03V422.192H2219.75ZM2402.37 422.192L2330.55 317.955H2401.55L2474.18 422.192H2402.37ZM2286.23 320.417L2256.68 289.228H2340.4C2360.92 289.228 2376.24 284.851 2386.36 276.096C2396.49 267.068 2401.55 254.756 2401.55 239.162C2401.55 223.294 2396.49 210.982 2386.36 202.227C2376.24 193.472 2360.92 189.095 2340.4 189.095H2256.68L2286.23 157.496V320.417Z" fill="white"/>
<path d="M2521.52 422.192V134.925H2588V422.192H2521.52Z" fill="white"/>
<path d="M1158 425V133H1214.05L1338.68 339.069H1308.99L1431.54 133H1487.16L1488 425H1424.43L1424.01 230.194H1435.72L1337.85 394.131H1307.32L1207.35 230.194H1221.57V425H1158Z" fill="white"/>
<path d="M1548 422V130H1604.05L1728.68 336.069H1698.99L1821.54 130H1877.16L1878 422H1814.43L1814.01 227.194H1825.72L1727.85 391.131H1697.32L1597.35 227.194H1611.57V422H1548Z" fill="white"/>
<path fill-rule="evenodd" clip-rule="evenodd" d="M2620.77 27.6448C2600.98 25.3423 2583.74 26.6084 2570.63 31.3254C2564.16 33.6561 2560.23 35.8148 2555.44 39.6578C2542.38 50.161 2536.79 66.5842 2539.14 87.5798C2539.41 89.9687 2539.79 92.596 2540 93.4182L2540.37 94.9133L2536.53 97.9839C2533.07 100.757 2532.68 101.159 2532.56 102.136C2532.38 103.552 2532.97 104.777 2534.09 105.277C2535.78 106.033 2536.26 105.826 2540.3 102.613L2544.14 99.5514L2545.25 100.177C2547.33 101.358 2557.38 104.508 2561.72 105.341C2570.45 107.018 2578.81 106.805 2586.37 104.713C2608.92 98.4769 2623.16 74.5653 2627.35 35.8895C2627.77 32.0343 2628.04 28.7853 2627.94 28.6698C2627.85 28.5543 2624.62 28.093 2620.77 27.6448Z" fill="url(#paint0_linear_44_2)"/>
<path fill-rule="evenodd" clip-rule="evenodd" d="M949.439 222.959C935.277 236.97 925.489 251.227 920.986 264.404C918.761 270.914 917.987 275.336 918 281.47C918.036 298.236 927.367 312.861 945.227 324.145C947.26 325.429 949.553 326.768 950.323 327.122L951.724 327.764V332.678C951.724 337.116 951.797 337.668 952.481 338.377C953.472 339.404 954.803 339.703 955.892 339.143C957.537 338.296 957.676 337.79 957.689 332.633L957.701 327.718L958.88 327.246C961.104 326.357 969.841 320.481 973.204 317.612C979.968 311.843 985.024 305.184 988.117 297.972C997.337 276.47 987.563 250.413 959.987 222.973C957.238 220.238 954.868 218 954.72 218C954.572 218 952.195 220.232 949.439 222.959Z" fill="url(#paint1_linear_44_2)"/>
<g clip-path="url(#clip0_44_2)">
<path d="M64.5055 245.895C62.3466 240.477 60.5802 235.809 60.5802 235.522C60.5802 235.235 76.3303 235 95.5805 235H130.58L126.431 245.342L122.281 255.684V326.657V334.316L126.431 344.658L130.58 355H95.5805C76.3303 355 60.5802 354.765 60.5802 354.478C60.5802 354.19 62.3466 349.523 64.5055 344.105L68.4308 334.255V326.657V255.745L64.5055 245.895Z" fill="url(#paint2_linear_44_2)"/>
<path d="M64.5055 373.446C62.3466 370.24 60.5802 367.479 60.5802 367.309C60.5802 367.139 76.3303 367 95.5805 367H130.58L126.431 373.119L122.281 379.238V421.231V425.762L126.431 431.881L130.58 438H95.5805C76.3303 438 60.5802 437.861 60.5802 437.691C60.5802 437.521 62.3466 434.76 64.5055 431.554L68.4308 425.726V421.231V379.274L64.5055 373.446Z" fill="url(#paint3_linear_44_2)"/>
<path d="M154.506 150.896C152.347 145.975 150.58 141.735 150.58 141.474C150.58 141.214 166.33 141 185.581 141H220.58L216.431 150.394L212.281 159.788V224.255V231.212L216.431 240.606L220.58 250H185.581C166.33 250 150.58 249.786 150.58 249.526C150.58 249.265 152.347 245.025 154.506 240.104L158.431 231.156V224.255V159.844L154.506 150.896Z" fill="url(#paint4_linear_44_2)"/>
<path d="M154.506 268.355C152.347 265.195 150.58 262.472 150.58 262.305C150.58 262.137 166.33 262 185.581 262H220.58L216.431 268.033L212.281 274.065V315.467V319.935L216.431 325.967L220.58 332H185.581C166.33 332 150.58 331.863 150.58 331.695C150.58 331.528 152.347 328.805 154.506 325.645L158.431 319.899V315.467V274.101L154.506 268.355Z" fill="url(#paint5_linear_44_2)"/>
<path d="M154.506 352.534C152.347 348.29 150.58 344.634 150.58 344.409C150.58 344.184 166.33 344 185.581 344H220.58L216.431 352.101L212.281 360.202V415.798V421.798L216.431 429.899L220.58 438H185.581C166.33 438 150.58 437.816 150.58 437.591C150.58 437.366 152.347 433.71 154.506 429.466L158.431 421.749V415.798V360.251L154.506 352.534Z" fill="url(#paint6_linear_44_2)"/>
<path d="M244.506 33.7978C242.347 25.9412 240.58 19.1738 240.58 18.7574C240.58 18.3411 256.33 18 275.581 18H310.58L306.431 32.9957L302.281 47.9914V150.903V162.009L306.431 177.004L310.58 192H275.581C256.33 192 240.58 191.659 240.58 191.243C240.58 190.826 242.347 184.059 244.506 176.202L248.431 161.919V150.903V48.0808L244.506 33.7978Z" fill="url(#paint7_linear_44_2)"/>
<path d="M244.506 217.619C242.347 210.846 240.58 205.012 240.58 204.653C240.58 204.294 256.33 204 275.581 204H310.58L306.431 216.927L302.281 229.855V318.572V328.145L306.431 341.073L310.58 354H275.581C256.33 354 240.58 353.706 240.58 353.347C240.58 352.988 242.347 347.154 244.506 340.381L248.431 328.068V318.572V229.932L244.506 217.619Z" fill="url(#paint8_linear_44_2)"/>
<path d="M244.506 372.537C242.347 369.286 240.58 366.486 240.58 366.313C240.58 366.141 256.33 366 275.581 366H310.58L306.431 372.205L302.281 378.41V420.994V425.59L306.431 431.795L310.58 438H275.581C256.33 438 240.58 437.859 240.58 437.687C240.58 437.514 242.347 434.714 244.506 431.463L248.431 425.553V420.994V378.447L244.506 372.537Z" fill="url(#paint9_linear_44_2)"/>
<path fill-rule="evenodd" clip-rule="evenodd" d="M182.24 83.7589C187.059 95.2015 193.061 104.236 199.69 110.023C202.965 112.883 205.365 114.408 208.952 115.912C218.758 120.022 229.523 118.361 240.366 111.063C241.599 110.233 242.928 109.269 243.317 108.921L244.026 108.289L246.898 109.5C249.491 110.593 249.831 110.688 250.408 110.476C251.244 110.17 251.735 109.493 251.666 108.741C251.563 107.604 251.301 107.4 248.29 106.123L245.421 104.905L245.426 104.123C245.435 102.65 244.08 96.2726 243.203 93.6686C241.441 88.4305 238.753 83.9372 235.274 80.4154C224.903 69.9165 207.351 69.0115 184.757 77.8111C182.505 78.6881 180.633 79.4741 180.598 79.5576C180.563 79.641 181.302 81.5317 182.24 83.7589Z" fill="url(#paint10_linear_44_2)"/>
<path fill-rule="evenodd" clip-rule="evenodd" d="M352.503 286.986C340.13 288.02 329.68 290.926 322.123 295.433C318.389 297.661 316.194 299.469 313.652 302.414C306.704 310.462 304.947 321.212 308.523 333.783C308.93 335.213 309.435 336.774 309.644 337.253L310.026 338.122L307.984 340.477C306.141 342.604 305.946 342.898 305.968 343.512C306 344.401 306.491 345.078 307.228 345.246C308.34 345.501 308.615 345.314 310.763 342.848L312.81 340.498L313.552 340.745C314.95 341.21 321.433 341.899 324.181 341.873C329.707 341.822 334.813 340.659 339.239 338.443C352.436 331.838 358.738 315.432 357.377 291.223C357.242 288.81 357.075 286.787 357.006 286.728C356.938 286.668 354.911 286.784 352.503 286.986Z" fill="url(#paint11_linear_44_2)"/>
<path fill-rule="evenodd" clip-rule="evenodd" d="M4.84714 286.968C7.80446 299.027 12.31 308.894 17.9447 315.653C20.7287 318.992 22.8583 320.876 26.1645 322.926C35.2004 328.529 46.0934 328.583 57.9495 323.083C59.2985 322.457 60.762 321.715 61.2016 321.433L62.0008 320.92L64.646 322.568C67.0348 324.056 67.3557 324.203 67.9587 324.085C68.8324 323.914 69.4238 323.323 69.4749 322.569C69.5519 321.43 69.3248 321.188 66.5527 319.452L63.9111 317.798L64.039 317.027C64.2803 315.573 63.9457 309.062 63.4903 306.353C62.5746 300.902 60.6273 296.042 57.7463 292.016C49.1574 280.015 31.9676 276.358 8.26989 281.491C5.90766 282.002 3.93563 282.484 3.88773 282.561C3.83984 282.638 4.27163 284.621 4.84714 286.968Z" fill="url(#paint12_linear_44_2)"/>
<path fill-rule="evenodd" clip-rule="evenodd" d="M357.149 126.275C344.793 125.056 333.989 126.026 325.742 129.094C321.667 130.61 319.182 131.992 316.15 134.429C307.862 141.089 304.191 151.345 305.437 164.355C305.579 165.835 305.793 167.462 305.913 167.971L306.131 168.895L303.698 170.842C301.5 172.601 301.255 172.854 301.166 173.462C301.037 174.343 301.398 175.097 302.092 175.396C303.14 175.847 303.444 175.714 306.002 173.676L308.44 171.734L309.125 172.111C310.416 172.822 316.668 174.671 319.375 175.142C324.82 176.09 330.051 175.868 334.806 174.489C348.979 170.377 358.141 155.38 361.177 131.324C361.48 128.926 361.681 126.906 361.624 126.835C361.568 126.764 359.554 126.512 357.149 126.275Z" fill="url(#paint13_linear_44_2)"/>
</g>
<defs>
<linearGradient id="paint0_linear_44_2" x1="2557.6" y1="37.9333" x2="2603.52" y2="95.3125" gradientUnits="userSpaceOnUse">
<stop stop-color="#52B69A"/>
<stop offset="1" stop-color="#168AAD"/>
</linearGradient>
<linearGradient id="paint1_linear_44_2" x1="954.745" y1="218" x2="954.745" y2="339.421" gradientUnits="userSpaceOnUse">
<stop stop-color="#52B69A"/>
<stop offset="1" stop-color="#168AAD"/>
</linearGradient>
<linearGradient id="paint2_linear_44_2" x1="95.5802" y1="235" x2="95.5802" y2="355" gradientUnits="userSpaceOnUse">
<stop stop-color="#52B69A"/>
<stop offset="1" stop-color="#168AAD"/>
</linearGradient>
<linearGradient id="paint3_linear_44_2" x1="95.5802" y1="367" x2="95.5802" y2="438" gradientUnits="userSpaceOnUse">
<stop stop-color="#52B69A"/>
<stop offset="1" stop-color="#168AAD"/>
</linearGradient>
<linearGradient id="paint4_linear_44_2" x1="185.58" y1="141" x2="185.58" y2="250" gradientUnits="userSpaceOnUse">
<stop stop-color="#52B69A"/>
<stop offset="1" stop-color="#168AAD"/>
</linearGradient>
<linearGradient id="paint5_linear_44_2" x1="185.58" y1="262" x2="185.58" y2="332" gradientUnits="userSpaceOnUse">
<stop stop-color="#52B69A"/>
<stop offset="1" stop-color="#168AAD"/>
</linearGradient>
<linearGradient id="paint6_linear_44_2" x1="185.58" y1="344" x2="185.58" y2="438" gradientUnits="userSpaceOnUse">
<stop stop-color="#52B69A"/>
<stop offset="1" stop-color="#168AAD"/>
</linearGradient>
<linearGradient id="paint7_linear_44_2" x1="275.58" y1="18" x2="275.58" y2="192" gradientUnits="userSpaceOnUse">
<stop stop-color="#52B69A"/>
<stop offset="1" stop-color="#168AAD"/>
</linearGradient>
<linearGradient id="paint8_linear_44_2" x1="275.58" y1="204" x2="275.58" y2="354" gradientUnits="userSpaceOnUse">
<stop stop-color="#52B69A"/>
<stop offset="1" stop-color="#168AAD"/>
</linearGradient>
<linearGradient id="paint9_linear_44_2" x1="275.58" y1="366" x2="275.58" y2="438" gradientUnits="userSpaceOnUse">
<stop stop-color="#52B69A"/>
<stop offset="1" stop-color="#168AAD"/>
</linearGradient>
<linearGradient id="paint10_linear_44_2" x1="180.604" y1="79.5432" x2="251.557" y2="109.456" gradientUnits="userSpaceOnUse">
<stop stop-color="#52B69A"/>
<stop offset="1" stop-color="#168AAD"/>
</linearGradient>
<linearGradient id="paint11_linear_44_2" x1="357.018" y1="286.738" x2="306.582" y2="344.92" gradientUnits="userSpaceOnUse">
<stop stop-color="#52B69A"/>
<stop offset="1" stop-color="#168AAD"/>
</linearGradient>
<linearGradient id="paint12_linear_44_2" x1="3.89595" y1="282.548" x2="69.2538" y2="323.258" gradientUnits="userSpaceOnUse">
<stop stop-color="#52B69A"/>
<stop offset="1" stop-color="#168AAD"/>
</linearGradient>
<linearGradient id="paint13_linear_44_2" x1="361.634" y1="126.847" x2="301.515" y2="174.959" gradientUnits="userSpaceOnUse">
<stop stop-color="#52B69A"/>
<stop offset="1" stop-color="#168AAD"/>
</linearGradient>
<clipPath id="clip0_44_2">
<rect width="372" height="372" fill="white" transform="translate(0 50)"/>
</clipPath>
</defs>
</svg>
