<svg width="47" height="32" viewBox="0 0 47 32" fill="none" xmlns="http://www.w3.org/2000/svg">
<g clip-path="url(#clip0_676_61817)">
<path d="M13.9816 21.116L15.4099 25.7452C15.7309 26.7962 15.8647 27.5299 15.8111 27.9481C16.5923 25.8583 17.1381 23.5809 17.4487 21.116H19.1662C18.4276 25.129 17.4537 28.0451 16.2446 29.8642C15.3025 31.2661 14.2706 31.9669 13.1468 31.9669C12.8472 31.9669 12.4778 31.8765 12.0394 31.697V30.7297C12.2536 30.761 12.5048 30.7778 12.7938 30.7778C13.318 30.7777 13.7407 30.6327 14.0621 30.343C14.447 29.9901 14.6397 29.5934 14.6397 29.1538C14.6397 28.8536 14.4894 28.2375 14.1902 27.3056L12.2001 21.116H13.9816ZM3.04977 18.2708L5.66598 26.2438H5.68213L8.31441 18.2708H10.465C10.9359 22.2248 11.2141 25.8426 11.2995 29.122H9.48629C9.4224 26.0566 9.2459 23.1738 8.9568 20.4737H8.94102L6.17995 29.122H4.79914L2.05478 20.4737H2.03863C1.83514 23.0668 1.70675 25.9496 1.65345 29.122H0C0.106852 25.2636 0.374256 21.6469 0.802213 18.2708H3.04977Z" fill="#00758F"/>
<path d="M32.3579 18.1097C35.1721 18.1097 36.5792 19.9056 36.5792 23.4955C36.5792 25.4463 36.156 26.9199 35.3105 27.9154C35.1581 28.0973 34.9897 28.2544 34.8123 28.4L36.8039 29.3836L36.8019 29.3835L36.0948 30.6032L33.5013 29.0917C33.0713 29.2188 32.5985 29.2824 32.0829 29.2824C30.7011 29.2824 29.6689 28.8801 28.9865 28.0767C28.2375 27.1878 27.8631 25.7885 27.8631 23.8812C27.8631 21.9414 28.2856 20.4734 29.1314 19.4766C29.9017 18.5649 30.9774 18.1097 32.3579 18.1097ZM23.74 18.1254C24.7458 18.1254 25.6604 18.3942 26.4841 18.93L26.0657 19.8613C25.3608 19.562 24.6658 19.4117 23.9805 19.4117C23.4244 19.4117 22.9959 19.5454 22.6972 19.8144C22.3968 20.0811 22.211 20.4242 22.211 20.8425C22.211 21.4852 22.6694 22.0426 23.5159 22.5135C23.7932 22.6649 24.0695 22.8181 24.3449 22.973L24.4081 23.0085L24.4397 23.0262L24.503 23.0617L24.5346 23.0795L24.5977 23.1151C25.2385 23.4759 25.8414 23.8203 25.8414 23.8203C26.6878 24.4204 27.1096 25.0602 27.1096 26.114C27.1096 27.0343 26.772 27.7898 26.099 28.3809C25.4255 28.9694 24.5206 29.2644 23.3875 29.2644C22.3277 29.2644 21.3006 28.9248 20.3057 28.2512L20.7711 27.3191C21.6273 27.7478 22.402 27.9619 23.0978 27.9619C23.7503 27.9619 24.261 27.8163 24.6305 27.529C24.9992 27.2395 25.2202 26.8358 25.2202 26.3239C25.2202 25.6796 24.7715 25.1288 23.9483 24.6668C23.6907 24.5246 23.4338 24.381 23.1777 24.2361L23.1146 24.2004C22.9988 24.1351 22.8821 24.0689 22.7678 24.004L22.7059 23.9688C22.15 23.653 21.6695 23.3771 21.6695 23.3771C20.8466 22.7759 20.434 22.1309 20.434 21.068C20.434 20.189 20.7417 19.4785 21.3562 18.938C21.9722 18.3962 22.7668 18.1254 23.74 18.1254ZM39.8866 18.2706V27.787H43.3049V29.1218H38.1529V18.2707L39.8866 18.2706ZM45.2044 27.7911V28.0167H44.8286V29.1206H44.5412V28.0167H44.1508V27.7911H45.2044ZM45.8984 27.7911L46.2592 28.6974L46.5907 27.7911H46.998V29.1206H46.7272V28.1088L46.3499 29.1206H46.1547L45.7767 28.1088H45.7622V29.1206H45.506V27.7911H45.8984ZM32.1809 19.4442C30.5225 19.4442 29.6928 20.8113 29.6928 23.5437C29.6928 25.1088 29.9127 26.2438 30.3515 26.9512C30.758 27.6058 31.3946 27.9325 32.2615 27.9325C33.9199 27.9325 34.7494 26.5548 34.7494 23.8006C34.7494 22.2573 34.5296 21.1321 34.0913 20.4243C33.6843 19.7711 33.048 19.4442 32.181 19.4442" fill="#F29111"/>
<path d="M27.8346 0.672373C28.3847 -0.677862 30.3083 0.344671 31.0548 0.816327C31.2378 0.934333 31.4476 1.18364 31.6574 1.27579C31.9846 1.28863 32.3116 1.31421 32.6394 1.32787C33.2543 1.47219 33.8302 1.5901 34.3147 1.86573C36.5663 3.1902 38.032 4.53988 39.381 6.76924C39.6692 7.24145 39.8133 7.75244 40.0487 8.26343C40.3755 9.02511 40.7427 9.82465 41.122 10.5449C41.2918 10.8863 41.4232 11.266 41.659 11.5544C41.7511 11.6862 42.0126 11.7251 42.1689 11.8039C42.6011 12.0273 43.1247 12.197 43.5312 12.4592C44.2903 12.9319 45.0242 13.4953 45.6914 14.072C45.9401 14.2947 46.1095 14.6098 46.3464 14.8453V14.9641C46.1361 15.0285 45.9266 15.0946 45.7168 15.1475C45.2586 15.265 44.8528 15.2384 44.4083 15.3561C44.1337 15.4357 43.7926 15.5406 43.5046 15.5673L43.5312 15.5941C43.7007 16.0778 44.6175 16.4711 45.0369 16.7604C45.5462 17.1275 46.0181 17.5728 46.3979 18.0841C46.5291 18.2146 46.6603 18.3333 46.7908 18.4635C46.8821 18.5953 46.9078 18.7659 47.0001 18.8834V18.9232C46.8979 18.8872 46.8243 18.8184 46.7547 18.7465L46.7131 18.7031C46.6715 18.66 46.6295 18.6177 46.5817 18.5827C46.2927 18.3856 46.0058 18.1498 45.7168 17.9665C45.22 17.6516 44.6438 17.4689 44.1337 17.1528C43.8452 16.9694 43.5703 16.7604 43.2954 16.5504C43.0462 16.3664 42.7717 16.013 42.6151 15.7508C42.5228 15.6059 42.5102 15.4357 42.4048 15.3308C42.4236 15.1558 42.5841 15.1038 42.7462 15.0611L42.7834 15.0513C42.8393 15.0368 42.894 15.0223 42.9418 15.0031C43.6224 14.7145 44.4338 14.6098 45.4815 14.636C45.4421 14.3732 44.7874 14.0458 44.5783 13.8885C44.1588 13.5864 43.7146 13.2713 43.2696 12.9964C43.0338 12.8525 42.6274 12.7474 42.3661 12.6297C42.0126 12.4854 41.2269 12.3412 41.031 12.0663C40.6983 11.633 40.4592 11.1161 40.2272 10.594L40.164 10.4515L40.1007 10.3091C39.8264 9.68042 39.4856 9.02492 39.2107 8.38116C39.0669 8.06712 39.0009 7.7915 38.8435 7.4903C37.8882 5.642 36.4742 4.09454 34.7599 3.00626C34.1966 2.65216 33.5684 2.32445 32.875 2.10174C32.482 1.98318 32.0103 2.04874 31.5916 1.95778H31.3161C31.0809 1.89158 30.8845 1.64255 30.701 1.51125C30.2958 1.23636 29.8898 1.05179 29.4051 0.855662C29.2353 0.776992 28.7504 0.593794 28.5811 0.738023C28.4762 0.764339 28.4231 0.803857 28.3973 0.908935C28.293 1.06573 28.3847 1.30192 28.4496 1.44652C28.6463 1.86554 28.9209 2.11457 29.1702 2.46868C29.392 2.78272 29.6675 3.13683 29.8247 3.47829C30.164 4.21227 30.322 5.02547 30.6364 5.75936C30.753 6.03535 30.9374 6.34939 31.1071 6.59833C31.251 6.79593 31.5125 6.93878 31.5916 7.18891C31.7494 7.45115 31.3555 8.31643 31.2644 8.59123C30.9234 9.66648 30.9895 11.1611 31.3822 12.0932L31.4031 12.1423L31.424 12.1921C31.5674 12.5335 31.7209 12.9011 32.1021 12.9965C32.1284 12.9705 32.1021 12.9841 32.1542 12.9705C32.2464 12.249 32.2724 11.5543 32.5214 10.9899C32.6652 10.6369 32.9524 10.3874 33.1493 10.0994C33.2806 10.1778 33.2806 10.4145 33.3588 10.5711C33.5292 10.9773 33.7122 11.4226 33.9222 11.83C34.3533 12.669 34.8383 13.4824 35.3879 14.2163C35.572 14.4784 35.8331 14.767 36.0687 15.0031C36.1736 15.0945 36.2911 15.1473 36.37 15.2649H36.3957V15.3045C36.0029 15.1599 35.754 14.7541 35.4408 14.5172C34.8511 14.0718 34.1449 13.4031 33.7384 12.7613C33.5684 12.3929 33.3846 12.0398 33.2014 11.6732V11.6467C33.1231 11.7514 33.1493 11.8554 33.1102 12.0139C32.9401 12.669 33.071 13.4164 32.482 13.652C31.8143 13.928 31.3162 13.2067 31.1071 12.8789C30.4392 11.7909 30.2563 9.9554 30.7273 8.47377C30.8319 8.14579 30.8462 7.75244 31.0288 7.49057C30.9894 7.25383 30.8067 7.1891 30.701 7.04404C30.5178 6.79611 30.3609 6.50728 30.2174 6.23194C29.9419 5.69408 29.7458 5.05142 29.5366 4.4746C29.4446 4.23904 29.4183 4.00257 29.3266 3.77958C29.1701 3.43923 28.8818 3.09777 28.6594 2.79666C28.3582 2.36388 27.481 1.5251 27.8346 0.672373ZM32.1281 3.24108C32.1631 3.27611 32.2053 3.30673 32.249 3.3369L32.3017 3.37303C32.3719 3.42162 32.4399 3.47279 32.4816 3.54247C32.5477 3.63471 32.56 3.72576 32.6391 3.81818C32.6391 4.13332 32.5477 4.34284 32.3631 4.4734C32.3631 4.4734 32.3505 4.48716 32.3376 4.49999C32.2329 4.28993 32.1412 4.08097 32.0359 3.87109C31.9061 3.68789 31.7226 3.54256 31.6168 3.33323H31.5914V3.30692C31.7494 3.26795 31.9061 3.24108 32.1281 3.24108Z" fill="#00758F"/>
</g>
<defs>
<clipPath id="clip0_676_61817">
<rect width="47" height="32" fill="white"/>
</clipPath>
</defs>
</svg>
