<svg width="32" height="32" viewBox="0 0 32 32" fill="none" xmlns="http://www.w3.org/2000/svg">
<g clip-path="url(#clip0_676_61853)">
<path d="M24.5 0H7.5C3.35786 0 0 3.35786 0 7.5V24.5C0 28.6421 3.35786 32 7.5 32H24.5C28.6421 32 32 28.6421 32 24.5V7.5C32 3.35786 28.6421 0 24.5 0Z" fill="#F4F2ED"/>
<path d="M15.1812 3.50684C15.1275 3.51171 14.9564 3.52884 14.8024 3.54096C11.2516 3.86109 7.92563 5.77709 5.819 8.72184C4.64613 10.3592 3.89575 12.2165 3.61238 14.1838C3.51225 14.8706 3.5 15.0735 3.5 16.0045C3.5 16.9356 3.51225 17.1385 3.6125 17.8251C4.29175 22.5196 7.6325 26.464 12.1632 27.9253C12.9746 28.1868 13.8299 28.3652 14.8025 28.4727C15.1814 28.5142 16.8186 28.5142 17.1975 28.4727C18.8764 28.287 20.2986 27.8716 21.7014 27.1555C21.9164 27.0456 21.958 27.0162 21.9286 26.9918C21.9091 26.9771 20.9926 25.7478 19.893 24.2621L17.894 21.5617L15.389 17.8545C14.0107 15.8163 12.8769 14.1496 12.867 14.1496C12.8572 14.1472 12.8475 15.7943 12.8426 17.8056C12.8352 21.3271 12.8329 21.4688 12.7889 21.5518C12.7254 21.6716 12.6765 21.7205 12.5738 21.7743C12.4956 21.8133 12.4271 21.8207 12.0581 21.8207H11.6354L11.5229 21.7498C11.4532 21.7062 11.3966 21.6446 11.3591 21.5715L11.3079 21.4615L11.3129 16.5617L11.3201 11.6595L11.3959 11.5641C11.435 11.5128 11.5181 11.4468 11.5767 11.4151C11.6769 11.3662 11.716 11.3613 12.1388 11.3613C12.6374 11.3613 12.7204 11.3808 12.85 11.5226C12.8866 11.5617 14.2429 13.6047 15.8656 16.0656C17.5085 18.5565 19.1523 21.0467 20.7971 23.5362L22.7766 26.5348L22.8769 26.4688C23.7639 25.8921 24.7024 25.071 25.4453 24.2156C27.0264 22.3998 28.0455 20.1858 28.3876 17.8251C28.4878 17.1385 28.5 16.9356 28.5 16.0045C28.5 15.0733 28.4878 14.8706 28.3876 14.1838C27.7083 9.48934 24.3675 5.54509 19.8368 4.08371C19.0376 3.82459 18.1872 3.64621 17.2341 3.53871C16.9995 3.51421 15.3841 3.48746 15.1814 3.50696M20.2986 11.0681C20.4159 11.1267 20.5113 11.2391 20.5455 11.3563C20.565 11.42 20.5699 12.7787 20.565 15.8407L20.5576 20.2347L19.783 19.047L19.0059 17.8593V14.6653C19.0059 12.6003 19.0156 11.4395 19.0302 11.3832C19.0694 11.2465 19.1549 11.139 19.2723 11.0753C19.3724 11.0241 19.4091 11.0191 19.7928 11.0191C20.1545 11.0191 20.218 11.0241 20.2986 11.0681Z" fill="black"/>
</g>
<defs>
<clipPath id="clip0_676_61853">
<rect width="32" height="32" fill="white"/>
</clipPath>
</defs>
</svg>
