<svg width="32" height="32" viewBox="0 0 32 32" fill="none" xmlns="http://www.w3.org/2000/svg">
<g clip-path="url(#clip0_676_61932)">
<path d="M16.7399 0.206161C16.5102 0.0745916 16.2502 0.00537109 15.9855 0.00537109C15.7208 0.00537109 15.4608 0.0745916 15.2311 0.206161L2.77613 7.43991C2.30238 7.70791 2.03613 8.21366 2.03613 8.74991V23.2469C2.03613 23.7827 2.33188 24.2887 2.77563 24.5569L15.2306 31.7904C15.4603 31.922 15.7204 31.9913 15.9851 31.9913C16.2498 31.9913 16.51 31.922 16.7396 31.7904L29.1946 24.5567C29.6681 24.2887 29.9341 23.7827 29.9341 23.2467V8.74991C29.9341 8.21391 29.6384 7.70816 29.1946 7.43991L16.7399 0.206161Z" fill="url(#paint0_linear_676_61932)"/>
<path d="M29.2245 7.44012L16.7105 0.206367C16.5877 0.143655 16.4588 0.0938067 16.3257 0.0576172L2.30273 24.1996C2.4189 24.342 2.5591 24.463 2.71698 24.5571L15.2312 31.7906C15.5862 31.9989 16.0002 32.0586 16.385 31.9394L29.55 7.70812C29.4636 7.59492 29.3522 7.5032 29.2245 7.44012Z" fill="url(#paint1_linear_676_61932)"/>
<path d="M29.2249 24.5563C29.5799 24.3481 29.8461 23.9908 29.9644 23.6038L16.2669 0.0270647C15.9119 -0.0324353 15.5271 -0.00268531 15.2019 0.205815L2.77637 7.40982L16.1779 31.9986C16.3554 31.9686 16.5629 31.9091 16.7404 31.8198L29.2249 24.5563Z" fill="url(#paint2_linear_676_61932)"/>
</g>
<defs>
<linearGradient id="paint0_linear_676_61932" x1="21.0576" y1="5.59305" x2="9.68296" y2="28.6531" gradientUnits="userSpaceOnUse">
<stop stop-color="#3F873F"/>
<stop offset="0.33" stop-color="#3F8B3D"/>
<stop offset="0.637" stop-color="#3E9638"/>
<stop offset="0.934" stop-color="#3DA92E"/>
<stop offset="1" stop-color="#3DAE2B"/>
</linearGradient>
<linearGradient id="paint1_linear_676_61932" x1="14.0929" y1="17.6916" x2="45.8293" y2="-5.61284" gradientUnits="userSpaceOnUse">
<stop offset="0.138" stop-color="#3F873F"/>
<stop offset="0.402" stop-color="#52A044"/>
<stop offset="0.713" stop-color="#64B749"/>
<stop offset="0.908" stop-color="#6ABF4B"/>
</linearGradient>
<linearGradient id="paint2_linear_676_61932" x1="1.58029" y1="15.9937" x2="30.4004" y2="15.9937" gradientUnits="userSpaceOnUse">
<stop offset="0.092" stop-color="#6ABF4B"/>
<stop offset="0.287" stop-color="#64B749"/>
<stop offset="0.598" stop-color="#52A044"/>
<stop offset="0.862" stop-color="#3F873F"/>
</linearGradient>
<clipPath id="clip0_676_61932">
<rect width="32" height="32" fill="white"/>
</clipPath>
</defs>
</svg>
