<svg width="32" height="32" viewBox="0 0 32 32" fill="none" xmlns="http://www.w3.org/2000/svg">
<g clip-path="url(#clip0_676_61909)">
<path d="M24.5 0H7.5C3.35786 0 0 3.35786 0 7.5V24.5C0 28.6421 3.35786 32 7.5 32H24.5C28.6421 32 32 28.6421 32 24.5V7.5C32 3.35786 28.6421 0 24.5 0Z" fill="#F4F2ED"/>
<path d="M20.8565 24.1222C20.8567 24.3688 20.8072 24.6131 20.7107 24.841C20.6143 25.0689 20.4729 25.276 20.2946 25.4505C20.1162 25.6249 19.9045 25.7632 19.6715 25.8575C19.4384 25.9518 19.1886 26.0002 18.9364 26H18.9081C18.6588 26.0006 18.4119 25.9522 18.182 25.8577C17.9522 25.7632 17.7441 25.6245 17.5701 25.4498C17.39 25.2817 17.2467 25.0796 17.1489 24.8558C17.0511 24.6319 17.0008 24.3909 17.0011 24.1475V24.1182V24.1198C17.0034 23.619 17.2078 23.1394 17.5697 22.7852C17.9317 22.4311 18.422 22.231 18.934 22.2285H18.9632C19.4861 22.2285 19.9588 22.4415 20.2939 22.7842L20.2947 22.785C20.6411 23.1175 20.8565 23.5807 20.8565 24.0921V24.1222ZM12.0804 24.1206V24.1483C12.0804 24.6597 11.8627 25.122 11.5122 25.4498L11.5114 25.4506C11.3375 25.6249 11.1296 25.7634 10.9001 25.8577C10.6705 25.9521 10.424 26.0005 10.175 26H10.145C9.89281 26.0002 9.64305 25.9518 9.41 25.8575C9.17696 25.7632 8.96521 25.6249 8.78688 25.4505C8.60855 25.276 8.46713 25.0689 8.37072 24.841C8.2743 24.6131 8.22478 24.3688 8.225 24.1222V24.0945C8.225 23.5822 8.44031 23.1183 8.78756 22.7858C8.95939 22.6097 9.16603 22.4695 9.39492 22.3739C9.62381 22.2782 9.87019 22.229 10.1191 22.2293H10.1491H10.1474C10.6594 22.2316 11.1498 22.4315 11.512 22.7855C11.8741 23.1395 12.0787 23.619 12.0812 24.1198L12.0804 24.1206ZM3 7C3.40087 7.41654 3.82571 7.81037 4.27245 8.17958L4.29512 8.19779C4.71037 8.53504 5.17418 8.84617 5.66633 9.11454L5.71328 9.13829C6.15766 9.38687 6.68219 9.62992 7.22695 9.83417L7.30708 9.86029C7.91198 10.0761 8.53307 10.2458 9.16477 10.3677L9.24976 10.382C10.0112 10.5351 10.7923 10.6554 11.5931 10.743C12.3939 10.8306 13.3704 10.9013 14.5225 10.9552C15.6746 11.009 16.8618 11.0454 18.0841 11.0644C19.3064 11.0834 20.7612 11.0929 22.4486 11.0929C23.5344 11.0929 24.4893 11.1119 25.3133 11.1499C26.0968 11.1816 26.8286 11.2497 27.5482 11.3534L27.434 11.3399C27.9869 11.4159 28.4782 11.5267 28.9518 11.674L28.887 11.6566C29.2108 11.746 29.4909 11.902 29.7207 12.1102L29.7191 12.1094C29.8786 12.2606 29.983 12.4672 30 12.6968V12.7C29.9983 12.963 29.9178 13.2198 29.7685 13.4386L29.7717 13.4339C29.5669 13.7648 29.3484 14.0514 29.1056 14.3158L29.1104 14.3102C28.833 14.6195 28.4836 14.9673 28.0622 15.3537C27.6407 15.74 27.1874 16.1393 26.7023 16.5515C26.2172 16.9636 25.6743 17.4181 25.0737 17.9147C23.6286 19.1143 22.5115 20.0577 21.7226 20.7449C22.0083 20.2707 22.3054 19.8614 22.634 19.4798L22.6227 19.4941C22.9934 19.0513 23.3604 18.6483 23.7235 18.2852C24.0867 17.9221 24.4558 17.5458 24.8309 17.1563C25.2059 16.7668 25.5297 16.4171 25.8022 16.1073C26.045 15.8397 26.2563 15.5365 26.4239 15.2088L26.4352 15.185C26.5763 14.9393 26.6295 14.6546 26.5866 14.376L26.5874 14.3831C26.5464 14.2491 26.4787 14.1244 26.3883 14.0162C26.2979 13.9079 26.1864 13.8181 26.0604 13.7521L26.0547 13.7497C25.6401 13.5162 25.1857 13.358 24.7135 13.2827L24.69 13.2795C23.915 13.1396 23.1313 13.0502 22.3442 13.0119L22.2997 13.0103C21.3068 12.9491 20.1196 12.9301 18.7381 12.9533C17.4257 12.9686 16.1992 12.9457 15.0584 12.8845C13.9176 12.8232 12.9176 12.7354 12.0586 12.6208C11.2059 12.5113 10.3621 12.3441 9.53307 12.1205L9.66258 12.1506C8.98468 11.9754 8.31744 11.7629 7.66405 11.5141L7.79356 11.5576C7.28006 11.362 6.78833 11.1155 6.32603 10.8222L6.3576 10.8412C5.97745 10.6087 5.61422 10.3508 5.27051 10.0693L5.28508 10.0812C5.00073 9.8342 4.73833 9.56406 4.50072 9.27367L4.4902 9.261C4.28165 9.01807 4.08992 8.76179 3.9163 8.49387L3.89849 8.46379C3.76898 8.25268 3.61275 7.99301 3.42982 7.68479C3.24688 7.37657 3.10388 7.1491 3.00081 7.00237L3 7Z" fill="#24C2F1"/>
</g>
<defs>
<clipPath id="clip0_676_61909">
<rect width="32" height="32" fill="white"/>
</clipPath>
</defs>
</svg>
