<svg width="32" height="32" viewBox="0 0 32 32" fill="none" xmlns="http://www.w3.org/2000/svg">
<path d="M0 16C0 20.6483 7.1635 24.4168 16 24.4168C24.8365 24.4168 32 20.6483 32 16C32 11.3518 24.8363 7.58325 16 7.58325C7.16375 7.58325 0 11.3518 0 16Z" fill="url(#paint0_radial_676_61742)"/>
<path d="M16 23.7918C24.4913 23.7918 31.375 20.303 31.375 16C31.375 11.6965 24.4913 8.20825 16 8.20825C7.50875 8.20825 0.625 11.6965 0.625 16C0.625 20.303 7.50875 23.7918 16 23.7918Z" fill="#777BB3"/>
<path d="M8.69313 16.966C9.39138 16.966 9.91238 16.8372 10.2421 16.5835C10.5686 16.332 10.7939 15.8967 10.9121 15.2897C11.0221 14.7222 10.9801 14.3262 10.7871 14.1122C10.5901 13.8937 10.1639 13.783 9.52038 13.783H8.40438L7.78613 16.966H8.69313ZM5.04338 20.8867C5.01778 20.8867 4.9925 20.881 4.96936 20.87C4.94622 20.8591 4.92579 20.8431 4.90954 20.8233C4.89329 20.8036 4.88162 20.7804 4.87537 20.7556C4.86912 20.7308 4.86844 20.7049 4.87338 20.6797L6.51263 12.2452C6.52038 12.2058 6.54155 12.1703 6.57255 12.1447C6.60355 12.1191 6.64245 12.1051 6.68263 12.105H10.2161C11.3266 12.105 12.1531 12.4065 12.6729 13.0012C13.1949 13.5987 13.3564 14.4347 13.1521 15.485C13.0689 15.9127 12.9259 16.31 12.7271 16.666C12.5203 17.0322 12.2563 17.363 11.9451 17.646C11.5624 18.004 11.1291 18.264 10.6584 18.4167C10.1954 18.5677 9.60038 18.6442 8.89088 18.6442H7.45988L7.05138 20.7462C7.04367 20.7858 7.02244 20.8214 6.99134 20.8471C6.96023 20.8727 6.92119 20.8867 6.88088 20.8867H5.04338Z" fill="black"/>
<path d="M8.54757 13.9564H9.52032C10.2971 13.9564 10.5668 14.1269 10.6586 14.2287C10.8103 14.3972 10.8393 14.7529 10.7413 15.2567C10.6316 15.8209 10.4281 16.2212 10.1363 16.4457C9.83782 16.6757 9.35182 16.7922 8.69307 16.7922H7.99657L8.54757 13.9564ZM10.2161 11.9314H6.68282C6.60224 11.9314 6.52418 11.9594 6.46197 12.0106C6.39977 12.0618 6.35729 12.1331 6.34182 12.2122L4.70257 20.6469C4.69288 20.6971 4.69442 20.7489 4.70706 20.7985C4.7197 20.8481 4.74313 20.8942 4.77568 20.9337C4.80823 20.9732 4.8491 21.005 4.89536 21.0269C4.94163 21.0487 4.99215 21.0601 5.04332 21.0602H6.88082C6.96138 21.0601 7.03942 21.032 7.10158 20.9808C7.16373 20.9295 7.20615 20.8582 7.22157 20.7792L7.60282 18.8177H8.89057C9.61857 18.8177 10.2316 18.7382 10.7123 18.5817C11.2066 18.4212 11.6613 18.1489 12.0638 17.7724C12.388 17.4773 12.663 17.1324 12.8786 16.7507C13.0863 16.3789 13.2358 15.9639 13.3223 15.5179C13.5373 14.4122 13.3626 13.5269 12.8033 12.8869C12.2493 12.2527 11.3788 11.9312 10.2161 11.9312V11.9314ZM7.57532 17.1392H8.69307C9.4339 17.1393 9.98557 16.9997 10.3481 16.7204C10.7106 16.4414 10.9554 15.9755 11.0826 15.3227C11.2039 14.6957 11.1485 14.2533 10.9163 13.9957C10.6838 13.738 10.2185 13.6092 9.52032 13.6092H8.26132L7.57532 17.1392ZM10.2163 12.2779C11.2793 12.2779 12.0546 12.5569 12.5421 13.1149C13.0296 13.6729 13.1762 14.4517 12.9821 15.4514C12.9017 15.8634 12.7663 16.2399 12.5758 16.5809C12.385 16.9222 12.1357 17.2345 11.8281 17.5177C11.4614 17.861 11.0537 18.1056 10.6051 18.2514C10.1566 18.3974 9.58515 18.4703 8.89082 18.4702H7.31682L6.88107 20.7127H5.04357L6.68307 12.2779H10.2163Z" fill="white"/>
<path d="M17.3645 18.6443C17.3389 18.6443 17.3136 18.6387 17.2904 18.6278C17.2672 18.6169 17.2468 18.601 17.2304 18.5812C17.2141 18.5614 17.2024 18.5383 17.1961 18.5135C17.1898 18.4886 17.1891 18.4627 17.194 18.4375L17.919 14.7055C17.9883 14.3505 17.9713 14.096 17.8715 13.988C17.8103 13.9223 17.6268 13.812 17.084 13.812H15.77L14.8585 18.504C14.8507 18.5436 14.8294 18.5791 14.7982 18.6047C14.7671 18.6302 14.728 18.6441 14.6878 18.644H12.8653C12.8397 18.6441 12.8144 18.6384 12.7912 18.6275C12.768 18.6166 12.7476 18.6008 12.7313 18.581C12.7149 18.5613 12.7032 18.5382 12.6968 18.5134C12.6905 18.4886 12.6897 18.4627 12.6945 18.4375L14.334 10.0028C14.3418 9.96329 14.363 9.92769 14.3941 9.90211C14.4252 9.87653 14.4643 9.86255 14.5045 9.86255H16.327C16.3526 9.86253 16.3779 9.86817 16.4011 9.87907C16.4242 9.88997 16.4447 9.90585 16.461 9.92558C16.4774 9.94531 16.4891 9.9684 16.4955 9.9932C16.5018 10.018 16.5026 10.0439 16.4978 10.069L16.1023 12.105H17.5155C18.5923 12.105 19.3223 12.2945 19.7475 12.6853C20.1808 13.0835 20.3163 13.7203 20.1495 14.5785L19.3868 18.504C19.379 18.5435 19.3577 18.579 19.3266 18.6046C19.2955 18.6301 19.2565 18.6441 19.2163 18.644L17.3645 18.6443Z" fill="black"/>
<path d="M16.3279 9.68872H14.5051C14.4245 9.68874 14.3464 9.71678 14.2842 9.76804C14.222 9.81931 14.1796 9.8906 14.1641 9.96972L12.5249 18.4042C12.5152 18.4545 12.5167 18.5063 12.5293 18.5559C12.5419 18.6055 12.5653 18.6517 12.5979 18.6912C12.6304 18.7307 12.6713 18.7625 12.7176 18.7844C12.7639 18.8063 12.8144 18.8177 12.8656 18.8177H14.6884C14.769 18.8177 14.8471 18.7897 14.9093 18.7384C14.9715 18.6871 15.014 18.6158 15.0294 18.5367L15.9136 13.9855H17.0841C17.6261 13.9855 17.7401 14.1012 17.7444 14.1065C17.7774 14.1415 17.8206 14.3052 17.7491 14.6725L17.0241 18.4042C17.0144 18.4545 17.0159 18.5063 17.0285 18.5559C17.0412 18.6056 17.0646 18.6518 17.0972 18.6913C17.1298 18.7308 17.1707 18.7626 17.217 18.7845C17.2633 18.8063 17.3139 18.8177 17.3651 18.8177H19.2171C19.2977 18.8176 19.3757 18.7896 19.4379 18.7383C19.5 18.6871 19.5425 18.6158 19.5579 18.5367L20.3206 14.6117C20.4994 13.6902 20.3464 12.9992 19.8656 12.5575C19.4066 12.136 18.6381 11.9312 17.5161 11.9312H16.3136L16.6689 10.1025C16.6786 10.0522 16.6772 10.0003 16.6646 9.95067C16.6519 9.90101 16.6285 9.85475 16.5959 9.81521C16.5633 9.77567 16.5224 9.74382 16.4761 9.72196C16.4297 9.70009 16.3791 9.68874 16.3279 9.68872ZM16.3279 10.0362L15.8921 12.2782H17.5161C18.538 12.2782 19.2427 12.4566 19.6304 12.8132C20.0184 13.1696 20.1349 13.7471 19.9799 14.5457L19.2169 18.4705H17.3651L18.0904 14.7385C18.1729 14.314 18.1425 14.0245 17.9991 13.87C17.8558 13.7156 17.551 13.6385 17.0846 13.6385H15.6274L14.6884 18.4702H12.8654L14.5049 10.0355H16.3279V10.0362Z" fill="white"/>
<path d="M23.0337 16.966C23.732 16.966 24.2532 16.8372 24.5832 16.5835C24.9092 16.332 25.1347 15.8967 25.253 15.2897C25.363 14.7222 25.3212 14.3262 25.128 14.1122C24.931 13.8937 24.5047 13.783 23.8612 13.783H22.7455L22.1267 16.966H23.0337ZM19.3847 20.8867C19.3591 20.8868 19.3337 20.8811 19.3105 20.8702C19.2873 20.8593 19.2668 20.8433 19.2505 20.8235C19.2342 20.8037 19.2225 20.7806 19.2162 20.7557C19.2099 20.7308 19.2093 20.7049 19.2142 20.6797L20.8535 12.2452C20.8612 12.2057 20.8825 12.1701 20.9136 12.1445C20.9447 12.119 20.9837 12.105 21.024 12.105H24.5572C25.6677 12.105 26.4942 12.4065 27.0137 13.0012C27.536 13.5987 27.6972 14.4347 27.493 15.485C27.4148 15.8987 27.2714 16.2973 27.0682 16.666C26.8614 17.0322 26.5974 17.363 26.2862 17.646C25.9037 18.004 25.47 18.264 24.9995 18.4167C24.5365 18.5677 23.9415 18.6442 23.2317 18.6442H21.801L21.3927 20.7462C21.385 20.7858 21.3637 20.8215 21.3326 20.8471C21.3014 20.8728 21.2623 20.8868 21.222 20.8867H19.3847Z" fill="black"/>
<path d="M22.8884 13.9564H23.8611C24.6379 13.9564 24.9076 14.1269 24.9991 14.2287C25.1516 14.3972 25.1801 14.7529 25.0824 15.2567C24.9724 15.8209 24.7689 16.2212 24.4771 16.4457C24.1784 16.6757 23.6924 16.7922 23.0339 16.7922H22.3374L22.8884 13.9564ZM24.5569 11.9314H21.0236C20.9431 11.9315 20.8651 11.9595 20.8029 12.0107C20.7408 12.0619 20.6984 12.1331 20.6829 12.2122L19.0434 20.6469C19.0337 20.6972 19.0352 20.7489 19.0479 20.7985C19.0605 20.8481 19.084 20.8943 19.1166 20.9338C19.1492 20.9733 19.1901 21.0051 19.2364 21.0269C19.2826 21.0488 19.3332 21.0601 19.3844 21.0602H21.2219C21.3025 21.0601 21.3805 21.032 21.4426 20.9808C21.5048 20.9295 21.5472 20.8582 21.5626 20.7792L21.9439 18.8177H23.2314C23.9591 18.8177 24.5724 18.7382 25.0529 18.5817C25.5474 18.4212 26.0021 18.1489 26.4049 17.7722C26.7289 17.4771 27.0039 17.1323 27.2194 16.7507C27.4274 16.3789 27.5764 15.9639 27.6631 15.5179C27.8781 14.4122 27.7036 13.5269 27.1441 12.8869C26.5901 12.2527 25.7199 11.9312 24.5566 11.9312L24.5569 11.9314ZM21.9161 17.1392H23.0336C23.7745 17.1393 24.3263 16.9997 24.6891 16.7204C25.0516 16.4414 25.2963 15.9755 25.4231 15.3227C25.545 14.6957 25.4896 14.2533 25.2569 13.9957C25.0242 13.738 24.559 13.6092 23.8611 13.6092H22.6024L21.9161 17.1392ZM24.5569 12.2779C25.6199 12.2779 26.3951 12.5569 26.8826 13.1149C27.3701 13.6729 27.5167 14.4517 27.3224 15.4514C27.2424 15.8634 27.1071 16.2399 26.9164 16.5809C26.7257 16.9222 26.4764 17.2345 26.1684 17.5177C25.8017 17.861 25.3941 18.1056 24.9454 18.2514C24.4971 18.3974 23.9257 18.4703 23.2314 18.4702H21.6576L21.2214 20.7127H19.3839L21.0234 12.2779H24.5569Z" fill="white"/>
<defs>
<radialGradient id="paint0_radial_676_61742" cx="0" cy="0" r="1" gradientUnits="userSpaceOnUse" gradientTransform="translate(9.6065 10.5423) scale(21.0103)">
<stop stop-color="#AEB2D5"/>
<stop offset="0.3" stop-color="#AEB2D5"/>
<stop offset="0.75" stop-color="#484C89"/>
<stop offset="1" stop-color="#484C89"/>
</radialGradient>
</defs>
</svg>
