<svg width="39" height="32" viewBox="0 0 39 32" fill="none" xmlns="http://www.w3.org/2000/svg">
<g clip-path="url(#clip0_676_61767)">
<path fill-rule="evenodd" clip-rule="evenodd" d="M32.624 2.26765L33.446 3.35527C33.6618 3.64232 33.6079 4.05376 33.3222 4.27064L32.4494 4.93724C32.6081 5.36144 32.7097 5.81435 32.7509 6.27682L33.7444 6.41397C34.0998 6.46181 34.3474 6.79352 34.2998 7.15074L34.1157 8.50627C34.0681 8.86349 33.738 9.11546 33.3825 9.06442L32.2971 8.91452C32.1035 9.33872 31.8559 9.72784 31.5639 10.0755L32.1733 10.8792C32.3891 11.1663 32.332 11.5777 32.0464 11.7946L30.9641 12.6207C30.6784 12.8376 30.269 12.7802 30.0532 12.4963L29.3899 11.6192C28.9646 11.7787 28.5171 11.8807 28.0537 11.9222L27.9172 12.9205C27.8696 13.2777 27.5395 13.5265 27.1841 13.4787L25.8352 13.2937C25.4797 13.2458 25.2321 12.9141 25.2798 12.5569L25.4289 11.4661C25.01 11.2715 24.6196 11.0228 24.2737 10.7325L23.4738 11.3417C23.1882 11.5586 22.7788 11.5044 22.563 11.2173L21.7409 10.1297C21.5251 9.84266 21.5791 9.43121 21.8647 9.21433L22.7375 8.54773C22.5788 8.12034 22.4773 7.67062 22.436 7.20815L21.4426 7.071C21.0871 7.02316 20.8364 6.69146 20.8872 6.33423L21.0713 4.97871C21.122 4.62149 21.4489 4.37271 21.8044 4.42055L22.8899 4.57046C23.0835 4.14944 23.331 3.75714 23.6198 3.40949L23.0136 2.60574C22.7978 2.32188 22.8518 1.91043 23.1374 1.69355L24.2197 0.867475C24.5053 0.650591 24.9148 0.704812 25.1306 0.991865L25.7939 1.86897C26.216 1.7095 26.6667 1.60743 27.1269 1.56597L27.2634 0.567664C27.311 0.210443 27.6411 -0.0415252 27.9966 0.00631694L29.3454 0.191306C29.7009 0.239149 29.9516 0.570854 29.9008 0.928075L29.7517 2.01888C30.1738 2.21343 30.561 2.46221 30.9101 2.75564L31.7099 2.14645C31.9956 1.92638 32.405 1.9806 32.624 2.26765ZM9.41696 21.4077V16.1451H12.1147C12.6162 16.1451 12.997 16.1865 13.2605 16.2758C13.5239 16.3619 13.7397 16.5214 13.8984 16.7542C14.0603 16.9903 14.1428 17.2741 14.1428 17.609C14.1428 17.8993 14.0793 18.1544 13.9555 18.3649C13.8318 18.5786 13.6604 18.7509 13.4445 18.8816C13.3081 18.9646 13.1176 19.0347 12.8764 19.0889C13.07 19.1559 13.2097 19.2165 13.2954 19.2835C13.3557 19.3282 13.4414 19.4207 13.5525 19.561C13.6635 19.7013 13.7397 19.813 13.7778 19.8895L14.5649 21.4109H12.7368L11.8735 19.8066C11.7624 19.5993 11.6672 19.4621 11.5815 19.4015C11.4641 19.3218 11.3308 19.2803 11.1848 19.2803H11.042V21.4109H9.41696V21.4077ZM15.1235 30.5711H12.102L11.6672 31.9999H8.94406L12.1909 23.3278H15.1108L18.3449 31.9999H15.552L15.1235 30.5711ZM14.5586 28.6925L13.6159 25.5731L12.6701 28.6925H14.5586ZM18.9734 23.3278H23.4104C24.3784 23.3278 25.102 23.5574 25.5813 24.0199C26.0605 24.4823 26.3017 25.1426 26.3017 25.9942C26.3017 26.8713 26.0383 27.557 25.5146 28.0514C24.9909 28.5457 24.188 28.7913 23.112 28.7913H21.6489V31.9999H18.9734V23.3278ZM21.6489 27.0339H22.3059C22.8232 27.0339 23.1882 26.9446 23.3977 26.7628C23.6071 26.5842 23.7119 26.3514 23.7119 26.0739C23.7119 25.8028 23.6198 25.57 23.4389 25.3818C23.258 25.1936 22.9153 25.0979 22.4138 25.0979H21.6489V27.0339ZM27.3808 23.3278H30.0564V31.9999H27.3808V23.3278ZM11.042 18.282H11.7243C11.7973 18.282 11.9402 18.2565 12.1528 18.2086C12.2607 18.1863 12.3496 18.1321 12.4162 18.0428C12.4861 17.9535 12.5178 17.8514 12.5178 17.7366C12.5178 17.5676 12.4638 17.4336 12.3559 17.3443C12.248 17.2518 12.0481 17.2072 11.7529 17.2072H11.042V18.282ZM14.8759 16.1451H19.2082V17.2678H16.5009V18.1066H19.0114V19.1782H16.5009V20.2148H19.2876V21.4045H14.8759V16.1451ZM19.6716 19.6662L21.2077 19.5706C21.2395 19.8225 21.3093 20.0107 21.4109 20.1415C21.5791 20.352 21.8171 20.4604 22.125 20.4604C22.3535 20.4604 22.5344 20.4062 22.6582 20.2978C22.782 20.1893 22.8454 20.0617 22.8454 19.9182C22.8454 19.7811 22.7851 19.6599 22.6677 19.5514C22.5503 19.443 22.2741 19.3441 21.8393 19.2452C21.1316 19.0858 20.6269 18.8721 20.3222 18.6073C20.0175 18.3426 19.8652 18.0045 19.8652 17.5931C19.8652 17.322 19.9446 17.0668 20.1001 16.8276C20.2556 16.5884 20.4904 16.397 20.8047 16.2599C21.1189 16.1227 21.5473 16.0558 22.0932 16.0558C22.7629 16.0558 23.2707 16.1801 23.623 16.4321C23.9721 16.6841 24.1816 17.0796 24.2483 17.6282L22.728 17.7207C22.6867 17.4814 22.601 17.306 22.4741 17.2008C22.344 17.0923 22.1631 17.0381 21.9377 17.0381C21.7505 17.0381 21.6076 17.0796 21.5124 17.1593C21.4172 17.239 21.3696 17.3379 21.3696 17.4527C21.3696 17.5357 21.4109 17.609 21.487 17.6792C21.5632 17.7462 21.7409 17.8132 22.0266 17.8738C22.7343 18.0268 23.2422 18.1831 23.5468 18.3394C23.8515 18.4957 24.0769 18.6903 24.2133 18.9231C24.353 19.1527 24.4228 19.4143 24.4228 19.7013C24.4228 20.0394 24.3308 20.3488 24.1435 20.6327C23.9594 20.9165 23.6992 21.1334 23.3659 21.2801C23.0327 21.4268 22.6137 21.5002 22.1059 21.5002C21.2173 21.5002 20.5984 21.328 20.2556 20.9835C19.9128 20.6327 19.7192 20.1957 19.6716 19.6662ZM24.6577 16.1451H29.5803V17.4464H27.9299V21.4077H26.3112V17.4464H24.6577V16.1451ZM19.2114 3.65508C18.6306 3.61042 18.0434 3.6168 17.4626 3.67421C15.6758 3.84644 13.9397 4.50029 12.5051 5.61979C10.8452 6.91153 9.58517 8.84435 9.09958 11.4055L8.94723 12.2061L8.15378 12.3464C7.37619 12.4835 6.68112 12.6717 6.07174 12.9109C5.48141 13.1406 4.95456 13.4244 4.49435 13.7593C4.12619 14.0272 3.80881 14.3271 3.53903 14.6524C2.70431 15.6571 2.31711 16.9169 2.32663 18.1927C2.33615 19.4876 2.75509 20.7953 3.52951 21.8702C3.81833 22.2689 4.15158 22.6356 4.53244 22.9546C4.91965 23.2767 5.35446 23.5446 5.84323 23.7456C6.11935 23.8604 6.41452 23.9561 6.72238 24.0326V26.4215C6.08761 26.3067 5.50363 26.1345 4.95773 25.908C4.23727 25.6082 3.59933 25.2223 3.03757 24.7503C2.50436 24.3037 2.03781 23.7966 1.64108 23.2448C0.584196 21.7777 0.0129068 19.9852 0.000211484 18.1991C-0.0124838 16.3938 0.54611 14.5982 1.75216 13.1438C2.14255 12.6717 2.60275 12.238 3.12961 11.8552C3.74216 11.4087 4.44357 11.0323 5.23703 10.723C5.78293 10.5093 6.36691 10.3306 6.98263 10.1871C7.68088 7.39952 9.1694 5.253 11.0832 3.76352C12.8733 2.36972 15.0283 1.5564 17.2468 1.34271C18.4116 1.23108 19.5923 1.28211 20.7475 1.49899C20.7221 1.60424 20.6999 1.7095 20.6872 1.81794L20.684 1.83708C20.6618 2.01888 20.6523 2.20068 20.6618 2.38567C20.4174 2.48135 20.1889 2.61212 19.9826 2.77159L19.9731 2.77797C19.6653 3.0108 19.405 3.31061 19.2114 3.65508ZM36.0041 9.77887C36.1819 9.94153 36.3532 10.1106 36.5215 10.2924C36.8611 10.6592 37.1816 11.0738 37.4831 11.5363C38.4987 13.1055 39.0193 15.201 38.997 17.2518C38.9748 19.2644 38.4353 21.2674 37.3308 22.7409C36.6103 23.7009 35.6867 24.4855 34.5791 25.1075C33.8205 25.5349 32.9668 25.8889 32.0368 26.176V23.7041C32.5383 23.5159 33.0049 23.3054 33.4333 23.0662C34.268 22.5974 34.9504 22.0265 35.4614 21.3407C36.2549 20.2786 36.6452 18.7764 36.6611 17.2359C36.6801 15.6188 36.2866 13.9954 35.5217 12.8152C35.3027 12.474 35.0615 12.1678 34.8076 11.8935C34.7092 11.7882 34.6108 11.6894 34.5092 11.5937C34.5251 11.4342 34.5315 11.2715 34.5219 11.1089C34.7663 11.0132 34.9948 10.8824 35.2011 10.723L35.2107 10.7166C35.5376 10.4646 35.8105 10.1457 36.0041 9.77887ZM27.9553 4.08247C29.4184 4.2834 30.4404 5.63893 30.2404 7.10928C30.0405 8.57962 28.6916 9.60982 27.2285 9.40889C25.7654 9.20795 24.7402 7.85242 24.9433 6.38208C25.1465 4.91173 26.4922 3.88153 27.9553 4.08247Z" fill="#01B5E6"/>
</g>
<defs>
<clipPath id="clip0_676_61767">
<rect width="39" height="32" fill="white"/>
</clipPath>
</defs>
</svg>
