<svg width="32" height="32" viewBox="0 0 32 32" fill="none" xmlns="http://www.w3.org/2000/svg">
<g clip-path="url(#clip0_676_61795)">
<path d="M1.84342 20.2335C1.18717 18.1895 0.998665 16.0312 1.37666 13.8107C1.54067 12.8897 1.79366 12.006 2.07091 11.1105C2.07091 11.1105 3.81217 5.39472 9.70467 2.78247C9.70467 2.78247 11.7359 1.70997 14.7897 1.63497C14.7897 1.63497 14.3737 1.23072 14.1082 1.05397C12.6697 0.0949699 10.5252 -0.22053 9.22542 1.13022C8.83367 1.53347 8.50542 1.97572 8.14042 2.37922C7.72342 2.83322 7.21842 3.21222 6.63842 3.42597C6.13342 3.61547 5.62842 3.57747 5.11192 3.66622C4.58192 3.75422 4.03867 3.94372 3.61017 4.28447C3.14317 4.66347 2.95391 5.16722 2.90391 5.74822C2.85316 6.20247 2.86592 6.66922 2.84042 7.12322C2.77717 8.46122 2.34842 8.83922 1.38942 9.58422C0.985915 9.88697 0.645165 10.2902 0.392165 10.72C-0.364585 12.057 0.847165 13.4445 0.909665 14.7952C0.922665 15.0727 0.897165 15.35 0.796665 15.6155C0.694915 15.9055 0.493915 16.095 0.329665 16.3342C0.102165 16.65 -0.049085 17.0287 0.014665 17.4192C0.077165 17.811 0.279165 18.177 0.468665 18.518C0.834915 19.1235 1.28892 19.6655 1.76867 20.183C1.79367 20.183 1.81842 20.2082 1.84367 20.2337" fill="#E32186"/>
<path d="M25.9197 25.0774C28.8219 23.8156 30.0584 21.6331 30.0584 21.6331C32.7714 17.9359 31.8504 14.0374 31.8504 14.0374C30.1219 17.7971 28.5437 18.8324 28.5437 18.8324C32.7967 12.3586 28.5692 8.44763 28.5692 8.44763C30.2977 12.1321 28.0017 16.6234 28.0017 16.6234C26.0709 20.6869 23.3327 22.1381 23.3327 22.1381C26.3864 22.7056 28.6327 20.6489 28.6327 20.6489C24.2534 25.3804 19.5094 25.1539 19.5094 25.1539C21.5037 27.3874 24.4939 27.1979 24.4939 27.1979C20.5827 28.1186 16.9109 26.8189 13.8952 24.3079C13.324 23.8395 12.7845 23.3339 12.2802 22.7944C12.2802 22.7944 11.8259 22.3149 11.7369 22.1889L11.7244 22.1764C11.6619 24.5101 14.0964 26.6801 14.0964 26.6801C11.0427 25.4186 9.64241 22.6801 9.64241 22.6801C9.64241 22.6801 7.58566 19.1726 9.07491 15.1734C10.5632 11.1734 15.0682 10.3149 15.0682 10.3149C18.7909 12.1199 21.9452 12.6871 21.9452 12.6871C28.5947 13.7974 28.2167 10.5426 28.2167 10.5426C28.2792 7.74088 24.0527 4.76338 24.0527 4.76338C16.5194 -0.826617 9.70591 2.78188 9.70591 2.78188C3.81341 5.39413 2.07216 11.1099 2.07216 11.1099C1.79466 12.0054 1.54216 12.8891 1.37791 13.8099C0.73441 17.5581 1.70591 21.1031 3.81341 24.2584C7.09366 29.1539 12.4189 30.8444 12.4189 30.8444C20.3047 33.5191 25.6924 29.5826 25.6924 29.5826C30.6514 26.1751 31.6484 22.2389 31.6484 22.2389C27.6484 25.3689 25.9199 25.0776 25.9199 25.0776L25.9197 25.0774ZM19.7624 6.66813C19.852 6.6678 19.9407 6.68522 20.0235 6.71937C20.1064 6.75353 20.1816 6.80375 20.2449 6.86714C20.3082 6.93052 20.3583 7.00582 20.3923 7.08867C20.4263 7.17153 20.4436 7.26031 20.4432 7.34988C20.4436 7.43938 20.4262 7.52807 20.3921 7.61083C20.3581 7.69358 20.3079 7.76877 20.2446 7.83204C20.1813 7.89532 20.1061 7.94542 20.0234 7.97946C19.9406 8.01351 19.8519 8.03081 19.7624 8.03038C19.6729 8.03085 19.5841 8.01357 19.5013 7.97955C19.4184 7.94553 19.3431 7.89544 19.2798 7.83218C19.2164 7.76891 19.1661 7.69372 19.132 7.61094C19.0978 7.52816 19.0804 7.43944 19.0807 7.34988C19.0802 7.26023 19.0976 7.17139 19.1317 7.08848C19.1658 7.00557 19.216 6.93024 19.2794 6.86685C19.3428 6.80346 19.4181 6.75326 19.501 6.71915C19.5839 6.68504 19.6728 6.6677 19.7624 6.66813Z" fill="url(#paint0_linear_676_61795)"/>
<path d="M28.2026 10.5302C28.2651 7.72846 24.0386 4.75096 24.0386 4.75096C16.5054 -0.826286 9.69189 2.78221 9.69189 2.78221C3.79939 5.39446 2.05814 11.1102 2.05814 11.1102C1.71739 12.082 1.41464 13.5712 1.41464 13.5712C1.04839 15.4385 1.21239 17.167 1.21239 17.167C1.36389 18.8202 1.72989 19.9307 1.72989 19.9307C2.10889 21.1162 2.28489 21.4825 2.28489 21.4825C2.27289 21.4442 2.20964 21.167 2.20964 21.167C2.20964 21.167 1.67914 18.6182 2.17139 16.17C2.17139 16.17 2.60014 13.6212 4.34239 11.6535C4.34239 11.6535 7.16864 7.62796 12.4304 9.20521C12.4304 9.20521 13.5661 9.60946 13.9566 9.81071C14.3484 10.0002 15.0291 10.2902 15.0291 10.2902C18.7516 12.095 21.9059 12.6622 21.9059 12.6622C28.5809 13.7852 28.2029 10.5305 28.2029 10.5305L28.2026 10.5302ZM19.7611 8.04396C19.6716 8.04443 19.5828 8.02714 19.4999 7.99311C19.4171 7.95907 19.3418 7.90896 19.2784 7.84567C19.215 7.78238 19.1648 7.70716 19.1306 7.62435C19.0965 7.54154 19.0791 7.45279 19.0794 7.36321C19.079 7.27357 19.0963 7.18472 19.1304 7.10181C19.1645 7.0189 19.2147 6.94358 19.2781 6.88019C19.3415 6.81679 19.4168 6.76659 19.4997 6.73248C19.5826 6.69837 19.6715 6.68103 19.7611 6.68146C19.8507 6.68113 19.9395 6.69855 20.0223 6.7327C20.1051 6.76686 20.1803 6.81708 20.2436 6.88047C20.3069 6.94385 20.357 7.01915 20.391 7.10201C20.4251 7.18486 20.4423 7.27364 20.4419 7.36321C20.4423 7.45273 20.425 7.54145 20.3909 7.62423C20.3569 7.70702 20.3068 7.78224 20.2435 7.84554C20.1802 7.90884 20.1049 7.95896 20.0222 7.99302C19.9394 8.02708 19.8507 8.04439 19.7611 8.04396Z" fill="url(#paint1_radial_676_61795)"/>
<path d="M15.4461 5.45802L11.1433 4.12002C11.1178 4.12002 10.9921 4.05652 10.7643 4.12002C10.7643 4.12002 8.22808 4.76377 8.66983 6.15127C8.66983 6.15127 8.93533 7.02252 9.65408 7.86727L14.3856 7.64052L15.4461 5.45802Z" fill="url(#paint2_linear_676_61795)"/>
</g>
<defs>
<linearGradient id="paint0_linear_676_61795" x1="4.85879" y1="29.3687" x2="20.5599" y2="12.665" gradientUnits="userSpaceOnUse">
<stop stop-color="#DF1C84"/>
<stop offset="0.401" stop-color="#DE1C85"/>
<stop offset="0.77" stop-color="#932C86"/>
<stop offset="1" stop-color="#5C2F87"/>
</linearGradient>
<radialGradient id="paint1_radial_676_61795" cx="0" cy="0" r="1" gradientUnits="userSpaceOnUse" gradientTransform="translate(22.1416 8.23375) rotate(0.136224) scale(15.341 12.8279)">
<stop stop-color="#DF1C84"/>
<stop offset="0.139" stop-color="#DE1E85"/>
<stop offset="0.285" stop-color="#D62085"/>
<stop offset="0.434" stop-color="#C82286"/>
<stop offset="0.586" stop-color="#B72786"/>
<stop offset="0.739" stop-color="#9C2A86"/>
<stop offset="0.891" stop-color="#7C2E87"/>
<stop offset="1" stop-color="#5C2F87"/>
</radialGradient>
<linearGradient id="paint2_linear_676_61795" x1="8.60852" y1="5.97958" x2="15.4422" y2="5.97958" gradientUnits="userSpaceOnUse">
<stop stop-color="#DF1C84"/>
<stop offset="0.238" stop-color="#D91E85"/>
<stop offset="0.658" stop-color="#C72085"/>
<stop offset="0.999" stop-color="#B42184"/>
</linearGradient>
<clipPath id="clip0_676_61795">
<rect width="32" height="32" fill="white"/>
</clipPath>
</defs>
</svg>
