<svg width="180" height="180" viewBox="0 0 180 180" fill="none" xmlns="http://www.w3.org/2000/svg">
<path d="M88.1562 106.406V106.007L87.767 105.919C84.4167 105.157 81.4493 103.637 78.8582 101.354C76.4308 98.9229 74.8405 96.0415 74.0813 92.7017L73.9928 92.3125H73.5937H65.1562C62.3509 92.3125 59.124 93.6281 55.4958 96.1523C51.8682 98.6751 48.4031 101.748 45.0995 105.366C41.8459 108.929 38.6094 111.544 35.3929 113.229L35.3929 113.229L35.384 113.234C32.3426 114.907 28.8339 115.75 24.8438 115.75C17.9477 115.75 12.141 113.305 7.39308 108.405C2.80296 103.507 0.5 97.3842 0.5 90C0.5 82.6155 2.80302 76.4926 7.39328 71.5949C12.1412 66.6952 17.9478 64.25 24.8438 64.25C31.2721 64.25 36.7704 66.54 41.3652 71.1348C46.0582 75.8278 50.2852 79.8201 54.0458 83.1107C57.8466 86.4364 61.5531 88.1562 65.1562 88.1562H73.5937H73.9967L74.0823 87.7624C74.8437 84.2601 76.437 81.384 78.8576 79.1148L78.8583 79.1141C81.4475 76.6772 84.4075 75.1614 87.7457 74.5544L88.1562 74.4797V74.0624V65.625C88.1562 63.4684 87.3285 61.0728 85.7401 58.4518C84.1496 55.8275 81.7763 52.9442 78.6348 49.8027L73.7129 44.8808C67.3747 38.5426 64.25 31.8662 64.25 24.8438C64.25 17.9467 66.6957 12.2206 71.592 7.63039L71.5924 7.63004C76.652 2.87699 82.7781 0.5 90 0.5C97.3809 0.5 103.503 2.87876 108.402 7.62472L108.75 7.26562L108.402 7.62475C113.306 12.3757 115.75 18.1061 115.75 24.8438C115.75 32.6292 111.939 40.0038 104.197 46.9721L104.193 46.9758C100.268 50.5864 97.3055 53.9394 95.3212 57.0349C93.3383 60.1281 92.3125 62.9956 92.3125 65.625V74.0624V74.483L92.7268 74.555C96.221 75.1628 99.0897 76.6764 101.354 79.092L101.365 79.1037L101.377 79.1148C103.793 81.3793 105.306 84.2477 105.913 87.7418L105.986 88.1562H106.406H114.844C120.393 88.1562 126.616 84.0129 133.502 76.0316C140.476 68.1286 147.693 64.25 155.156 64.25C162.048 64.25 167.773 66.7698 172.364 71.8207L172.37 71.8266L172.375 71.8323C177.123 76.7335 179.5 82.7782 179.5 90C179.5 97.3809 177.121 103.503 172.375 108.402L172.734 108.75L172.375 108.402C167.624 113.306 161.894 115.75 155.156 115.75C148.723 115.75 143.304 113.534 138.869 109.1C134.331 104.561 130.101 100.644 126.181 97.3518L126.181 97.3517C122.226 94.0302 118.445 92.3125 114.844 92.3125H106.406H105.983L105.913 92.7303C105.302 96.397 103.896 99.3032 101.717 101.482C99.5364 103.663 96.5477 105.149 92.7145 105.916L92.3125 105.996V106.406V114.844C92.3125 117.322 93.3429 120.094 95.3228 123.143C97.3056 126.197 100.266 129.568 104.189 133.255C111.944 140.546 115.75 147.844 115.75 155.156C115.75 162.048 113.23 167.773 108.179 172.364L108.174 172.37L108.168 172.375C103.266 177.123 97.222 179.5 90 179.5C82.6188 179.5 76.497 177.121 71.5979 172.375C66.6937 167.624 64.25 161.894 64.25 155.156C64.25 151.319 65.0171 147.88 66.541 144.833C68.0674 141.78 70.7564 138.389 74.6396 134.661C78.716 130.898 81.9428 127.359 84.3114 124.043C86.8339 120.575 88.1562 117.5 88.1562 114.844V106.406Z" stroke="#2696A8"/>
</svg>
