<svg width="180" height="180" viewBox="0 0 180 180" fill="none" xmlns="http://www.w3.org/2000/svg">
<path d="M174.831 100.133C158.851 114.397 126.838 137.989 89.9995 137.989C53.1611 137.989 21.1481 114.397 5.16743 100.133C-1.05581 94.5778 -1.05581 85.3115 5.16742 79.7567C21.1481 65.4925 53.1611 41.9 89.9995 41.9C126.838 41.9 158.851 65.4925 174.831 79.7566C181.054 85.3115 181.054 94.5778 174.831 100.133ZM89.9995 124.313C108.981 124.313 124.368 108.926 124.368 89.9445C124.368 70.9634 108.981 55.5762 89.9995 55.5762C71.0183 55.5762 55.6312 70.9634 55.6312 89.9445C55.6312 108.926 71.0183 124.313 89.9995 124.313Z" stroke="#2696A8"/>
</svg>
