<svg width="201" height="203" viewBox="0 0 201 203" fill="none" xmlns="http://www.w3.org/2000/svg">
<g filter="url(#filter0_f_0_1197)">
<path fill-rule="evenodd" clip-rule="evenodd" d="M82.3373 23.5314C81.9039 23.6224 81.3372 24.7061 80.6868 26.6866C73.8691 47.4526 74.3768 71.2839 82.0801 92.0849C91.7033 118.069 110.811 138.495 135.955 149.675C140.848 151.85 144.554 153.171 144.554 152.738C144.554 152.566 143.48 151.207 142.167 149.718C134.796 141.36 128.085 130.197 122.847 117.587C121.426 114.163 118.783 105.572 117.813 101.221C115.674 91.6297 115.473 89.4542 115.459 75.8029C115.446 64.1308 115.521 62.6537 116.337 58.3439C117.503 52.1889 118.945 46.283 120.4 41.7013L121.573 38.0055L120.654 37.2911C118.162 35.3529 105.696 29.5295 99.9984 27.6415C91.3339 24.7704 84.2653 23.1254 82.3373 23.5314ZM54.8569 76.1944C44.6405 76.7394 31.7226 79.3908 25.9023 82.1368C24.3507 82.8692 24.1764 83.0886 24.1764 84.3083C24.1764 87.1167 27.8166 99.5585 30.4411 105.72C32.0564 109.512 33.9914 113.526 34.5538 114.252C34.8047 114.576 35.5665 115.874 36.2461 117.136C40.6071 125.237 50.6371 136.912 59.1557 143.802C72.3171 154.447 87.0265 161.35 104.688 165.172C109.485 166.21 109.813 166.228 122.667 166.173C135.619 166.117 140.968 165.681 141.304 164.653C141.376 164.43 139.836 163.666 137.881 162.955C127.462 159.17 113.554 151.274 105.688 144.677C87.1669 129.145 74.5116 109.773 68.381 87.573C67.9342 85.9546 67.1319 82.7967 66.5984 80.5556C66.0649 78.3142 65.549 76.4008 65.4521 76.3035C65.089 75.9386 60.5291 75.8915 54.8569 76.1944ZM30.9335 139.51C22.3789 144.44 17.0335 148.609 9.17261 156.482C1.89917 163.767 2.15087 163.301 4.28209 165.532C5.2283 166.523 6.24525 167.637 6.5419 168.009C8.44722 170.395 14.3488 175.906 18.6777 179.342C25.5095 184.764 37.2815 191.321 45.8677 194.487C64.1396 201.224 85.5941 202.346 104.884 197.574C117.906 194.352 131.879 187.504 142.303 179.234C143.97 177.912 145.334 176.695 145.334 176.531C145.335 176.23 143.501 176.407 140.254 177.021C132.935 178.407 114.754 178.532 106.907 177.251C85.1302 173.695 66.7516 165.422 50.7531 151.977C45.643 147.681 41.8929 144.04 39.0281 140.591C37.4159 138.651 35.912 137.05 35.6861 137.035C35.4602 137.02 33.3215 138.133 30.9335 139.51Z" stroke="url(#paint0_linear_0_1197)" stroke-opacity="0.5"/>
</g>
<path fill-rule="evenodd" clip-rule="evenodd" d="M156.956 4.29941C143.274 17.7593 134.072 33.7357 129.745 51.5415C127.294 61.6308 127.172 62.7878 127.169 76.1952C127.167 86.4634 127.287 89.2172 127.879 92.4771C131.812 114.147 140.255 131.066 154.601 146.026L159.283 150.908L159.567 122.752C159.723 107.266 159.993 93.6879 160.168 92.5776C160.533 90.2636 161.366 89.3851 163.84 88.7084C166.173 88.07 168.19 88.8519 169.845 91.0365L171.131 92.7341L171.149 121.835L171.167 150.935L173.337 148.581C183.969 137.048 191.958 123.21 196.156 109.059C198.898 99.8174 200.037 92.4885 200.32 82.2764C200.991 57.9852 193.397 35.1269 178.474 16.5203C174.18 11.1673 162.848 0.0817871 161.669 0.0817871C161.435 0.0817871 159.314 1.97952 156.956 4.29941Z" fill="url(#paint1_linear_0_1197)" fill-opacity="0.5"/>
<defs>
<filter id="filter0_f_0_1197" x="0.474121" y="20.9704" width="147.36" height="182.02" filterUnits="userSpaceOnUse" color-interpolation-filters="sRGB">
<feFlood flood-opacity="0" result="BackgroundImageFix"/>
<feBlend mode="normal" in="SourceGraphic" in2="BackgroundImageFix" result="shape"/>
<feGaussianBlur stdDeviation="1" result="effect1_foregroundBlur_0_1197"/>
</filter>
<linearGradient id="paint0_linear_0_1197" x1="101.667" y1="0.0817816" x2="101.667" y2="200.491" gradientUnits="userSpaceOnUse">
<stop stop-color="#52B69A"/>
<stop offset="0.495" stop-color="#2696A8"/>
<stop offset="1" stop-color="#168AAD"/>
</linearGradient>
<linearGradient id="paint1_linear_0_1197" x1="101.668" y1="0.0817871" x2="101.668" y2="200.491" gradientUnits="userSpaceOnUse">
<stop stop-color="#52B69A"/>
<stop offset="0.495" stop-color="#2696A8"/>
<stop offset="1" stop-color="#168AAD"/>
</linearGradient>
</defs>
</svg>
