<svg width="180" height="180" viewBox="0 0 180 180" fill="none" xmlns="http://www.w3.org/2000/svg">
<path d="M70.2 0.5C80.8591 0.5 89.5 9.14091 89.5 19.8V69.5525C89.5 80.7639 98.5889 89.8524 109.8 89.8524H160.2C170.859 89.8524 179.5 98.4932 179.5 109.152V160.2C179.5 170.859 170.859 179.5 160.2 179.5H109.8C99.1411 179.5 90.5 170.859 90.5 160.2V110.447C90.5 99.236 81.4114 90.1471 70.2 90.1471H19.8C9.1409 90.1471 0.5 81.5066 0.5 70.8475V19.8C0.5 9.14089 9.14091 0.5 19.8 0.5H70.2Z" stroke="#2696A8"/>
</svg>
