<svg width="182" height="182" viewBox="0 0 182 182" fill="none" xmlns="http://www.w3.org/2000/svg">
<path fill-rule="evenodd" clip-rule="evenodd" d="M91 31.2804C84.4964 31.2804 79.2243 36.5525 79.2243 43.0561H48.9439C48.9439 19.8292 67.7731 1 91 1C114.227 1 133.056 19.8292 133.056 43.0561C133.056 66.283 114.227 85.1121 91 85.1121V54.8318C97.5034 54.8318 102.776 49.5596 102.776 43.0561C102.776 36.5525 97.5034 31.2804 91 31.2804ZM150.719 91C150.719 84.4964 145.447 79.2243 138.944 79.2243V48.9439C162.171 48.9439 181 67.7731 181 91C181 114.227 162.171 133.056 138.944 133.056C115.717 133.056 96.8878 114.227 96.8878 91H127.168C127.168 97.5034 132.44 102.776 138.944 102.776C145.447 102.776 150.719 97.5034 150.719 91ZM43.0561 102.776C36.5525 102.776 31.2804 97.5034 31.2804 91C31.2804 84.4964 36.5525 79.2243 43.0561 79.2243C49.5596 79.2243 54.8318 84.4964 54.8318 91H85.1121C85.1121 67.7731 66.283 48.9439 43.0561 48.9439C19.8292 48.9439 1 67.7731 1 91C1 114.227 19.8292 133.056 43.0561 133.056V102.776ZM91 150.719C97.5034 150.719 102.776 145.447 102.776 138.944H133.056C133.056 162.171 114.227 181 91 181C67.7731 181 48.9439 162.171 48.9439 138.944C48.9439 115.717 67.7731 96.8878 91 96.8878V127.168C84.4964 127.168 79.2243 132.44 79.2243 138.944C79.2243 145.447 84.4964 150.719 91 150.719Z" stroke="#2696A8"/>
</svg>
