<svg width="383" height="411" viewBox="0 0 383 411" fill="none" xmlns="http://www.w3.org/2000/svg">
<g filter="url(#filter0_f_41_388)">
<path d="M212.794 84.6445C215.161 133.884 217.436 121.597 212.794 172.657H253.114C248.564 123.053 249.747 134.867 253.387 84.6445H212.794ZM315.46 22.7539C319.647 51.4329 318.737 79.9845 315.096 108.309H355.234C353.049 79.7934 353.049 51.2691 355.234 22.7539H315.46ZM421.493 55.9382C421.493 55.9382 383.813 63.0465 372.8 77.6545C369.887 81.8504 367.43 88.8677 370.069 93.291C372.891 97.6598 379.808 97.8418 384.45 96.2945C401.106 90.8336 421.493 55.9382 421.493 55.9382ZM157.457 97.2957C157.457 97.2957 168.379 136.159 183.032 145.625C187.219 148.446 194.136 149.812 197.868 146.262C201.599 142.712 200.962 135.34 199.142 130.607C192.043 113.588 157.457 97.2957 157.457 97.2957ZM395.372 103.576C391.185 103.667 387.271 104.122 383.995 105.214C378.261 107.216 371.162 112.586 371.435 118.593C371.526 124.6 378.898 129.515 384.905 131.154C406.385 136.796 449.981 116.045 449.981 116.045C449.981 116.045 417.944 103.303 395.372 103.576ZM315.096 124.691C320.739 168.106 321.558 211.247 315.278 253.934H355.143C351.502 210.792 351.957 167.651 355.325 124.691H315.096ZM376.441 141.893C374.438 141.984 372.527 142.621 371.071 143.987C367.339 147.536 367.976 154.909 369.796 159.641C376.896 176.661 411.482 192.953 411.482 192.953C411.482 192.953 400.56 154.089 385.906 144.624C383.54 143.077 380.354 141.893 377.26 141.893H376.441ZM144.351 153.088C132.428 153.27 123.235 154.271 123.235 154.271C123.235 154.271 159.914 185.763 182.122 185.945C188.22 185.854 196.685 183.123 198.323 177.389C200.234 171.655 194.864 164.556 189.676 161.098C180.484 154.909 163.828 153.27 149.539 153.088H144.351ZM47.1551 185.945C51.1689 224.263 50.9049 230.361 47.1551 268.496H87.5842C84.0346 229.996 83.4885 223.807 87.6843 185.945H47.1551ZM212.521 182.941C215.525 230.361 215.707 278.235 212.521 326.746H253.114C248.564 278.053 249.747 230.27 253.387 182.941H212.521ZM119.685 269.133C113.587 269.315 106.033 271.955 104.304 277.325C102.392 282.968 107.58 290.158 112.586 293.707C130.698 306.45 178.846 302.263 178.846 302.263C178.846 302.263 143.076 269.861 120.869 269.133H119.685ZM314.641 270.316C317.189 303.537 317.917 336.94 314.823 370.434H354.779C350.592 335.848 353.232 302.809 355.325 270.316H314.641ZM46.973 284.879C50.5773 337.85 49.4487 390.639 46.791 443.246H87.9392C85.6729 390.73 83.7889 337.941 87.6843 284.879H46.973ZM437.512 325.108C437.512 325.108 389.365 329.75 373.892 345.586C369.705 349.955 365.792 358.055 368.795 363.243C371.617 368.522 380.445 369.523 386.543 368.249C408.205 363.516 437.512 325.108 437.512 325.108ZM212.976 343.129C216.253 376.532 213.341 410.389 212.339 443.246H253.478C251.931 410.663 248.291 377.351 252.75 343.129H212.976ZM378.625 384.086C373.892 384.086 368.522 386.179 367.066 390.366C365.337 395.19 369.25 401.47 373.073 404.928C387.089 416.761 425.316 415.486 425.316 415.486C425.316 415.486 397.92 385.906 380.536 384.177C379.899 384.086 379.262 384.086 378.625 384.086ZM314.914 386.816C316.825 405.293 317.917 424.133 315.46 443.246H354.415C351.866 424.042 353.141 405.202 355.052 386.816H314.914Z" stroke="url(#paint0_radial_41_388)" stroke-width="3"/>
</g>
<defs>
<filter id="filter0_f_41_388" x="-2" y="-2" width="470" height="470" filterUnits="userSpaceOnUse" color-interpolation-filters="sRGB">
<feFlood flood-opacity="0" result="BackgroundImageFix"/>
<feBlend mode="normal" in="SourceGraphic" in2="BackgroundImageFix" result="shape"/>
<feGaussianBlur stdDeviation="1" result="effect1_foregroundBlur_41_388"/>
</filter>
<radialGradient id="paint0_radial_41_388" cx="0" cy="0" r="1" gradientUnits="userSpaceOnUse" gradientTransform="translate(248.386 233) rotate(90) scale(210.246 201.595)">
<stop stop-color="#52B69A" stop-opacity="0.1"/>
<stop offset="0.495" stop-color="#2696A8" stop-opacity="0.04"/>
<stop offset="1" stop-color="#168AAD" stop-opacity="0.01"/>
</radialGradient>
</defs>
</svg>
