<svg width="32" height="32" viewBox="0 0 32 32" fill="none" xmlns="http://www.w3.org/2000/svg">
<path d="M8.56211 15.256C10.9503 16.0945 13.4694 16.4985 16.0001 16.449C18.5308 16.4982 21.0499 16.0938 23.4381 15.255C25.3021 14.528 25.9631 13.72 25.9631 13.255V9.69995C25.3112 10.1361 24.6121 10.497 23.8791 10.776C21.3525 11.6805 18.6834 12.1216 16.0001 12.078C13.3171 12.12 10.6484 11.6797 8.12111 10.778C7.38765 10.4992 6.68845 10.1375 6.03711 9.69995V13.25C6.03711 13.724 6.70011 14.528 8.56211 15.256ZM8.56211 21.961C9.4057 22.2827 10.2756 22.5307 11.1621 22.702C12.7562 23.0097 14.3766 23.1614 16.0001 23.155C17.6236 23.1617 19.2439 23.0104 20.8381 22.703C21.7246 22.5317 22.5945 22.2837 23.4381 21.962C25.3021 21.235 25.9631 20.427 25.9631 19.962V16.572C25.4244 16.8961 24.8583 17.1722 24.2711 17.397C21.6168 18.3365 18.8153 18.7914 16.0001 18.74C13.1846 18.7898 10.3831 18.3332 7.72911 17.392C7.14257 17.1658 6.5765 16.8898 6.03711 16.567V19.96C6.03711 20.426 6.70011 21.231 8.56211 21.961ZM16.0001 30C21.5001 30 25.9631 28.256 25.9631 26.106V23.269C25.4731 23.5644 24.9597 23.8192 24.4281 24.031L24.2711 24.094C21.6173 25.0362 18.8158 25.4938 16.0001 25.445C13.1843 25.496 10.3823 25.0383 7.72911 24.094L7.57211 24.031C7.04053 23.8192 6.52716 23.5644 6.03711 23.269V26.106C6.03711 28.256 10.5001 30 16.0001 30Z" fill="#DB7533"/>
<path d="M16.0001 9.788C21.5025 9.788 25.9631 8.0446 25.9631 5.894C25.9631 3.7434 21.5025 2 16.0001 2C10.4977 2 6.03711 3.7434 6.03711 5.894C6.03711 8.0446 10.4977 9.788 16.0001 9.788Z" fill="#DB7533"/>
</svg>
