<svg width="32" height="32" viewBox="0 0 32 32" fill="none" xmlns="http://www.w3.org/2000/svg">
<g clip-path="url(#clip0_676_61823)">
<path d="M24.5 0H7.5C3.35786 0 0 3.35786 0 7.5V24.5C0 28.6421 3.35786 32 7.5 32H24.5C28.6421 32 32 28.6421 32 24.5V7.5C32 3.35786 28.6421 0 24.5 0Z" fill="#242938"/>
<path d="M11.6516 27.8675L6.25 6L27.9037 12.2343L11.6516 27.8675Z" stroke="white" stroke-width="0.7" stroke-miterlimit="10" stroke-linejoin="round"/>
<path d="M17.0732 9.11768L19.772 20.0547L8.95117 16.9366L17.0732 9.11768Z" stroke="white" stroke-width="0.7" stroke-miterlimit="10" stroke-linejoin="round"/>
<path d="M14.3879 18.4199L13.0474 12.9868L18.4234 14.5301L14.3879 18.4199ZM11.7063 7.5603L13.0469 12.9934L7.6709 11.4502L11.7063 7.5603ZM22.4579 10.6574L23.7984 16.0906L18.4224 14.5473L22.4579 10.6574ZM14.3885 18.4237L15.729 23.8568L10.353 22.3136L14.3885 18.4237Z" stroke="white" stroke-width="0.7" stroke-miterlimit="10" stroke-linejoin="round"/>
</g>
<defs>
<clipPath id="clip0_676_61823">
<rect width="32" height="32" fill="white"/>
</clipPath>
</defs>
</svg>
