<svg width="32" height="32" viewBox="0 0 32 32" fill="none" xmlns="http://www.w3.org/2000/svg">
<path d="M28.688 2H3.312C2.5874 2 2 2.5874 2 3.312V28.688C2 29.4126 2.5874 30 3.312 30H28.688C29.4126 30 30 29.4126 30 28.688V3.312C30 2.5874 29.4126 2 28.688 2Z" fill="#3178C6"/>
<path fill-rule="evenodd" clip-rule="evenodd" d="M18.2455 23.7591V26.8271C18.803 27.1021 19.397 27.2958 20.0095 27.4021C20.7173 27.5326 21.4357 27.5968 22.1555 27.5941C22.857 27.5972 23.5568 27.5265 24.2435 27.3831C24.86 27.2588 25.4483 27.0214 25.9785 26.6831C26.4709 26.3654 26.8767 25.9304 27.1595 25.4171C27.666 24.3544 27.7328 23.1348 27.3455 22.0231C27.1822 21.6073 26.9385 21.2277 26.6285 20.9061C26.2962 20.5636 25.9183 20.2685 25.5055 20.0291C25.0306 19.7509 24.5371 19.5056 24.0285 19.2951C23.6285 19.1291 23.2685 18.9678 22.9485 18.8111C22.6643 18.675 22.3923 18.5148 22.1355 18.3321C21.9345 18.191 21.7599 18.0156 21.6195 17.8141C21.4988 17.6308 21.4358 17.4156 21.4385 17.1961C21.4359 16.9941 21.4922 16.7957 21.6005 16.6251C21.7182 16.4466 21.8752 16.2975 22.0595 16.1891C22.2844 16.0559 22.5297 15.9603 22.7855 15.9061C23.0993 15.8363 23.42 15.8028 23.7415 15.8061C24.0118 15.8072 24.2818 15.8266 24.5495 15.8641C24.8387 15.9022 25.1248 15.9614 25.4055 16.0411C25.6912 16.1203 25.9706 16.2206 26.2415 16.3411C26.5042 16.4585 26.7556 16.5998 26.9925 16.7631V13.9001C26.4996 13.7136 25.9885 13.5795 25.4675 13.5001C24.8384 13.4085 24.2032 13.3653 23.5675 13.3711C22.8726 13.3677 22.1798 13.4466 21.5035 13.6061C20.892 13.745 20.3106 13.9933 19.7875 14.3391C19.3013 14.6632 18.8998 15.099 18.6165 15.6101C18.3164 16.1778 18.1679 16.8133 18.1855 17.4551C18.1644 18.3037 18.4438 19.1325 18.9745 19.7951C19.6267 20.5292 20.4491 21.092 21.3695 21.4341C21.7895 21.6074 22.1811 21.7771 22.5445 21.9431C22.8722 22.0892 23.1873 22.2621 23.4865 22.4601C23.7273 22.6176 23.939 22.8155 24.1125 23.0451C24.2645 23.2538 24.3452 23.5059 24.3425 23.7641C24.3439 23.9576 24.2942 24.148 24.1985 24.3161C24.0911 24.496 23.9419 24.6473 23.7635 24.7571C23.5391 24.8935 23.2938 24.9922 23.0375 25.0491C22.7034 25.1236 22.3617 25.1588 22.0195 25.1541C21.3478 25.1523 20.6816 25.0339 20.0505 24.8041C19.3915 24.5657 18.7803 24.2119 18.2455 23.7591ZM13.0915 16.1211H17.0915V13.5941H5.93848V16.1211H9.92048V27.3751H13.0915V16.1211Z" fill="white"/>
</svg>
