<svg width="32" height="32" viewBox="0 0 32 32" fill="none" xmlns="http://www.w3.org/2000/svg">
<g clip-path="url(#clip0_676_61810)">
<path d="M24.5 0H7.5C3.35786 0 0 3.35786 0 7.5V24.5C0 28.6421 3.35786 32 7.5 32H24.5C28.6421 32 32 28.6421 32 24.5V7.5C32 3.35786 28.6421 0 24.5 0Z" fill="#F4F2ED"/>
<path d="M28.386 7.20031L16.657 28.1737C16.4148 28.6068 15.7926 28.6093 15.5469 28.1784L3.58527 7.20218C3.31752 6.73268 3.71902 6.16393 4.25127 6.25906L15.9928 8.35781C16.0677 8.37116 16.1444 8.37099 16.2193 8.35731L27.7153 6.26193C28.2456 6.16531 28.649 6.72968 28.386 7.20031Z" fill="url(#paint0_linear_676_61810)"/>
<path d="M21.5854 3.50626L12.9057 5.20688C12.8363 5.22048 12.7735 5.25673 12.727 5.30995C12.6805 5.36317 12.653 5.43033 12.6488 5.50088L12.1148 14.5185C12.1119 14.5679 12.1205 14.6174 12.1401 14.6629C12.1596 14.7084 12.1894 14.7488 12.2273 14.7807C12.2651 14.8127 12.3098 14.8354 12.358 14.8471C12.4061 14.8587 12.4563 14.859 12.5046 14.8479L14.9212 14.2903C15.1473 14.2381 15.3516 14.4373 15.3052 14.6646L14.5872 18.1804C14.5388 18.417 14.7611 18.6193 14.9921 18.5491L16.4847 18.0956C16.7161 18.0254 16.9384 18.2283 16.8894 18.4651L15.7484 23.9875C15.6771 24.333 16.1366 24.5214 16.3282 24.2251L16.4562 24.0274L23.5289 9.91238C23.6474 9.67613 23.4432 9.40663 23.1836 9.45663L20.6962 9.93676C20.4624 9.98176 20.2636 9.76413 20.3294 9.53551L21.9531 3.90726C22.0191 3.67826 21.8194 3.46051 21.5854 3.50626Z" fill="url(#paint1_linear_676_61810)"/>
</g>
<defs>
<linearGradient id="paint0_linear_676_61810" x1="3.29327" y1="5.50943" x2="17.8909" y2="25.3342" gradientUnits="userSpaceOnUse">
<stop stop-color="#41D1FF"/>
<stop offset="1" stop-color="#BD34FE"/>
</linearGradient>
<linearGradient id="paint1_linear_676_61810" x1="15.3184" y1="3.96788" x2="17.9591" y2="22.0825" gradientUnits="userSpaceOnUse">
<stop stop-color="#FFEA83"/>
<stop offset="0.083" stop-color="#FFDD35"/>
<stop offset="1" stop-color="#FFA800"/>
</linearGradient>
<clipPath id="clip0_676_61810">
<rect width="32" height="32" fill="white"/>
</clipPath>
</defs>
</svg>
