<svg width="32" height="32" viewBox="0 0 32 32" fill="none" xmlns="http://www.w3.org/2000/svg">
<path d="M4.56033 16.0001C4.56033 14.3467 4.92033 12.7734 5.54699 11.3334L11.0137 26.2934C9.07793 25.3594 7.44528 23.8977 6.30362 22.0767C5.16195 20.2557 4.55767 18.1494 4.56033 16.0001ZM23.7203 15.4267C23.7203 16.4001 23.3337 17.5334 22.8537 19.1201L21.707 22.9334L17.5737 10.6667L18.8803 10.5334C19.507 10.4534 19.427 9.54675 18.8137 9.58675C18.8137 9.58675 16.9603 9.73341 15.7603 9.73341L12.747 9.58675C12.1337 9.54675 12.067 10.4934 12.667 10.5334L13.8803 10.6667L15.667 15.5201L13.1603 23.0267L8.98699 10.6667L10.307 10.5334C10.9203 10.4534 10.8403 9.54675 10.227 9.58675C10.227 9.58675 8.37366 9.73341 7.17366 9.73341L6.44033 9.72008C8.49366 6.61341 12.0003 4.56008 16.0003 4.56008C18.9737 4.56008 21.6937 5.70675 23.7203 7.56008H23.5737C22.4537 7.56008 21.6537 8.53341 21.6537 9.58675C21.6537 10.5334 22.2003 11.3334 22.7737 12.2667C23.2137 13.0267 23.7203 14.0001 23.7203 15.4267ZM16.2003 17.0001L19.7203 26.6267L19.8003 26.7867C18.6137 27.2134 17.3337 27.4401 16.0003 27.4401C14.8803 27.4401 13.8003 27.2801 12.7737 26.9734L16.2003 17.0001ZM26.0403 10.5067C26.9621 12.1908 27.4436 14.0803 27.4403 16.0001C27.4403 20.2134 25.147 23.9067 21.747 25.8801L25.2403 15.7867C25.8937 14.1601 26.1203 12.8534 26.1203 11.6934L26.0403 10.5067ZM16.0003 2.66675C17.7513 2.66675 19.4851 3.01162 21.1028 3.68169C22.7204 4.35175 24.1903 5.33388 25.4284 6.57199C26.6665 7.81011 27.6487 9.27996 28.3187 10.8976C28.9888 12.5153 29.3337 14.2491 29.3337 16.0001C29.3337 19.5363 27.9289 22.9277 25.4284 25.4282C22.9279 27.9287 19.5365 29.3334 16.0003 29.3334C14.2494 29.3334 12.5156 28.9885 10.8979 28.3185C9.2802 27.6484 7.81035 26.6663 6.57223 25.4282C4.07175 22.9277 2.66699 19.5363 2.66699 16.0001C2.66699 12.4639 4.07175 9.07248 6.57223 6.57199C9.07272 4.07151 12.4641 2.66675 16.0003 2.66675ZM16.0003 28.7201C23.0137 28.7201 28.7203 23.0134 28.7203 16.0001C28.7203 8.98675 23.0137 3.28008 16.0003 3.28008C8.98699 3.28008 3.28033 8.98675 3.28033 16.0001C3.28033 23.0134 8.98699 28.7201 16.0003 28.7201Z" fill="#21759B"/>
</svg>
